G04 EAGLE Gerber RS-274X export*
G75*
%MOMM*%
%FSLAX34Y34*%
%LPD*%
%INTop Silkscreen*%
%IPPOS*%
%AMOC8*
5,1,8,0,0,1.08239X$1,22.5*%
G01*
%ADD10C,0.076200*%
%ADD11C,0.152400*%
%ADD12C,0.127000*%
%ADD13C,0.203200*%
%ADD14C,0.101600*%


D10*
X251115Y130982D02*
X254798Y137361D01*
X254659Y128936D01*
X258342Y135315D01*
X257886Y127073D02*
X260721Y125436D01*
X257886Y127073D02*
X261569Y133452D01*
X264404Y131815D01*
X262058Y129389D02*
X259932Y130617D01*
X267890Y126022D02*
X268953Y125408D01*
X266907Y121864D01*
X264780Y123092D01*
X264714Y123133D01*
X264649Y123177D01*
X264587Y123223D01*
X264527Y123273D01*
X264469Y123325D01*
X264414Y123380D01*
X264362Y123438D01*
X264312Y123498D01*
X264266Y123560D01*
X264222Y123625D01*
X264181Y123692D01*
X264144Y123760D01*
X264110Y123830D01*
X264079Y123902D01*
X264052Y123975D01*
X264028Y124049D01*
X264008Y124124D01*
X263992Y124200D01*
X263979Y124277D01*
X263969Y124354D01*
X263964Y124432D01*
X263962Y124510D01*
X263964Y124588D01*
X263969Y124666D01*
X263979Y124743D01*
X263992Y124820D01*
X264008Y124896D01*
X264028Y124971D01*
X264052Y125045D01*
X264079Y125118D01*
X264110Y125190D01*
X264144Y125260D01*
X264181Y125329D01*
X264181Y125328D02*
X266227Y128872D01*
X266227Y128873D02*
X266268Y128939D01*
X266312Y129004D01*
X266358Y129066D01*
X266408Y129126D01*
X266460Y129184D01*
X266515Y129239D01*
X266573Y129291D01*
X266633Y129341D01*
X266695Y129387D01*
X266760Y129431D01*
X266827Y129472D01*
X266895Y129509D01*
X266965Y129543D01*
X267037Y129574D01*
X267110Y129601D01*
X267184Y129625D01*
X267259Y129645D01*
X267335Y129661D01*
X267412Y129674D01*
X267489Y129684D01*
X267567Y129689D01*
X267645Y129691D01*
X267723Y129689D01*
X267801Y129684D01*
X267878Y129674D01*
X267955Y129661D01*
X268031Y129645D01*
X268106Y129625D01*
X268180Y129601D01*
X268253Y129574D01*
X268325Y129543D01*
X268395Y129509D01*
X268464Y129472D01*
X268463Y129471D02*
X270590Y128244D01*
X274097Y126219D02*
X270414Y119839D01*
X271123Y119430D02*
X269705Y120249D01*
X273388Y126628D02*
X274806Y125809D01*
X277706Y124135D02*
X274023Y117756D01*
X275455Y120236D02*
X281250Y122089D01*
X277691Y120836D02*
X277567Y115710D01*
X279691Y114483D02*
X285500Y119635D01*
X283944Y112028D01*
X284333Y113930D02*
X281143Y115771D01*
X288295Y109515D02*
X288366Y109477D01*
X288438Y109442D01*
X288512Y109411D01*
X288588Y109383D01*
X288664Y109359D01*
X288742Y109339D01*
X288821Y109322D01*
X288900Y109310D01*
X288980Y109301D01*
X289060Y109297D01*
X289141Y109296D01*
X289221Y109300D01*
X289301Y109307D01*
X289381Y109318D01*
X289460Y109333D01*
X289538Y109352D01*
X289615Y109374D01*
X289691Y109401D01*
X289765Y109431D01*
X289838Y109465D01*
X289909Y109502D01*
X289978Y109543D01*
X290046Y109587D01*
X290111Y109634D01*
X290173Y109685D01*
X290233Y109738D01*
X290290Y109795D01*
X290345Y109854D01*
X290396Y109915D01*
X290445Y109979D01*
X290490Y110046D01*
X290532Y110114D01*
X288295Y109515D02*
X288197Y109574D01*
X288102Y109635D01*
X288008Y109700D01*
X287917Y109768D01*
X287828Y109839D01*
X287741Y109913D01*
X287657Y109989D01*
X287575Y110068D01*
X287496Y110150D01*
X287420Y110235D01*
X287347Y110321D01*
X287276Y110411D01*
X287209Y110502D01*
X287144Y110596D01*
X287083Y110692D01*
X287024Y110789D01*
X286970Y110889D01*
X286918Y110990D01*
X286870Y111093D01*
X286825Y111198D01*
X286783Y111304D01*
X286745Y111411D01*
X286711Y111519D01*
X286680Y111629D01*
X289210Y115603D02*
X289252Y115671D01*
X289297Y115738D01*
X289346Y115802D01*
X289397Y115863D01*
X289452Y115922D01*
X289509Y115979D01*
X289569Y116032D01*
X289632Y116083D01*
X289696Y116130D01*
X289764Y116174D01*
X289833Y116215D01*
X289904Y116252D01*
X289977Y116286D01*
X290051Y116316D01*
X290127Y116343D01*
X290204Y116365D01*
X290282Y116384D01*
X290361Y116399D01*
X290441Y116410D01*
X290521Y116417D01*
X290601Y116421D01*
X290682Y116420D01*
X290762Y116416D01*
X290842Y116407D01*
X290921Y116395D01*
X291000Y116378D01*
X291077Y116358D01*
X291154Y116334D01*
X291230Y116306D01*
X291304Y116275D01*
X291376Y116240D01*
X291446Y116202D01*
X291447Y116202D02*
X291541Y116145D01*
X291633Y116085D01*
X291723Y116022D01*
X291811Y115956D01*
X291896Y115887D01*
X291978Y115814D01*
X292058Y115739D01*
X292135Y115661D01*
X292209Y115580D01*
X292281Y115497D01*
X292349Y115411D01*
X292414Y115323D01*
X292476Y115232D01*
X292535Y115139D01*
X292590Y115045D01*
X292642Y114948D01*
X292690Y114849D01*
X292735Y114749D01*
X289203Y113952D02*
X289166Y114022D01*
X289133Y114093D01*
X289102Y114165D01*
X289076Y114239D01*
X289052Y114314D01*
X289032Y114389D01*
X289016Y114466D01*
X289004Y114544D01*
X288995Y114622D01*
X288990Y114700D01*
X288988Y114778D01*
X288990Y114857D01*
X288996Y114935D01*
X289006Y115013D01*
X289019Y115090D01*
X289036Y115167D01*
X289056Y115243D01*
X289080Y115317D01*
X289108Y115391D01*
X289139Y115463D01*
X289173Y115534D01*
X289211Y115602D01*
X290540Y111765D02*
X290577Y111695D01*
X290610Y111625D01*
X290641Y111552D01*
X290667Y111478D01*
X290691Y111404D01*
X290711Y111328D01*
X290727Y111251D01*
X290739Y111173D01*
X290748Y111095D01*
X290753Y111017D01*
X290755Y110939D01*
X290753Y110860D01*
X290747Y110782D01*
X290737Y110704D01*
X290724Y110627D01*
X290707Y110550D01*
X290687Y110474D01*
X290663Y110400D01*
X290635Y110326D01*
X290604Y110254D01*
X290570Y110183D01*
X290532Y110115D01*
X290539Y111764D02*
X289203Y113953D01*
X296187Y113465D02*
X292504Y107086D01*
X294550Y110630D02*
X298094Y108583D01*
X299731Y111419D02*
X296048Y105039D01*
X299555Y103015D02*
X303238Y109394D01*
X298847Y103424D02*
X300264Y102605D01*
X303947Y108984D02*
X302530Y109803D01*
X306790Y107343D02*
X303107Y100964D01*
X306790Y107343D02*
X308562Y106320D01*
X308638Y106274D01*
X308713Y106224D01*
X308785Y106171D01*
X308854Y106115D01*
X308921Y106056D01*
X308986Y105995D01*
X309047Y105930D01*
X309106Y105863D01*
X309162Y105794D01*
X309215Y105722D01*
X309265Y105647D01*
X309311Y105571D01*
X309354Y105493D01*
X309393Y105413D01*
X309429Y105331D01*
X309462Y105248D01*
X309490Y105163D01*
X309515Y105078D01*
X309537Y104991D01*
X309554Y104903D01*
X309567Y104815D01*
X309577Y104726D01*
X309583Y104637D01*
X309585Y104548D01*
X309583Y104459D01*
X309577Y104370D01*
X309567Y104281D01*
X309554Y104193D01*
X309537Y104105D01*
X309515Y104018D01*
X309490Y103933D01*
X309462Y103848D01*
X309429Y103765D01*
X309393Y103683D01*
X309354Y103603D01*
X309311Y103525D01*
X309265Y103449D01*
X309215Y103374D01*
X309162Y103302D01*
X309106Y103233D01*
X309047Y103166D01*
X308986Y103101D01*
X308921Y103040D01*
X308854Y102981D01*
X308785Y102925D01*
X308713Y102872D01*
X308638Y102822D01*
X308562Y102776D01*
X308484Y102733D01*
X308404Y102694D01*
X308322Y102658D01*
X308239Y102625D01*
X308154Y102597D01*
X308069Y102572D01*
X307982Y102550D01*
X307894Y102533D01*
X307806Y102520D01*
X307717Y102510D01*
X307628Y102504D01*
X307539Y102502D01*
X307450Y102504D01*
X307361Y102510D01*
X307272Y102520D01*
X307184Y102533D01*
X307096Y102550D01*
X307009Y102572D01*
X306924Y102597D01*
X306839Y102625D01*
X306756Y102658D01*
X306674Y102694D01*
X306594Y102733D01*
X306516Y102776D01*
X304744Y103799D01*
X306870Y102571D02*
X306651Y98918D01*
X309043Y97537D02*
X314853Y102688D01*
X313296Y95081D01*
X313685Y96983D02*
X310496Y98824D01*
D11*
X40640Y43180D02*
X10160Y43180D01*
X10160Y-12700D01*
X40640Y-12700D01*
X40640Y43180D01*
D12*
X-1588Y-3175D02*
X-1692Y-3177D01*
X-1797Y-3183D01*
X-1901Y-3192D01*
X-2004Y-3205D01*
X-2107Y-3223D01*
X-2209Y-3243D01*
X-2311Y-3268D01*
X-2411Y-3296D01*
X-2511Y-3328D01*
X-2609Y-3364D01*
X-2706Y-3403D01*
X-2801Y-3445D01*
X-2895Y-3491D01*
X-2987Y-3541D01*
X-3077Y-3593D01*
X-3165Y-3649D01*
X-3251Y-3709D01*
X-3335Y-3771D01*
X-3416Y-3836D01*
X-3495Y-3904D01*
X-3572Y-3976D01*
X-3645Y-4049D01*
X-3717Y-4126D01*
X-3785Y-4205D01*
X-3850Y-4286D01*
X-3912Y-4370D01*
X-3972Y-4456D01*
X-4028Y-4544D01*
X-4080Y-4634D01*
X-4130Y-4726D01*
X-4176Y-4820D01*
X-4218Y-4915D01*
X-4257Y-5012D01*
X-4293Y-5110D01*
X-4325Y-5210D01*
X-4353Y-5310D01*
X-4378Y-5412D01*
X-4398Y-5514D01*
X-4416Y-5617D01*
X-4429Y-5720D01*
X-4438Y-5824D01*
X-4444Y-5929D01*
X-4446Y-6033D01*
X-4445Y-6033D02*
X-4443Y-6151D01*
X-4437Y-6270D01*
X-4428Y-6388D01*
X-4415Y-6505D01*
X-4397Y-6622D01*
X-4377Y-6739D01*
X-4352Y-6855D01*
X-4324Y-6970D01*
X-4291Y-7083D01*
X-4256Y-7196D01*
X-4216Y-7308D01*
X-4174Y-7418D01*
X-4127Y-7527D01*
X-4077Y-7635D01*
X-4024Y-7740D01*
X-3967Y-7844D01*
X-3907Y-7946D01*
X-3844Y-8046D01*
X-3777Y-8144D01*
X-3708Y-8240D01*
X-3635Y-8333D01*
X-3559Y-8424D01*
X-3481Y-8513D01*
X-3399Y-8599D01*
X-3315Y-8682D01*
X-3229Y-8763D01*
X-3139Y-8840D01*
X-3048Y-8915D01*
X-2954Y-8987D01*
X-2857Y-9056D01*
X-2759Y-9121D01*
X-2658Y-9184D01*
X-2555Y-9243D01*
X-2451Y-9299D01*
X-2345Y-9351D01*
X-2237Y-9400D01*
X-2128Y-9445D01*
X-2017Y-9487D01*
X-1905Y-9525D01*
X634Y-4127D02*
X559Y-4051D01*
X480Y-3976D01*
X399Y-3905D01*
X315Y-3836D01*
X229Y-3771D01*
X141Y-3709D01*
X51Y-3649D01*
X-41Y-3593D01*
X-136Y-3540D01*
X-232Y-3491D01*
X-330Y-3445D01*
X-429Y-3402D01*
X-530Y-3363D01*
X-632Y-3328D01*
X-735Y-3296D01*
X-839Y-3268D01*
X-944Y-3243D01*
X-1051Y-3222D01*
X-1157Y-3205D01*
X-1264Y-3192D01*
X-1372Y-3183D01*
X-1480Y-3177D01*
X-1588Y-3175D01*
X635Y-4128D02*
X6985Y-9525D01*
X6985Y-3175D01*
D11*
X48260Y43180D02*
X78740Y43180D01*
X48260Y43180D02*
X48260Y-12700D01*
X78740Y-12700D01*
X78740Y43180D01*
D12*
X42545Y-9525D02*
X33655Y-6985D01*
X42545Y-9525D02*
X42545Y-3175D01*
X40005Y-5080D02*
X45085Y-5080D01*
D11*
X86360Y43180D02*
X116840Y43180D01*
X86360Y43180D02*
X86360Y-12700D01*
X116840Y-12700D01*
X116840Y43180D01*
D12*
X76835Y-5715D02*
X76835Y-9525D01*
X76835Y-5715D02*
X76837Y-5615D01*
X76843Y-5516D01*
X76853Y-5416D01*
X76866Y-5318D01*
X76884Y-5219D01*
X76905Y-5122D01*
X76930Y-5026D01*
X76959Y-4930D01*
X76992Y-4836D01*
X77028Y-4743D01*
X77068Y-4652D01*
X77112Y-4562D01*
X77159Y-4474D01*
X77209Y-4388D01*
X77263Y-4304D01*
X77320Y-4222D01*
X77380Y-4143D01*
X77444Y-4065D01*
X77510Y-3991D01*
X77579Y-3919D01*
X77651Y-3850D01*
X77725Y-3784D01*
X77803Y-3720D01*
X77882Y-3660D01*
X77964Y-3603D01*
X78048Y-3549D01*
X78134Y-3499D01*
X78222Y-3452D01*
X78312Y-3408D01*
X78403Y-3368D01*
X78496Y-3332D01*
X78590Y-3299D01*
X78686Y-3270D01*
X78782Y-3245D01*
X78879Y-3224D01*
X78978Y-3206D01*
X79076Y-3193D01*
X79176Y-3183D01*
X79275Y-3177D01*
X79375Y-3175D01*
X80010Y-3175D01*
X80121Y-3177D01*
X80231Y-3183D01*
X80342Y-3192D01*
X80452Y-3206D01*
X80561Y-3223D01*
X80670Y-3244D01*
X80778Y-3269D01*
X80885Y-3298D01*
X80991Y-3330D01*
X81096Y-3366D01*
X81199Y-3406D01*
X81301Y-3449D01*
X81402Y-3496D01*
X81501Y-3547D01*
X81598Y-3600D01*
X81692Y-3657D01*
X81785Y-3718D01*
X81876Y-3781D01*
X81965Y-3848D01*
X82051Y-3918D01*
X82134Y-3991D01*
X82216Y-4066D01*
X82294Y-4144D01*
X82369Y-4226D01*
X82442Y-4309D01*
X82512Y-4395D01*
X82579Y-4484D01*
X82642Y-4575D01*
X82703Y-4668D01*
X82760Y-4763D01*
X82813Y-4859D01*
X82864Y-4958D01*
X82911Y-5059D01*
X82954Y-5161D01*
X82994Y-5264D01*
X83030Y-5369D01*
X83062Y-5475D01*
X83091Y-5582D01*
X83116Y-5690D01*
X83137Y-5799D01*
X83154Y-5908D01*
X83168Y-6018D01*
X83177Y-6129D01*
X83183Y-6239D01*
X83185Y-6350D01*
X83183Y-6461D01*
X83177Y-6571D01*
X83168Y-6682D01*
X83154Y-6792D01*
X83137Y-6901D01*
X83116Y-7010D01*
X83091Y-7118D01*
X83062Y-7225D01*
X83030Y-7331D01*
X82994Y-7436D01*
X82954Y-7539D01*
X82911Y-7641D01*
X82864Y-7742D01*
X82813Y-7841D01*
X82760Y-7938D01*
X82703Y-8032D01*
X82642Y-8125D01*
X82579Y-8216D01*
X82512Y-8305D01*
X82442Y-8391D01*
X82369Y-8474D01*
X82294Y-8556D01*
X82216Y-8634D01*
X82134Y-8709D01*
X82051Y-8782D01*
X81965Y-8852D01*
X81876Y-8919D01*
X81785Y-8982D01*
X81692Y-9043D01*
X81597Y-9100D01*
X81501Y-9153D01*
X81402Y-9204D01*
X81301Y-9251D01*
X81199Y-9294D01*
X81096Y-9334D01*
X80991Y-9370D01*
X80885Y-9402D01*
X80778Y-9431D01*
X80670Y-9456D01*
X80561Y-9477D01*
X80452Y-9494D01*
X80342Y-9508D01*
X80231Y-9517D01*
X80121Y-9523D01*
X80010Y-9525D01*
X76835Y-9525D01*
X76695Y-9523D01*
X76555Y-9517D01*
X76415Y-9508D01*
X76276Y-9494D01*
X76137Y-9477D01*
X75999Y-9456D01*
X75861Y-9431D01*
X75724Y-9402D01*
X75588Y-9370D01*
X75453Y-9333D01*
X75319Y-9293D01*
X75186Y-9250D01*
X75054Y-9202D01*
X74923Y-9152D01*
X74794Y-9097D01*
X74667Y-9039D01*
X74541Y-8978D01*
X74417Y-8913D01*
X74295Y-8844D01*
X74175Y-8773D01*
X74057Y-8698D01*
X73940Y-8620D01*
X73826Y-8538D01*
X73715Y-8454D01*
X73606Y-8366D01*
X73499Y-8276D01*
X73394Y-8182D01*
X73293Y-8086D01*
X73194Y-7987D01*
X73098Y-7886D01*
X73004Y-7781D01*
X72914Y-7674D01*
X72826Y-7565D01*
X72742Y-7454D01*
X72660Y-7340D01*
X72582Y-7223D01*
X72507Y-7105D01*
X72436Y-6985D01*
X72367Y-6863D01*
X72302Y-6739D01*
X72241Y-6613D01*
X72183Y-6486D01*
X72128Y-6357D01*
X72078Y-6226D01*
X72030Y-6094D01*
X71987Y-5961D01*
X71947Y-5827D01*
X71910Y-5692D01*
X71878Y-5556D01*
X71849Y-5419D01*
X71824Y-5281D01*
X71803Y-5143D01*
X71786Y-5004D01*
X71772Y-4865D01*
X71763Y-4725D01*
X71757Y-4585D01*
X71755Y-4445D01*
D11*
X124460Y43180D02*
X154940Y43180D01*
X124460Y43180D02*
X124460Y-12700D01*
X154940Y-12700D01*
X154940Y43180D01*
D12*
X118110Y-3175D02*
X117999Y-3177D01*
X117889Y-3183D01*
X117778Y-3192D01*
X117668Y-3206D01*
X117559Y-3223D01*
X117450Y-3244D01*
X117342Y-3269D01*
X117235Y-3298D01*
X117129Y-3330D01*
X117024Y-3366D01*
X116921Y-3406D01*
X116819Y-3449D01*
X116718Y-3496D01*
X116619Y-3547D01*
X116523Y-3600D01*
X116428Y-3657D01*
X116335Y-3718D01*
X116244Y-3781D01*
X116155Y-3848D01*
X116069Y-3918D01*
X115986Y-3991D01*
X115904Y-4066D01*
X115826Y-4144D01*
X115751Y-4226D01*
X115678Y-4309D01*
X115608Y-4395D01*
X115541Y-4484D01*
X115478Y-4575D01*
X115417Y-4668D01*
X115360Y-4763D01*
X115307Y-4859D01*
X115256Y-4958D01*
X115209Y-5059D01*
X115166Y-5161D01*
X115126Y-5264D01*
X115090Y-5369D01*
X115058Y-5475D01*
X115029Y-5582D01*
X115004Y-5690D01*
X114983Y-5799D01*
X114966Y-5908D01*
X114952Y-6018D01*
X114943Y-6129D01*
X114937Y-6239D01*
X114935Y-6350D01*
X114937Y-6461D01*
X114943Y-6571D01*
X114952Y-6682D01*
X114966Y-6792D01*
X114983Y-6901D01*
X115004Y-7010D01*
X115029Y-7118D01*
X115058Y-7225D01*
X115090Y-7331D01*
X115126Y-7436D01*
X115166Y-7539D01*
X115209Y-7641D01*
X115256Y-7742D01*
X115307Y-7841D01*
X115360Y-7938D01*
X115417Y-8032D01*
X115478Y-8125D01*
X115541Y-8216D01*
X115608Y-8305D01*
X115678Y-8391D01*
X115751Y-8474D01*
X115826Y-8556D01*
X115904Y-8634D01*
X115986Y-8709D01*
X116069Y-8782D01*
X116155Y-8852D01*
X116244Y-8919D01*
X116335Y-8982D01*
X116428Y-9043D01*
X116523Y-9100D01*
X116619Y-9153D01*
X116718Y-9204D01*
X116819Y-9251D01*
X116921Y-9294D01*
X117024Y-9334D01*
X117129Y-9370D01*
X117235Y-9402D01*
X117342Y-9431D01*
X117450Y-9456D01*
X117559Y-9477D01*
X117668Y-9494D01*
X117778Y-9508D01*
X117889Y-9517D01*
X117999Y-9523D01*
X118110Y-9525D01*
X118221Y-9523D01*
X118331Y-9517D01*
X118442Y-9508D01*
X118552Y-9494D01*
X118661Y-9477D01*
X118770Y-9456D01*
X118878Y-9431D01*
X118985Y-9402D01*
X119091Y-9370D01*
X119196Y-9334D01*
X119299Y-9294D01*
X119401Y-9251D01*
X119502Y-9204D01*
X119601Y-9153D01*
X119697Y-9100D01*
X119792Y-9043D01*
X119885Y-8982D01*
X119976Y-8919D01*
X120065Y-8852D01*
X120151Y-8782D01*
X120234Y-8709D01*
X120316Y-8634D01*
X120394Y-8556D01*
X120469Y-8474D01*
X120542Y-8391D01*
X120612Y-8305D01*
X120679Y-8216D01*
X120742Y-8125D01*
X120803Y-8032D01*
X120860Y-7938D01*
X120913Y-7841D01*
X120964Y-7742D01*
X121011Y-7641D01*
X121054Y-7539D01*
X121094Y-7436D01*
X121130Y-7331D01*
X121162Y-7225D01*
X121191Y-7118D01*
X121216Y-7010D01*
X121237Y-6901D01*
X121254Y-6792D01*
X121268Y-6682D01*
X121277Y-6571D01*
X121283Y-6461D01*
X121285Y-6350D01*
X121283Y-6239D01*
X121277Y-6129D01*
X121268Y-6018D01*
X121254Y-5908D01*
X121237Y-5799D01*
X121216Y-5690D01*
X121191Y-5582D01*
X121162Y-5475D01*
X121130Y-5369D01*
X121094Y-5264D01*
X121054Y-5161D01*
X121011Y-5059D01*
X120964Y-4958D01*
X120913Y-4859D01*
X120860Y-4763D01*
X120803Y-4668D01*
X120742Y-4575D01*
X120679Y-4484D01*
X120612Y-4395D01*
X120542Y-4309D01*
X120469Y-4226D01*
X120394Y-4144D01*
X120316Y-4066D01*
X120234Y-3991D01*
X120151Y-3918D01*
X120065Y-3848D01*
X119976Y-3781D01*
X119885Y-3718D01*
X119792Y-3657D01*
X119698Y-3600D01*
X119601Y-3547D01*
X119502Y-3496D01*
X119401Y-3449D01*
X119299Y-3406D01*
X119196Y-3366D01*
X119091Y-3330D01*
X118985Y-3298D01*
X118878Y-3269D01*
X118770Y-3244D01*
X118661Y-3223D01*
X118552Y-3206D01*
X118442Y-3192D01*
X118331Y-3183D01*
X118221Y-3177D01*
X118110Y-3175D01*
X112395Y-3810D02*
X112295Y-3812D01*
X112196Y-3818D01*
X112096Y-3828D01*
X111998Y-3841D01*
X111899Y-3859D01*
X111802Y-3880D01*
X111706Y-3905D01*
X111610Y-3934D01*
X111516Y-3967D01*
X111423Y-4003D01*
X111332Y-4043D01*
X111242Y-4087D01*
X111154Y-4134D01*
X111068Y-4184D01*
X110984Y-4238D01*
X110902Y-4295D01*
X110823Y-4355D01*
X110745Y-4419D01*
X110671Y-4485D01*
X110599Y-4554D01*
X110530Y-4626D01*
X110464Y-4700D01*
X110400Y-4778D01*
X110340Y-4857D01*
X110283Y-4939D01*
X110229Y-5023D01*
X110179Y-5109D01*
X110132Y-5197D01*
X110088Y-5287D01*
X110048Y-5378D01*
X110012Y-5471D01*
X109979Y-5565D01*
X109950Y-5661D01*
X109925Y-5757D01*
X109904Y-5854D01*
X109886Y-5953D01*
X109873Y-6051D01*
X109863Y-6151D01*
X109857Y-6250D01*
X109855Y-6350D01*
X109857Y-6450D01*
X109863Y-6549D01*
X109873Y-6649D01*
X109886Y-6747D01*
X109904Y-6846D01*
X109925Y-6943D01*
X109950Y-7039D01*
X109979Y-7135D01*
X110012Y-7229D01*
X110048Y-7322D01*
X110088Y-7413D01*
X110132Y-7503D01*
X110179Y-7591D01*
X110229Y-7677D01*
X110283Y-7761D01*
X110340Y-7843D01*
X110400Y-7922D01*
X110464Y-8000D01*
X110530Y-8074D01*
X110599Y-8146D01*
X110671Y-8215D01*
X110745Y-8281D01*
X110823Y-8345D01*
X110902Y-8405D01*
X110984Y-8462D01*
X111068Y-8516D01*
X111154Y-8566D01*
X111242Y-8613D01*
X111332Y-8657D01*
X111423Y-8697D01*
X111516Y-8733D01*
X111610Y-8766D01*
X111706Y-8795D01*
X111802Y-8820D01*
X111899Y-8841D01*
X111998Y-8859D01*
X112096Y-8872D01*
X112196Y-8882D01*
X112295Y-8888D01*
X112395Y-8890D01*
X112495Y-8888D01*
X112594Y-8882D01*
X112694Y-8872D01*
X112792Y-8859D01*
X112891Y-8841D01*
X112988Y-8820D01*
X113084Y-8795D01*
X113180Y-8766D01*
X113274Y-8733D01*
X113367Y-8697D01*
X113458Y-8657D01*
X113548Y-8613D01*
X113636Y-8566D01*
X113722Y-8516D01*
X113806Y-8462D01*
X113888Y-8405D01*
X113967Y-8345D01*
X114045Y-8281D01*
X114119Y-8215D01*
X114191Y-8146D01*
X114260Y-8074D01*
X114326Y-8000D01*
X114390Y-7922D01*
X114450Y-7843D01*
X114507Y-7761D01*
X114561Y-7677D01*
X114611Y-7591D01*
X114658Y-7503D01*
X114702Y-7413D01*
X114742Y-7322D01*
X114778Y-7229D01*
X114811Y-7135D01*
X114840Y-7039D01*
X114865Y-6943D01*
X114886Y-6846D01*
X114904Y-6747D01*
X114917Y-6649D01*
X114927Y-6549D01*
X114933Y-6450D01*
X114935Y-6350D01*
X114933Y-6250D01*
X114927Y-6151D01*
X114917Y-6051D01*
X114904Y-5953D01*
X114886Y-5854D01*
X114865Y-5757D01*
X114840Y-5661D01*
X114811Y-5565D01*
X114778Y-5471D01*
X114742Y-5378D01*
X114702Y-5287D01*
X114658Y-5197D01*
X114611Y-5109D01*
X114561Y-5023D01*
X114507Y-4939D01*
X114450Y-4857D01*
X114390Y-4778D01*
X114326Y-4700D01*
X114260Y-4626D01*
X114191Y-4554D01*
X114119Y-4485D01*
X114045Y-4419D01*
X113967Y-4355D01*
X113888Y-4295D01*
X113806Y-4238D01*
X113722Y-4184D01*
X113636Y-4134D01*
X113548Y-4087D01*
X113458Y-4043D01*
X113367Y-4003D01*
X113274Y-3967D01*
X113180Y-3934D01*
X113084Y-3905D01*
X112988Y-3880D01*
X112891Y-3859D01*
X112792Y-3841D01*
X112694Y-3828D01*
X112594Y-3818D01*
X112495Y-3812D01*
X112395Y-3810D01*
D11*
X162560Y43180D02*
X193040Y43180D01*
X162560Y43180D02*
X162560Y-12700D01*
X193040Y-12700D01*
X193040Y43180D01*
D12*
X147955Y-6350D02*
X150495Y-9525D01*
X147955Y-6350D02*
X159385Y-6350D01*
X159385Y-9525D02*
X159385Y-3175D01*
X153670Y1905D02*
X153445Y1908D01*
X153220Y1916D01*
X152996Y1929D01*
X152772Y1948D01*
X152548Y1972D01*
X152325Y2001D01*
X152103Y2036D01*
X151882Y2076D01*
X151662Y2122D01*
X151443Y2172D01*
X151225Y2228D01*
X151008Y2289D01*
X150793Y2355D01*
X150580Y2426D01*
X150369Y2503D01*
X150159Y2584D01*
X149951Y2670D01*
X149746Y2761D01*
X149543Y2857D01*
X149455Y2889D01*
X149368Y2925D01*
X149282Y2964D01*
X149198Y3007D01*
X149116Y3053D01*
X149036Y3102D01*
X148958Y3154D01*
X148882Y3210D01*
X148808Y3268D01*
X148737Y3330D01*
X148668Y3394D01*
X148602Y3461D01*
X148539Y3530D01*
X148478Y3602D01*
X148420Y3676D01*
X148366Y3753D01*
X148314Y3831D01*
X148266Y3912D01*
X148221Y3994D01*
X148179Y4079D01*
X148141Y4165D01*
X148106Y4252D01*
X148074Y4340D01*
X148047Y4430D01*
X148022Y4521D01*
X148002Y4613D01*
X147985Y4705D01*
X147972Y4799D01*
X147963Y4892D01*
X147957Y4986D01*
X147955Y5080D01*
X147957Y5174D01*
X147963Y5268D01*
X147972Y5361D01*
X147985Y5455D01*
X148002Y5547D01*
X148022Y5639D01*
X148047Y5730D01*
X148074Y5820D01*
X148106Y5908D01*
X148141Y5995D01*
X148179Y6081D01*
X148221Y6166D01*
X148266Y6248D01*
X148314Y6329D01*
X148366Y6407D01*
X148420Y6484D01*
X148478Y6558D01*
X148539Y6630D01*
X148602Y6699D01*
X148668Y6766D01*
X148737Y6830D01*
X148808Y6892D01*
X148882Y6950D01*
X148958Y7006D01*
X149036Y7058D01*
X149116Y7107D01*
X149198Y7153D01*
X149282Y7196D01*
X149368Y7235D01*
X149455Y7271D01*
X149543Y7303D01*
X149746Y7399D01*
X149951Y7490D01*
X150159Y7576D01*
X150369Y7657D01*
X150580Y7734D01*
X150793Y7805D01*
X151008Y7871D01*
X151225Y7932D01*
X151443Y7988D01*
X151662Y8038D01*
X151882Y8084D01*
X152103Y8124D01*
X152325Y8159D01*
X152548Y8188D01*
X152772Y8212D01*
X152996Y8231D01*
X153220Y8244D01*
X153445Y8252D01*
X153670Y8255D01*
X153670Y1905D02*
X153895Y1908D01*
X154120Y1916D01*
X154344Y1929D01*
X154568Y1948D01*
X154792Y1972D01*
X155015Y2001D01*
X155237Y2036D01*
X155458Y2076D01*
X155678Y2122D01*
X155897Y2172D01*
X156115Y2228D01*
X156332Y2289D01*
X156547Y2355D01*
X156760Y2426D01*
X156971Y2503D01*
X157181Y2584D01*
X157389Y2670D01*
X157594Y2761D01*
X157797Y2857D01*
X157798Y2857D02*
X157886Y2889D01*
X157973Y2925D01*
X158059Y2964D01*
X158143Y3007D01*
X158225Y3053D01*
X158305Y3102D01*
X158383Y3154D01*
X158459Y3210D01*
X158533Y3268D01*
X158604Y3330D01*
X158673Y3394D01*
X158739Y3461D01*
X158802Y3530D01*
X158863Y3602D01*
X158921Y3676D01*
X158975Y3753D01*
X159027Y3831D01*
X159075Y3912D01*
X159120Y3994D01*
X159162Y4079D01*
X159200Y4165D01*
X159235Y4252D01*
X159267Y4340D01*
X159294Y4430D01*
X159319Y4521D01*
X159339Y4613D01*
X159356Y4705D01*
X159369Y4799D01*
X159378Y4892D01*
X159384Y4986D01*
X159386Y5080D01*
X157797Y7303D02*
X157594Y7399D01*
X157389Y7490D01*
X157181Y7576D01*
X156971Y7657D01*
X156760Y7734D01*
X156547Y7805D01*
X156332Y7871D01*
X156115Y7932D01*
X155897Y7988D01*
X155678Y8038D01*
X155458Y8084D01*
X155237Y8124D01*
X155015Y8159D01*
X154792Y8188D01*
X154568Y8212D01*
X154344Y8231D01*
X154120Y8244D01*
X153895Y8252D01*
X153670Y8255D01*
X157798Y7303D02*
X157886Y7271D01*
X157973Y7235D01*
X158059Y7196D01*
X158143Y7153D01*
X158225Y7107D01*
X158305Y7058D01*
X158383Y7006D01*
X158459Y6950D01*
X158533Y6892D01*
X158604Y6830D01*
X158673Y6766D01*
X158739Y6699D01*
X158802Y6630D01*
X158863Y6558D01*
X158921Y6484D01*
X158975Y6407D01*
X159027Y6329D01*
X159075Y6248D01*
X159120Y6166D01*
X159162Y6081D01*
X159200Y5995D01*
X159235Y5908D01*
X159267Y5820D01*
X159294Y5730D01*
X159319Y5639D01*
X159339Y5547D01*
X159356Y5455D01*
X159369Y5361D01*
X159378Y5268D01*
X159384Y5174D01*
X159386Y5080D01*
X156845Y2540D02*
X150495Y7620D01*
D11*
X200660Y43180D02*
X231140Y43180D01*
X200660Y43180D02*
X200660Y-12700D01*
X231140Y-12700D01*
X231140Y43180D01*
D12*
X186055Y-6350D02*
X188595Y-9525D01*
X186055Y-6350D02*
X197485Y-6350D01*
X197485Y-9525D02*
X197485Y-3175D01*
X186055Y5398D02*
X186057Y5502D01*
X186063Y5607D01*
X186072Y5711D01*
X186085Y5814D01*
X186103Y5917D01*
X186123Y6019D01*
X186148Y6121D01*
X186176Y6221D01*
X186208Y6321D01*
X186244Y6419D01*
X186283Y6516D01*
X186325Y6611D01*
X186371Y6705D01*
X186421Y6797D01*
X186473Y6887D01*
X186529Y6975D01*
X186589Y7061D01*
X186651Y7145D01*
X186716Y7226D01*
X186784Y7305D01*
X186856Y7382D01*
X186929Y7455D01*
X187006Y7527D01*
X187085Y7595D01*
X187166Y7660D01*
X187250Y7722D01*
X187336Y7782D01*
X187424Y7838D01*
X187514Y7890D01*
X187606Y7940D01*
X187700Y7986D01*
X187795Y8028D01*
X187892Y8067D01*
X187990Y8103D01*
X188090Y8135D01*
X188190Y8163D01*
X188292Y8188D01*
X188394Y8208D01*
X188497Y8226D01*
X188600Y8239D01*
X188704Y8248D01*
X188809Y8254D01*
X188913Y8256D01*
X186055Y5398D02*
X186057Y5280D01*
X186063Y5161D01*
X186072Y5043D01*
X186085Y4926D01*
X186103Y4809D01*
X186123Y4692D01*
X186148Y4576D01*
X186176Y4461D01*
X186209Y4348D01*
X186244Y4235D01*
X186284Y4123D01*
X186326Y4013D01*
X186373Y3904D01*
X186423Y3796D01*
X186476Y3691D01*
X186533Y3587D01*
X186593Y3485D01*
X186656Y3385D01*
X186723Y3287D01*
X186792Y3191D01*
X186865Y3098D01*
X186941Y3007D01*
X187019Y2918D01*
X187101Y2832D01*
X187185Y2749D01*
X187271Y2668D01*
X187361Y2591D01*
X187452Y2516D01*
X187546Y2444D01*
X187643Y2375D01*
X187741Y2310D01*
X187842Y2247D01*
X187945Y2188D01*
X188049Y2132D01*
X188155Y2080D01*
X188263Y2031D01*
X188372Y1986D01*
X188483Y1944D01*
X188595Y1906D01*
X191135Y7303D02*
X191060Y7379D01*
X190981Y7454D01*
X190900Y7525D01*
X190816Y7594D01*
X190730Y7659D01*
X190642Y7721D01*
X190552Y7781D01*
X190460Y7837D01*
X190365Y7890D01*
X190269Y7939D01*
X190171Y7985D01*
X190072Y8028D01*
X189971Y8067D01*
X189869Y8102D01*
X189766Y8134D01*
X189662Y8162D01*
X189557Y8187D01*
X189450Y8208D01*
X189344Y8225D01*
X189237Y8238D01*
X189129Y8247D01*
X189021Y8253D01*
X188913Y8255D01*
X191135Y7303D02*
X197485Y1905D01*
X197485Y8255D01*
D11*
X238760Y43180D02*
X269240Y43180D01*
X238760Y43180D02*
X238760Y-12700D01*
X269240Y-12700D01*
X269240Y43180D01*
D12*
X224155Y-6350D02*
X226695Y-9525D01*
X224155Y-6350D02*
X235585Y-6350D01*
X235585Y-9525D02*
X235585Y-3175D01*
X233045Y1905D02*
X224155Y4445D01*
X233045Y1905D02*
X233045Y8255D01*
X230505Y6350D02*
X235585Y6350D01*
D11*
X276860Y43180D02*
X307340Y43180D01*
X276860Y43180D02*
X276860Y-12700D01*
X307340Y-12700D01*
X307340Y43180D01*
D12*
X273685Y-4445D02*
X273685Y-6985D01*
X273683Y-7085D01*
X273677Y-7184D01*
X273667Y-7284D01*
X273654Y-7382D01*
X273636Y-7481D01*
X273615Y-7578D01*
X273590Y-7674D01*
X273561Y-7770D01*
X273528Y-7864D01*
X273492Y-7957D01*
X273452Y-8048D01*
X273408Y-8138D01*
X273361Y-8226D01*
X273311Y-8312D01*
X273257Y-8396D01*
X273200Y-8478D01*
X273140Y-8557D01*
X273076Y-8635D01*
X273010Y-8709D01*
X272941Y-8781D01*
X272869Y-8850D01*
X272795Y-8916D01*
X272717Y-8980D01*
X272638Y-9040D01*
X272556Y-9097D01*
X272472Y-9151D01*
X272386Y-9201D01*
X272298Y-9248D01*
X272208Y-9292D01*
X272117Y-9332D01*
X272024Y-9368D01*
X271930Y-9401D01*
X271834Y-9430D01*
X271738Y-9455D01*
X271641Y-9476D01*
X271542Y-9494D01*
X271444Y-9507D01*
X271344Y-9517D01*
X271245Y-9523D01*
X271145Y-9525D01*
X264795Y-9525D01*
X264695Y-9523D01*
X264596Y-9517D01*
X264496Y-9507D01*
X264398Y-9494D01*
X264299Y-9476D01*
X264202Y-9455D01*
X264106Y-9430D01*
X264010Y-9401D01*
X263916Y-9368D01*
X263823Y-9332D01*
X263732Y-9292D01*
X263642Y-9248D01*
X263554Y-9201D01*
X263468Y-9151D01*
X263384Y-9097D01*
X263302Y-9040D01*
X263223Y-8980D01*
X263145Y-8916D01*
X263071Y-8850D01*
X262999Y-8781D01*
X262930Y-8709D01*
X262864Y-8635D01*
X262800Y-8557D01*
X262740Y-8478D01*
X262683Y-8396D01*
X262629Y-8312D01*
X262579Y-8226D01*
X262532Y-8138D01*
X262488Y-8048D01*
X262448Y-7957D01*
X262412Y-7864D01*
X262379Y-7770D01*
X262350Y-7674D01*
X262325Y-7578D01*
X262304Y-7481D01*
X262286Y-7382D01*
X262273Y-7284D01*
X262263Y-7184D01*
X262257Y-7085D01*
X262255Y-6985D01*
X262255Y-4445D01*
X271145Y6006D02*
X271245Y6004D01*
X271344Y5998D01*
X271444Y5988D01*
X271542Y5975D01*
X271641Y5957D01*
X271738Y5936D01*
X271834Y5911D01*
X271930Y5882D01*
X272024Y5849D01*
X272117Y5813D01*
X272208Y5773D01*
X272298Y5729D01*
X272386Y5682D01*
X272472Y5632D01*
X272556Y5578D01*
X272638Y5521D01*
X272717Y5461D01*
X272795Y5397D01*
X272869Y5331D01*
X272941Y5262D01*
X273010Y5190D01*
X273076Y5116D01*
X273140Y5038D01*
X273200Y4959D01*
X273257Y4877D01*
X273311Y4793D01*
X273361Y4707D01*
X273408Y4619D01*
X273452Y4529D01*
X273492Y4438D01*
X273528Y4345D01*
X273561Y4251D01*
X273590Y4155D01*
X273615Y4059D01*
X273636Y3962D01*
X273654Y3863D01*
X273667Y3765D01*
X273677Y3665D01*
X273683Y3566D01*
X273685Y3466D01*
X273683Y3325D01*
X273678Y3184D01*
X273668Y3043D01*
X273655Y2902D01*
X273639Y2762D01*
X273618Y2622D01*
X273594Y2483D01*
X273566Y2344D01*
X273535Y2207D01*
X273500Y2070D01*
X273462Y1934D01*
X273420Y1799D01*
X273374Y1666D01*
X273325Y1533D01*
X273272Y1402D01*
X273216Y1273D01*
X273157Y1144D01*
X273094Y1018D01*
X273028Y893D01*
X272959Y770D01*
X272886Y649D01*
X272810Y530D01*
X272731Y412D01*
X272650Y297D01*
X272565Y185D01*
X272477Y74D01*
X272386Y-34D01*
X272293Y-140D01*
X272196Y-243D01*
X272097Y-344D01*
X264795Y-26D02*
X264695Y-24D01*
X264596Y-18D01*
X264496Y-8D01*
X264398Y5D01*
X264299Y23D01*
X264202Y44D01*
X264106Y69D01*
X264010Y98D01*
X263916Y131D01*
X263823Y167D01*
X263732Y207D01*
X263642Y251D01*
X263554Y298D01*
X263468Y348D01*
X263384Y402D01*
X263302Y459D01*
X263223Y519D01*
X263145Y583D01*
X263071Y649D01*
X262999Y718D01*
X262930Y790D01*
X262864Y864D01*
X262800Y942D01*
X262740Y1021D01*
X262683Y1103D01*
X262629Y1187D01*
X262579Y1273D01*
X262532Y1361D01*
X262488Y1451D01*
X262448Y1542D01*
X262412Y1635D01*
X262379Y1729D01*
X262350Y1825D01*
X262325Y1921D01*
X262304Y2018D01*
X262286Y2117D01*
X262273Y2215D01*
X262263Y2315D01*
X262257Y2414D01*
X262255Y2514D01*
X262257Y2647D01*
X262262Y2780D01*
X262272Y2913D01*
X262285Y3046D01*
X262302Y3178D01*
X262322Y3310D01*
X262346Y3441D01*
X262374Y3571D01*
X262405Y3701D01*
X262440Y3829D01*
X262479Y3957D01*
X262521Y4083D01*
X262567Y4208D01*
X262616Y4332D01*
X262668Y4455D01*
X262724Y4576D01*
X262784Y4695D01*
X262846Y4813D01*
X262912Y4928D01*
X262981Y5042D01*
X263054Y5154D01*
X263129Y5264D01*
X263208Y5372D01*
X267018Y1244D02*
X266966Y1160D01*
X266911Y1077D01*
X266852Y997D01*
X266791Y919D01*
X266727Y844D01*
X266659Y771D01*
X266589Y700D01*
X266517Y633D01*
X266442Y568D01*
X266364Y506D01*
X266284Y447D01*
X266202Y391D01*
X266118Y339D01*
X266032Y290D01*
X265944Y244D01*
X265854Y201D01*
X265763Y162D01*
X265670Y127D01*
X265576Y95D01*
X265481Y67D01*
X265385Y42D01*
X265288Y22D01*
X265190Y4D01*
X265092Y-9D01*
X264993Y-18D01*
X264894Y-24D01*
X264795Y-26D01*
X268922Y4737D02*
X268974Y4821D01*
X269029Y4904D01*
X269088Y4984D01*
X269149Y5062D01*
X269213Y5137D01*
X269281Y5210D01*
X269351Y5281D01*
X269423Y5348D01*
X269498Y5413D01*
X269576Y5475D01*
X269656Y5534D01*
X269738Y5590D01*
X269822Y5642D01*
X269908Y5691D01*
X269996Y5737D01*
X270086Y5780D01*
X270177Y5819D01*
X270270Y5854D01*
X270364Y5886D01*
X270459Y5914D01*
X270555Y5939D01*
X270652Y5959D01*
X270750Y5977D01*
X270848Y5990D01*
X270947Y5999D01*
X271046Y6005D01*
X271145Y6007D01*
X268923Y4736D02*
X267018Y1244D01*
X262255Y10324D02*
X273685Y12864D01*
X266065Y15404D01*
X273685Y17944D01*
X262255Y20484D01*
X260985Y29755D02*
X274955Y24675D01*
X264795Y34327D02*
X262255Y37502D01*
X273685Y37502D01*
X273685Y34327D02*
X273685Y40677D01*
X267335Y45757D02*
X267335Y49567D01*
X267337Y49667D01*
X267343Y49766D01*
X267353Y49866D01*
X267366Y49964D01*
X267384Y50063D01*
X267405Y50160D01*
X267430Y50256D01*
X267459Y50352D01*
X267492Y50446D01*
X267528Y50539D01*
X267568Y50630D01*
X267612Y50720D01*
X267659Y50808D01*
X267709Y50894D01*
X267763Y50978D01*
X267820Y51060D01*
X267880Y51139D01*
X267944Y51217D01*
X268010Y51291D01*
X268079Y51363D01*
X268151Y51432D01*
X268225Y51498D01*
X268303Y51562D01*
X268382Y51622D01*
X268464Y51679D01*
X268548Y51733D01*
X268634Y51783D01*
X268722Y51830D01*
X268812Y51874D01*
X268903Y51914D01*
X268996Y51950D01*
X269090Y51983D01*
X269186Y52012D01*
X269282Y52037D01*
X269379Y52058D01*
X269478Y52076D01*
X269576Y52089D01*
X269676Y52099D01*
X269775Y52105D01*
X269875Y52107D01*
X270510Y52107D01*
X270621Y52105D01*
X270731Y52099D01*
X270842Y52090D01*
X270952Y52076D01*
X271061Y52059D01*
X271170Y52038D01*
X271278Y52013D01*
X271385Y51984D01*
X271491Y51952D01*
X271596Y51916D01*
X271699Y51876D01*
X271801Y51833D01*
X271902Y51786D01*
X272001Y51735D01*
X272098Y51682D01*
X272192Y51625D01*
X272285Y51564D01*
X272376Y51501D01*
X272465Y51434D01*
X272551Y51364D01*
X272634Y51291D01*
X272716Y51216D01*
X272794Y51138D01*
X272869Y51056D01*
X272942Y50973D01*
X273012Y50887D01*
X273079Y50798D01*
X273142Y50707D01*
X273203Y50614D01*
X273260Y50519D01*
X273313Y50423D01*
X273364Y50324D01*
X273411Y50223D01*
X273454Y50121D01*
X273494Y50018D01*
X273530Y49913D01*
X273562Y49807D01*
X273591Y49700D01*
X273616Y49592D01*
X273637Y49483D01*
X273654Y49374D01*
X273668Y49264D01*
X273677Y49153D01*
X273683Y49043D01*
X273685Y48932D01*
X273683Y48821D01*
X273677Y48711D01*
X273668Y48600D01*
X273654Y48490D01*
X273637Y48381D01*
X273616Y48272D01*
X273591Y48164D01*
X273562Y48057D01*
X273530Y47951D01*
X273494Y47846D01*
X273454Y47743D01*
X273411Y47641D01*
X273364Y47540D01*
X273313Y47441D01*
X273260Y47344D01*
X273203Y47250D01*
X273142Y47157D01*
X273079Y47066D01*
X273012Y46977D01*
X272942Y46891D01*
X272869Y46808D01*
X272794Y46726D01*
X272716Y46648D01*
X272634Y46573D01*
X272551Y46500D01*
X272465Y46430D01*
X272376Y46363D01*
X272285Y46300D01*
X272192Y46239D01*
X272098Y46182D01*
X272001Y46129D01*
X271902Y46078D01*
X271801Y46031D01*
X271699Y45988D01*
X271596Y45948D01*
X271491Y45912D01*
X271385Y45880D01*
X271278Y45851D01*
X271170Y45826D01*
X271061Y45805D01*
X270952Y45788D01*
X270842Y45774D01*
X270731Y45765D01*
X270621Y45759D01*
X270510Y45757D01*
X267335Y45757D01*
X267195Y45759D01*
X267055Y45765D01*
X266915Y45774D01*
X266776Y45788D01*
X266637Y45805D01*
X266499Y45826D01*
X266361Y45851D01*
X266224Y45880D01*
X266088Y45912D01*
X265953Y45949D01*
X265819Y45989D01*
X265686Y46032D01*
X265554Y46080D01*
X265423Y46130D01*
X265294Y46185D01*
X265167Y46243D01*
X265041Y46304D01*
X264917Y46369D01*
X264795Y46438D01*
X264675Y46509D01*
X264557Y46584D01*
X264440Y46662D01*
X264326Y46744D01*
X264215Y46828D01*
X264106Y46916D01*
X263999Y47006D01*
X263894Y47100D01*
X263793Y47196D01*
X263694Y47295D01*
X263598Y47396D01*
X263504Y47501D01*
X263414Y47608D01*
X263326Y47717D01*
X263242Y47828D01*
X263160Y47942D01*
X263082Y48059D01*
X263007Y48177D01*
X262936Y48297D01*
X262867Y48419D01*
X262802Y48543D01*
X262741Y48669D01*
X262683Y48796D01*
X262628Y48925D01*
X262578Y49056D01*
X262530Y49188D01*
X262487Y49321D01*
X262447Y49455D01*
X262410Y49590D01*
X262378Y49726D01*
X262349Y49863D01*
X262324Y50001D01*
X262303Y50139D01*
X262286Y50278D01*
X262272Y50417D01*
X262263Y50557D01*
X262257Y50697D01*
X262255Y50837D01*
D11*
X314960Y43180D02*
X345440Y43180D01*
X314960Y43180D02*
X314960Y-12700D01*
X345440Y-12700D01*
X345440Y43180D01*
D12*
X305435Y-6350D02*
X305435Y-9525D01*
X305435Y-6350D02*
X305437Y-6239D01*
X305443Y-6129D01*
X305452Y-6018D01*
X305466Y-5908D01*
X305483Y-5799D01*
X305504Y-5690D01*
X305529Y-5582D01*
X305558Y-5475D01*
X305590Y-5369D01*
X305626Y-5264D01*
X305666Y-5161D01*
X305709Y-5059D01*
X305756Y-4958D01*
X305807Y-4859D01*
X305860Y-4763D01*
X305917Y-4668D01*
X305978Y-4575D01*
X306041Y-4484D01*
X306108Y-4395D01*
X306178Y-4309D01*
X306251Y-4226D01*
X306326Y-4144D01*
X306404Y-4066D01*
X306486Y-3991D01*
X306569Y-3918D01*
X306655Y-3848D01*
X306744Y-3781D01*
X306835Y-3718D01*
X306928Y-3657D01*
X307023Y-3600D01*
X307119Y-3547D01*
X307218Y-3496D01*
X307319Y-3449D01*
X307421Y-3406D01*
X307524Y-3366D01*
X307629Y-3330D01*
X307735Y-3298D01*
X307842Y-3269D01*
X307950Y-3244D01*
X308059Y-3223D01*
X308168Y-3206D01*
X308278Y-3192D01*
X308389Y-3183D01*
X308499Y-3177D01*
X308610Y-3175D01*
X308721Y-3177D01*
X308831Y-3183D01*
X308942Y-3192D01*
X309052Y-3206D01*
X309161Y-3223D01*
X309270Y-3244D01*
X309378Y-3269D01*
X309485Y-3298D01*
X309591Y-3330D01*
X309696Y-3366D01*
X309799Y-3406D01*
X309901Y-3449D01*
X310002Y-3496D01*
X310101Y-3547D01*
X310198Y-3600D01*
X310292Y-3657D01*
X310385Y-3718D01*
X310476Y-3781D01*
X310565Y-3848D01*
X310651Y-3918D01*
X310734Y-3991D01*
X310816Y-4066D01*
X310894Y-4144D01*
X310969Y-4226D01*
X311042Y-4309D01*
X311112Y-4395D01*
X311179Y-4484D01*
X311242Y-4575D01*
X311303Y-4668D01*
X311360Y-4763D01*
X311413Y-4859D01*
X311464Y-4958D01*
X311511Y-5059D01*
X311554Y-5161D01*
X311594Y-5264D01*
X311630Y-5369D01*
X311662Y-5475D01*
X311691Y-5582D01*
X311716Y-5690D01*
X311737Y-5799D01*
X311754Y-5908D01*
X311768Y-6018D01*
X311777Y-6129D01*
X311783Y-6239D01*
X311785Y-6350D01*
X311785Y-9525D01*
X300355Y-9525D01*
X300355Y-6350D01*
X300357Y-6250D01*
X300363Y-6151D01*
X300373Y-6051D01*
X300386Y-5953D01*
X300404Y-5854D01*
X300425Y-5757D01*
X300450Y-5661D01*
X300479Y-5565D01*
X300512Y-5471D01*
X300548Y-5378D01*
X300588Y-5287D01*
X300632Y-5197D01*
X300679Y-5109D01*
X300729Y-5023D01*
X300783Y-4939D01*
X300840Y-4857D01*
X300900Y-4778D01*
X300964Y-4700D01*
X301030Y-4626D01*
X301099Y-4554D01*
X301171Y-4485D01*
X301245Y-4419D01*
X301323Y-4355D01*
X301402Y-4295D01*
X301484Y-4238D01*
X301568Y-4184D01*
X301654Y-4134D01*
X301742Y-4087D01*
X301832Y-4043D01*
X301923Y-4003D01*
X302016Y-3967D01*
X302110Y-3934D01*
X302206Y-3905D01*
X302302Y-3880D01*
X302399Y-3859D01*
X302498Y-3841D01*
X302596Y-3828D01*
X302696Y-3818D01*
X302795Y-3812D01*
X302895Y-3810D01*
X302995Y-3812D01*
X303094Y-3818D01*
X303194Y-3828D01*
X303292Y-3841D01*
X303391Y-3859D01*
X303488Y-3880D01*
X303584Y-3905D01*
X303680Y-3934D01*
X303774Y-3967D01*
X303867Y-4003D01*
X303958Y-4043D01*
X304048Y-4087D01*
X304136Y-4134D01*
X304222Y-4184D01*
X304306Y-4238D01*
X304388Y-4295D01*
X304467Y-4355D01*
X304545Y-4419D01*
X304619Y-4485D01*
X304691Y-4554D01*
X304760Y-4626D01*
X304826Y-4700D01*
X304890Y-4778D01*
X304950Y-4857D01*
X305007Y-4939D01*
X305061Y-5023D01*
X305111Y-5109D01*
X305158Y-5197D01*
X305202Y-5287D01*
X305242Y-5378D01*
X305278Y-5471D01*
X305311Y-5565D01*
X305340Y-5661D01*
X305365Y-5757D01*
X305386Y-5854D01*
X305404Y-5953D01*
X305417Y-6051D01*
X305427Y-6151D01*
X305433Y-6250D01*
X305435Y-6350D01*
X305435Y6160D02*
X305435Y8065D01*
X311785Y8065D01*
X311785Y4255D01*
X311783Y4155D01*
X311777Y4056D01*
X311767Y3956D01*
X311754Y3858D01*
X311736Y3759D01*
X311715Y3662D01*
X311690Y3566D01*
X311661Y3470D01*
X311628Y3376D01*
X311592Y3283D01*
X311552Y3192D01*
X311508Y3102D01*
X311461Y3014D01*
X311411Y2928D01*
X311357Y2844D01*
X311300Y2762D01*
X311240Y2683D01*
X311176Y2605D01*
X311110Y2531D01*
X311041Y2459D01*
X310969Y2390D01*
X310895Y2324D01*
X310817Y2260D01*
X310738Y2200D01*
X310656Y2143D01*
X310572Y2089D01*
X310486Y2039D01*
X310398Y1992D01*
X310308Y1948D01*
X310217Y1908D01*
X310124Y1872D01*
X310030Y1839D01*
X309934Y1810D01*
X309838Y1785D01*
X309741Y1764D01*
X309642Y1746D01*
X309544Y1733D01*
X309444Y1723D01*
X309345Y1717D01*
X309245Y1715D01*
X302895Y1715D01*
X302795Y1717D01*
X302696Y1723D01*
X302596Y1733D01*
X302498Y1746D01*
X302399Y1764D01*
X302302Y1785D01*
X302206Y1810D01*
X302110Y1839D01*
X302016Y1872D01*
X301923Y1908D01*
X301832Y1948D01*
X301742Y1992D01*
X301654Y2039D01*
X301568Y2089D01*
X301484Y2143D01*
X301402Y2200D01*
X301323Y2260D01*
X301245Y2324D01*
X301171Y2390D01*
X301099Y2459D01*
X301030Y2531D01*
X300964Y2605D01*
X300900Y2683D01*
X300840Y2762D01*
X300783Y2844D01*
X300729Y2928D01*
X300679Y3014D01*
X300632Y3102D01*
X300588Y3192D01*
X300548Y3283D01*
X300512Y3376D01*
X300479Y3470D01*
X300450Y3566D01*
X300425Y3662D01*
X300404Y3759D01*
X300386Y3858D01*
X300373Y3956D01*
X300363Y4056D01*
X300357Y4155D01*
X300355Y4255D01*
X300355Y8065D01*
X299085Y18098D02*
X313055Y13018D01*
X302895Y22670D02*
X300355Y25845D01*
X311785Y25845D01*
X311785Y22670D02*
X311785Y29020D01*
X308610Y34100D02*
X308499Y34102D01*
X308389Y34108D01*
X308278Y34117D01*
X308168Y34131D01*
X308059Y34148D01*
X307950Y34169D01*
X307842Y34194D01*
X307735Y34223D01*
X307629Y34255D01*
X307524Y34291D01*
X307421Y34331D01*
X307319Y34374D01*
X307218Y34421D01*
X307119Y34472D01*
X307023Y34525D01*
X306928Y34582D01*
X306835Y34643D01*
X306744Y34706D01*
X306655Y34773D01*
X306569Y34843D01*
X306486Y34916D01*
X306404Y34991D01*
X306326Y35069D01*
X306251Y35151D01*
X306178Y35234D01*
X306108Y35320D01*
X306041Y35409D01*
X305978Y35500D01*
X305917Y35593D01*
X305860Y35687D01*
X305807Y35784D01*
X305756Y35883D01*
X305709Y35984D01*
X305666Y36086D01*
X305626Y36189D01*
X305590Y36294D01*
X305558Y36400D01*
X305529Y36507D01*
X305504Y36615D01*
X305483Y36724D01*
X305466Y36833D01*
X305452Y36943D01*
X305443Y37054D01*
X305437Y37164D01*
X305435Y37275D01*
X305437Y37386D01*
X305443Y37496D01*
X305452Y37607D01*
X305466Y37717D01*
X305483Y37826D01*
X305504Y37935D01*
X305529Y38043D01*
X305558Y38150D01*
X305590Y38256D01*
X305626Y38361D01*
X305666Y38464D01*
X305709Y38566D01*
X305756Y38667D01*
X305807Y38766D01*
X305860Y38862D01*
X305917Y38957D01*
X305978Y39050D01*
X306041Y39141D01*
X306108Y39230D01*
X306178Y39316D01*
X306251Y39399D01*
X306326Y39481D01*
X306404Y39559D01*
X306486Y39634D01*
X306569Y39707D01*
X306655Y39777D01*
X306744Y39844D01*
X306835Y39907D01*
X306928Y39968D01*
X307023Y40025D01*
X307119Y40078D01*
X307218Y40129D01*
X307319Y40176D01*
X307421Y40219D01*
X307524Y40259D01*
X307629Y40295D01*
X307735Y40327D01*
X307842Y40356D01*
X307950Y40381D01*
X308059Y40402D01*
X308168Y40419D01*
X308278Y40433D01*
X308389Y40442D01*
X308499Y40448D01*
X308610Y40450D01*
X308721Y40448D01*
X308831Y40442D01*
X308942Y40433D01*
X309052Y40419D01*
X309161Y40402D01*
X309270Y40381D01*
X309378Y40356D01*
X309485Y40327D01*
X309591Y40295D01*
X309696Y40259D01*
X309799Y40219D01*
X309901Y40176D01*
X310002Y40129D01*
X310101Y40078D01*
X310198Y40025D01*
X310292Y39968D01*
X310385Y39907D01*
X310476Y39844D01*
X310565Y39777D01*
X310651Y39707D01*
X310734Y39634D01*
X310816Y39559D01*
X310894Y39481D01*
X310969Y39399D01*
X311042Y39316D01*
X311112Y39230D01*
X311179Y39141D01*
X311242Y39050D01*
X311303Y38957D01*
X311360Y38862D01*
X311413Y38766D01*
X311464Y38667D01*
X311511Y38566D01*
X311554Y38464D01*
X311594Y38361D01*
X311630Y38256D01*
X311662Y38150D01*
X311691Y38043D01*
X311716Y37935D01*
X311737Y37826D01*
X311754Y37717D01*
X311768Y37607D01*
X311777Y37496D01*
X311783Y37386D01*
X311785Y37275D01*
X311783Y37164D01*
X311777Y37054D01*
X311768Y36943D01*
X311754Y36833D01*
X311737Y36724D01*
X311716Y36615D01*
X311691Y36507D01*
X311662Y36400D01*
X311630Y36294D01*
X311594Y36189D01*
X311554Y36086D01*
X311511Y35984D01*
X311464Y35883D01*
X311413Y35784D01*
X311360Y35687D01*
X311303Y35593D01*
X311242Y35500D01*
X311179Y35409D01*
X311112Y35320D01*
X311042Y35234D01*
X310969Y35151D01*
X310894Y35069D01*
X310816Y34991D01*
X310734Y34916D01*
X310651Y34843D01*
X310565Y34773D01*
X310476Y34706D01*
X310385Y34643D01*
X310292Y34582D01*
X310198Y34525D01*
X310101Y34472D01*
X310002Y34421D01*
X309901Y34374D01*
X309799Y34331D01*
X309696Y34291D01*
X309591Y34255D01*
X309485Y34223D01*
X309378Y34194D01*
X309270Y34169D01*
X309161Y34148D01*
X309052Y34131D01*
X308942Y34117D01*
X308831Y34108D01*
X308721Y34102D01*
X308610Y34100D01*
X302895Y34735D02*
X302795Y34737D01*
X302696Y34743D01*
X302596Y34753D01*
X302498Y34766D01*
X302399Y34784D01*
X302302Y34805D01*
X302206Y34830D01*
X302110Y34859D01*
X302016Y34892D01*
X301923Y34928D01*
X301832Y34968D01*
X301742Y35012D01*
X301654Y35059D01*
X301568Y35109D01*
X301484Y35163D01*
X301402Y35220D01*
X301323Y35280D01*
X301245Y35344D01*
X301171Y35410D01*
X301099Y35479D01*
X301030Y35551D01*
X300964Y35625D01*
X300900Y35703D01*
X300840Y35782D01*
X300783Y35864D01*
X300729Y35948D01*
X300679Y36034D01*
X300632Y36122D01*
X300588Y36212D01*
X300548Y36303D01*
X300512Y36396D01*
X300479Y36490D01*
X300450Y36586D01*
X300425Y36682D01*
X300404Y36779D01*
X300386Y36878D01*
X300373Y36976D01*
X300363Y37076D01*
X300357Y37175D01*
X300355Y37275D01*
X300357Y37375D01*
X300363Y37474D01*
X300373Y37574D01*
X300386Y37672D01*
X300404Y37771D01*
X300425Y37868D01*
X300450Y37964D01*
X300479Y38060D01*
X300512Y38154D01*
X300548Y38247D01*
X300588Y38338D01*
X300632Y38428D01*
X300679Y38516D01*
X300729Y38602D01*
X300783Y38686D01*
X300840Y38768D01*
X300900Y38847D01*
X300964Y38925D01*
X301030Y38999D01*
X301099Y39071D01*
X301171Y39140D01*
X301245Y39206D01*
X301323Y39270D01*
X301402Y39330D01*
X301484Y39387D01*
X301568Y39441D01*
X301654Y39491D01*
X301742Y39538D01*
X301832Y39582D01*
X301923Y39622D01*
X302016Y39658D01*
X302110Y39691D01*
X302206Y39720D01*
X302302Y39745D01*
X302399Y39766D01*
X302498Y39784D01*
X302596Y39797D01*
X302696Y39807D01*
X302795Y39813D01*
X302895Y39815D01*
X302995Y39813D01*
X303094Y39807D01*
X303194Y39797D01*
X303292Y39784D01*
X303391Y39766D01*
X303488Y39745D01*
X303584Y39720D01*
X303680Y39691D01*
X303774Y39658D01*
X303867Y39622D01*
X303958Y39582D01*
X304048Y39538D01*
X304136Y39491D01*
X304222Y39441D01*
X304306Y39387D01*
X304388Y39330D01*
X304467Y39270D01*
X304545Y39206D01*
X304619Y39140D01*
X304691Y39071D01*
X304760Y38999D01*
X304826Y38925D01*
X304890Y38847D01*
X304950Y38768D01*
X305007Y38686D01*
X305061Y38602D01*
X305111Y38516D01*
X305158Y38428D01*
X305202Y38338D01*
X305242Y38247D01*
X305278Y38154D01*
X305311Y38060D01*
X305340Y37964D01*
X305365Y37868D01*
X305386Y37771D01*
X305404Y37672D01*
X305417Y37574D01*
X305427Y37474D01*
X305433Y37375D01*
X305435Y37275D01*
X305433Y37175D01*
X305427Y37076D01*
X305417Y36976D01*
X305404Y36878D01*
X305386Y36779D01*
X305365Y36682D01*
X305340Y36586D01*
X305311Y36490D01*
X305278Y36396D01*
X305242Y36303D01*
X305202Y36212D01*
X305158Y36122D01*
X305111Y36034D01*
X305061Y35948D01*
X305007Y35864D01*
X304950Y35782D01*
X304890Y35703D01*
X304826Y35625D01*
X304760Y35551D01*
X304691Y35479D01*
X304619Y35410D01*
X304545Y35344D01*
X304467Y35280D01*
X304388Y35220D01*
X304306Y35163D01*
X304222Y35109D01*
X304136Y35059D01*
X304048Y35012D01*
X303958Y34968D01*
X303867Y34928D01*
X303774Y34892D01*
X303680Y34859D01*
X303584Y34830D01*
X303488Y34805D01*
X303391Y34784D01*
X303292Y34766D01*
X303194Y34753D01*
X303094Y34743D01*
X302995Y34737D01*
X302895Y34735D01*
D11*
X353060Y43180D02*
X383540Y43180D01*
X353060Y43180D02*
X353060Y-12700D01*
X383540Y-12700D01*
X383540Y43180D01*
D12*
X343535Y-6350D02*
X343535Y-9525D01*
X343535Y-6350D02*
X343537Y-6239D01*
X343543Y-6129D01*
X343552Y-6018D01*
X343566Y-5908D01*
X343583Y-5799D01*
X343604Y-5690D01*
X343629Y-5582D01*
X343658Y-5475D01*
X343690Y-5369D01*
X343726Y-5264D01*
X343766Y-5161D01*
X343809Y-5059D01*
X343856Y-4958D01*
X343907Y-4859D01*
X343960Y-4763D01*
X344017Y-4668D01*
X344078Y-4575D01*
X344141Y-4484D01*
X344208Y-4395D01*
X344278Y-4309D01*
X344351Y-4226D01*
X344426Y-4144D01*
X344504Y-4066D01*
X344586Y-3991D01*
X344669Y-3918D01*
X344755Y-3848D01*
X344844Y-3781D01*
X344935Y-3718D01*
X345028Y-3657D01*
X345123Y-3600D01*
X345219Y-3547D01*
X345318Y-3496D01*
X345419Y-3449D01*
X345521Y-3406D01*
X345624Y-3366D01*
X345729Y-3330D01*
X345835Y-3298D01*
X345942Y-3269D01*
X346050Y-3244D01*
X346159Y-3223D01*
X346268Y-3206D01*
X346378Y-3192D01*
X346489Y-3183D01*
X346599Y-3177D01*
X346710Y-3175D01*
X346821Y-3177D01*
X346931Y-3183D01*
X347042Y-3192D01*
X347152Y-3206D01*
X347261Y-3223D01*
X347370Y-3244D01*
X347478Y-3269D01*
X347585Y-3298D01*
X347691Y-3330D01*
X347796Y-3366D01*
X347899Y-3406D01*
X348001Y-3449D01*
X348102Y-3496D01*
X348201Y-3547D01*
X348298Y-3600D01*
X348392Y-3657D01*
X348485Y-3718D01*
X348576Y-3781D01*
X348665Y-3848D01*
X348751Y-3918D01*
X348834Y-3991D01*
X348916Y-4066D01*
X348994Y-4144D01*
X349069Y-4226D01*
X349142Y-4309D01*
X349212Y-4395D01*
X349279Y-4484D01*
X349342Y-4575D01*
X349403Y-4668D01*
X349460Y-4763D01*
X349513Y-4859D01*
X349564Y-4958D01*
X349611Y-5059D01*
X349654Y-5161D01*
X349694Y-5264D01*
X349730Y-5369D01*
X349762Y-5475D01*
X349791Y-5582D01*
X349816Y-5690D01*
X349837Y-5799D01*
X349854Y-5908D01*
X349868Y-6018D01*
X349877Y-6129D01*
X349883Y-6239D01*
X349885Y-6350D01*
X349885Y-9525D01*
X338455Y-9525D01*
X338455Y-6350D01*
X338457Y-6250D01*
X338463Y-6151D01*
X338473Y-6051D01*
X338486Y-5953D01*
X338504Y-5854D01*
X338525Y-5757D01*
X338550Y-5661D01*
X338579Y-5565D01*
X338612Y-5471D01*
X338648Y-5378D01*
X338688Y-5287D01*
X338732Y-5197D01*
X338779Y-5109D01*
X338829Y-5023D01*
X338883Y-4939D01*
X338940Y-4857D01*
X339000Y-4778D01*
X339064Y-4700D01*
X339130Y-4626D01*
X339199Y-4554D01*
X339271Y-4485D01*
X339345Y-4419D01*
X339423Y-4355D01*
X339502Y-4295D01*
X339584Y-4238D01*
X339668Y-4184D01*
X339754Y-4134D01*
X339842Y-4087D01*
X339932Y-4043D01*
X340023Y-4003D01*
X340116Y-3967D01*
X340210Y-3934D01*
X340306Y-3905D01*
X340402Y-3880D01*
X340499Y-3859D01*
X340598Y-3841D01*
X340696Y-3828D01*
X340796Y-3818D01*
X340895Y-3812D01*
X340995Y-3810D01*
X341095Y-3812D01*
X341194Y-3818D01*
X341294Y-3828D01*
X341392Y-3841D01*
X341491Y-3859D01*
X341588Y-3880D01*
X341684Y-3905D01*
X341780Y-3934D01*
X341874Y-3967D01*
X341967Y-4003D01*
X342058Y-4043D01*
X342148Y-4087D01*
X342236Y-4134D01*
X342322Y-4184D01*
X342406Y-4238D01*
X342488Y-4295D01*
X342567Y-4355D01*
X342645Y-4419D01*
X342719Y-4485D01*
X342791Y-4554D01*
X342860Y-4626D01*
X342926Y-4700D01*
X342990Y-4778D01*
X343050Y-4857D01*
X343107Y-4939D01*
X343161Y-5023D01*
X343211Y-5109D01*
X343258Y-5197D01*
X343302Y-5287D01*
X343342Y-5378D01*
X343378Y-5471D01*
X343411Y-5565D01*
X343440Y-5661D01*
X343465Y-5757D01*
X343486Y-5854D01*
X343504Y-5953D01*
X343517Y-6051D01*
X343527Y-6151D01*
X343533Y-6250D01*
X343535Y-6350D01*
X351155Y826D02*
X337185Y5906D01*
X338455Y13970D02*
X338457Y14074D01*
X338463Y14179D01*
X338472Y14283D01*
X338485Y14386D01*
X338503Y14489D01*
X338523Y14591D01*
X338548Y14693D01*
X338576Y14793D01*
X338608Y14893D01*
X338644Y14991D01*
X338683Y15088D01*
X338725Y15183D01*
X338771Y15277D01*
X338821Y15369D01*
X338873Y15459D01*
X338929Y15547D01*
X338989Y15633D01*
X339051Y15717D01*
X339116Y15798D01*
X339184Y15877D01*
X339256Y15954D01*
X339329Y16027D01*
X339406Y16099D01*
X339485Y16167D01*
X339566Y16232D01*
X339650Y16294D01*
X339736Y16354D01*
X339824Y16410D01*
X339914Y16462D01*
X340006Y16512D01*
X340100Y16558D01*
X340195Y16600D01*
X340292Y16639D01*
X340390Y16675D01*
X340490Y16707D01*
X340590Y16735D01*
X340692Y16760D01*
X340794Y16780D01*
X340897Y16798D01*
X341000Y16811D01*
X341104Y16820D01*
X341209Y16826D01*
X341313Y16828D01*
X338455Y13970D02*
X338457Y13852D01*
X338463Y13733D01*
X338472Y13615D01*
X338485Y13498D01*
X338503Y13381D01*
X338523Y13264D01*
X338548Y13148D01*
X338576Y13033D01*
X338609Y12920D01*
X338644Y12807D01*
X338684Y12695D01*
X338726Y12585D01*
X338773Y12476D01*
X338823Y12368D01*
X338876Y12263D01*
X338933Y12159D01*
X338993Y12057D01*
X339056Y11957D01*
X339123Y11859D01*
X339192Y11763D01*
X339265Y11670D01*
X339341Y11579D01*
X339419Y11490D01*
X339501Y11404D01*
X339585Y11321D01*
X339671Y11240D01*
X339761Y11163D01*
X339852Y11088D01*
X339946Y11016D01*
X340043Y10947D01*
X340141Y10882D01*
X340242Y10819D01*
X340345Y10760D01*
X340449Y10704D01*
X340555Y10652D01*
X340663Y10603D01*
X340772Y10558D01*
X340883Y10516D01*
X340995Y10478D01*
X343535Y15875D02*
X343460Y15951D01*
X343381Y16026D01*
X343300Y16097D01*
X343216Y16166D01*
X343130Y16231D01*
X343042Y16293D01*
X342952Y16353D01*
X342860Y16409D01*
X342765Y16462D01*
X342669Y16511D01*
X342571Y16557D01*
X342472Y16600D01*
X342371Y16639D01*
X342269Y16674D01*
X342166Y16706D01*
X342062Y16734D01*
X341957Y16759D01*
X341850Y16780D01*
X341744Y16797D01*
X341637Y16810D01*
X341529Y16819D01*
X341421Y16825D01*
X341313Y16827D01*
X343535Y15875D02*
X349885Y10478D01*
X349885Y16828D01*
X344170Y21908D02*
X343945Y21911D01*
X343720Y21919D01*
X343496Y21932D01*
X343272Y21951D01*
X343048Y21975D01*
X342825Y22004D01*
X342603Y22039D01*
X342382Y22079D01*
X342162Y22125D01*
X341943Y22175D01*
X341725Y22231D01*
X341508Y22292D01*
X341293Y22358D01*
X341080Y22429D01*
X340869Y22506D01*
X340659Y22587D01*
X340451Y22673D01*
X340246Y22764D01*
X340043Y22860D01*
X339955Y22892D01*
X339868Y22928D01*
X339782Y22967D01*
X339698Y23010D01*
X339616Y23056D01*
X339536Y23105D01*
X339458Y23157D01*
X339382Y23213D01*
X339308Y23271D01*
X339237Y23333D01*
X339168Y23397D01*
X339102Y23464D01*
X339039Y23533D01*
X338978Y23605D01*
X338920Y23679D01*
X338866Y23756D01*
X338814Y23834D01*
X338766Y23915D01*
X338721Y23997D01*
X338679Y24082D01*
X338641Y24168D01*
X338606Y24255D01*
X338574Y24343D01*
X338547Y24433D01*
X338522Y24524D01*
X338502Y24616D01*
X338485Y24708D01*
X338472Y24802D01*
X338463Y24895D01*
X338457Y24989D01*
X338455Y25083D01*
X338457Y25177D01*
X338463Y25271D01*
X338472Y25364D01*
X338485Y25458D01*
X338502Y25550D01*
X338522Y25642D01*
X338547Y25733D01*
X338574Y25823D01*
X338606Y25911D01*
X338641Y25998D01*
X338679Y26084D01*
X338721Y26169D01*
X338766Y26251D01*
X338814Y26332D01*
X338866Y26410D01*
X338920Y26487D01*
X338978Y26561D01*
X339039Y26633D01*
X339102Y26702D01*
X339168Y26769D01*
X339237Y26833D01*
X339308Y26895D01*
X339382Y26953D01*
X339458Y27009D01*
X339536Y27061D01*
X339616Y27110D01*
X339698Y27156D01*
X339782Y27199D01*
X339868Y27238D01*
X339955Y27274D01*
X340043Y27306D01*
X340043Y27305D02*
X340246Y27401D01*
X340451Y27492D01*
X340659Y27578D01*
X340869Y27659D01*
X341080Y27736D01*
X341293Y27807D01*
X341508Y27873D01*
X341725Y27934D01*
X341943Y27990D01*
X342162Y28040D01*
X342382Y28086D01*
X342603Y28126D01*
X342825Y28161D01*
X343048Y28190D01*
X343272Y28214D01*
X343496Y28233D01*
X343720Y28246D01*
X343945Y28254D01*
X344170Y28257D01*
X344170Y21908D02*
X344395Y21911D01*
X344620Y21919D01*
X344844Y21932D01*
X345068Y21951D01*
X345292Y21975D01*
X345515Y22004D01*
X345737Y22039D01*
X345958Y22079D01*
X346178Y22125D01*
X346397Y22175D01*
X346615Y22231D01*
X346832Y22292D01*
X347047Y22358D01*
X347260Y22429D01*
X347471Y22506D01*
X347681Y22587D01*
X347889Y22673D01*
X348094Y22764D01*
X348297Y22860D01*
X348298Y22860D02*
X348386Y22892D01*
X348473Y22928D01*
X348559Y22967D01*
X348643Y23010D01*
X348725Y23056D01*
X348805Y23105D01*
X348883Y23157D01*
X348959Y23213D01*
X349033Y23271D01*
X349104Y23333D01*
X349173Y23397D01*
X349239Y23464D01*
X349302Y23533D01*
X349363Y23605D01*
X349421Y23679D01*
X349475Y23756D01*
X349527Y23834D01*
X349575Y23915D01*
X349620Y23997D01*
X349662Y24082D01*
X349700Y24168D01*
X349735Y24255D01*
X349767Y24343D01*
X349794Y24433D01*
X349819Y24524D01*
X349839Y24616D01*
X349856Y24708D01*
X349869Y24802D01*
X349878Y24895D01*
X349884Y24989D01*
X349886Y25083D01*
X348297Y27305D02*
X348094Y27401D01*
X347889Y27492D01*
X347681Y27578D01*
X347471Y27659D01*
X347260Y27736D01*
X347047Y27807D01*
X346832Y27873D01*
X346615Y27934D01*
X346397Y27990D01*
X346178Y28040D01*
X345958Y28086D01*
X345737Y28126D01*
X345515Y28161D01*
X345292Y28190D01*
X345068Y28214D01*
X344844Y28233D01*
X344620Y28246D01*
X344395Y28254D01*
X344170Y28257D01*
X348298Y27306D02*
X348386Y27274D01*
X348473Y27238D01*
X348559Y27199D01*
X348643Y27156D01*
X348725Y27110D01*
X348805Y27061D01*
X348883Y27009D01*
X348959Y26953D01*
X349033Y26895D01*
X349104Y26833D01*
X349173Y26769D01*
X349239Y26702D01*
X349302Y26633D01*
X349363Y26561D01*
X349421Y26487D01*
X349475Y26410D01*
X349527Y26332D01*
X349575Y26251D01*
X349620Y26169D01*
X349662Y26084D01*
X349700Y25998D01*
X349735Y25911D01*
X349767Y25823D01*
X349794Y25733D01*
X349819Y25642D01*
X349839Y25550D01*
X349856Y25458D01*
X349869Y25364D01*
X349878Y25271D01*
X349884Y25177D01*
X349886Y25083D01*
X347345Y22543D02*
X340995Y27623D01*
D13*
X231120Y68600D02*
X231120Y125600D01*
X231120Y68600D02*
X209120Y68600D01*
X187120Y68600D02*
X165120Y68600D01*
X165120Y125600D01*
X174120Y134600D02*
X187120Y134600D01*
X209120Y134600D02*
X222120Y134600D01*
X231120Y125600D01*
X174120Y134600D02*
X165120Y125600D01*
X207620Y131099D02*
X208334Y130859D01*
X209042Y130602D01*
X209743Y130327D01*
X210438Y130035D01*
X211125Y129727D01*
X211804Y129402D01*
X212476Y129060D01*
X213138Y128702D01*
X213792Y128328D01*
X214437Y127939D01*
X215072Y127533D01*
X215697Y127113D01*
X216311Y126677D01*
X216915Y126226D01*
X217507Y125761D01*
X218088Y125282D01*
X218657Y124788D01*
X219214Y124281D01*
X219759Y123760D01*
X220290Y123227D01*
X220809Y122680D01*
X221313Y122121D01*
X221805Y121550D01*
X222282Y120967D01*
X222744Y120373D01*
X223193Y119767D01*
X223626Y119151D01*
X224044Y118525D01*
X224447Y117888D01*
X224834Y117242D01*
X225205Y116587D01*
X225560Y115922D01*
X225899Y115250D01*
X226221Y114569D01*
X226527Y113880D01*
X226816Y113185D01*
X227088Y112482D01*
X227342Y111773D01*
X227580Y111058D01*
X227799Y110338D01*
X228002Y109612D01*
X228186Y108882D01*
X228353Y108147D01*
X228501Y107409D01*
X228632Y106667D01*
X228744Y105922D01*
X228839Y105175D01*
X228915Y104425D01*
X228972Y103674D01*
X229012Y102922D01*
X229033Y102169D01*
X229036Y101416D01*
X229020Y100663D01*
X228986Y99910D01*
X228934Y99159D01*
X228864Y98409D01*
X228775Y97661D01*
X228668Y96915D01*
X228543Y96173D01*
X228400Y95433D01*
X228239Y94697D01*
X228060Y93966D01*
X227863Y93238D01*
X227648Y92516D01*
X227416Y91800D01*
X227167Y91089D01*
X226900Y90384D01*
X226617Y89687D01*
X226316Y88996D01*
X225999Y88313D01*
X225665Y87638D01*
X225315Y86971D01*
X224948Y86313D01*
X224566Y85664D01*
X224168Y85024D01*
X223755Y84394D01*
X223326Y83775D01*
X222882Y83166D01*
X222424Y82568D01*
X221951Y81982D01*
X221464Y81407D01*
X220964Y80845D01*
X220449Y80294D01*
X219922Y79757D01*
X219381Y79232D01*
X218828Y78721D01*
X218263Y78223D01*
X217685Y77739D01*
X217096Y77270D01*
X216496Y76815D01*
X215885Y76374D01*
X215263Y75949D01*
X214631Y75539D01*
X213990Y75145D01*
X213338Y74766D01*
X212678Y74403D01*
X212009Y74057D01*
X211332Y73726D01*
X210648Y73413D01*
X209955Y73116D01*
X209256Y72836D01*
X208550Y72573D01*
X207838Y72328D01*
X207120Y72100D01*
X188620Y72101D02*
X187906Y72341D01*
X187198Y72598D01*
X186497Y72873D01*
X185802Y73165D01*
X185115Y73473D01*
X184436Y73798D01*
X183764Y74140D01*
X183102Y74498D01*
X182448Y74872D01*
X181803Y75261D01*
X181168Y75667D01*
X180543Y76087D01*
X179929Y76523D01*
X179325Y76974D01*
X178733Y77439D01*
X178152Y77918D01*
X177583Y78412D01*
X177026Y78919D01*
X176481Y79440D01*
X175950Y79973D01*
X175431Y80520D01*
X174927Y81079D01*
X174435Y81650D01*
X173958Y82233D01*
X173496Y82827D01*
X173047Y83433D01*
X172614Y84049D01*
X172196Y84675D01*
X171793Y85312D01*
X171406Y85958D01*
X171035Y86613D01*
X170680Y87278D01*
X170341Y87950D01*
X170019Y88631D01*
X169713Y89320D01*
X169424Y90015D01*
X169152Y90718D01*
X168898Y91427D01*
X168660Y92142D01*
X168441Y92862D01*
X168238Y93588D01*
X168054Y94318D01*
X167887Y95053D01*
X167739Y95791D01*
X167608Y96533D01*
X167496Y97278D01*
X167401Y98025D01*
X167325Y98775D01*
X167268Y99526D01*
X167228Y100278D01*
X167207Y101031D01*
X167204Y101784D01*
X167220Y102537D01*
X167254Y103290D01*
X167306Y104041D01*
X167376Y104791D01*
X167465Y105539D01*
X167572Y106285D01*
X167697Y107027D01*
X167840Y107767D01*
X168001Y108503D01*
X168180Y109234D01*
X168377Y109962D01*
X168592Y110684D01*
X168824Y111400D01*
X169073Y112111D01*
X169340Y112816D01*
X169623Y113513D01*
X169924Y114204D01*
X170241Y114887D01*
X170575Y115562D01*
X170925Y116229D01*
X171292Y116887D01*
X171674Y117536D01*
X172072Y118176D01*
X172485Y118806D01*
X172914Y119425D01*
X173358Y120034D01*
X173816Y120632D01*
X174289Y121218D01*
X174776Y121793D01*
X175276Y122355D01*
X175791Y122906D01*
X176318Y123443D01*
X176859Y123968D01*
X177412Y124479D01*
X177977Y124977D01*
X178555Y125461D01*
X179144Y125930D01*
X179744Y126385D01*
X180355Y126826D01*
X180977Y127251D01*
X181609Y127661D01*
X182250Y128055D01*
X182902Y128434D01*
X183562Y128797D01*
X184231Y129143D01*
X184908Y129474D01*
X185592Y129787D01*
X186285Y130084D01*
X186984Y130364D01*
X187690Y130627D01*
X188402Y130872D01*
X189120Y131100D01*
D14*
X161312Y73401D02*
X161312Y70804D01*
X161310Y70705D01*
X161304Y70605D01*
X161295Y70506D01*
X161282Y70408D01*
X161265Y70310D01*
X161244Y70212D01*
X161219Y70116D01*
X161191Y70021D01*
X161159Y69927D01*
X161124Y69834D01*
X161085Y69742D01*
X161042Y69652D01*
X160997Y69564D01*
X160947Y69477D01*
X160895Y69393D01*
X160839Y69310D01*
X160781Y69230D01*
X160719Y69152D01*
X160654Y69077D01*
X160586Y69004D01*
X160516Y68934D01*
X160443Y68866D01*
X160368Y68801D01*
X160290Y68739D01*
X160210Y68681D01*
X160127Y68625D01*
X160043Y68573D01*
X159956Y68523D01*
X159868Y68478D01*
X159778Y68435D01*
X159686Y68396D01*
X159593Y68361D01*
X159499Y68329D01*
X159404Y68301D01*
X159308Y68276D01*
X159210Y68255D01*
X159112Y68238D01*
X159014Y68225D01*
X158915Y68216D01*
X158815Y68210D01*
X158716Y68208D01*
X152224Y68208D01*
X152125Y68210D01*
X152025Y68216D01*
X151926Y68225D01*
X151828Y68238D01*
X151730Y68256D01*
X151632Y68276D01*
X151536Y68301D01*
X151440Y68329D01*
X151346Y68361D01*
X151253Y68396D01*
X151162Y68435D01*
X151072Y68478D01*
X150983Y68523D01*
X150897Y68573D01*
X150812Y68625D01*
X150730Y68681D01*
X150650Y68740D01*
X150572Y68801D01*
X150496Y68866D01*
X150423Y68934D01*
X150353Y69004D01*
X150285Y69077D01*
X150220Y69153D01*
X150159Y69231D01*
X150100Y69311D01*
X150044Y69393D01*
X149992Y69478D01*
X149943Y69564D01*
X149897Y69653D01*
X149854Y69743D01*
X149815Y69834D01*
X149780Y69927D01*
X149748Y70021D01*
X149720Y70117D01*
X149695Y70213D01*
X149675Y70311D01*
X149657Y70409D01*
X149644Y70507D01*
X149635Y70606D01*
X149629Y70705D01*
X149627Y70805D01*
X149628Y70804D02*
X149628Y73401D01*
X152224Y77766D02*
X149628Y81012D01*
X161312Y81012D01*
X161312Y84257D02*
X161312Y77766D01*
X146753Y164579D02*
X144504Y165877D01*
X144505Y165877D02*
X144420Y165928D01*
X144337Y165983D01*
X144256Y166040D01*
X144177Y166101D01*
X144101Y166165D01*
X144027Y166232D01*
X143956Y166301D01*
X143887Y166373D01*
X143821Y166448D01*
X143759Y166525D01*
X143699Y166604D01*
X143642Y166686D01*
X143589Y166770D01*
X143538Y166856D01*
X143491Y166944D01*
X143448Y167033D01*
X143408Y167124D01*
X143371Y167216D01*
X143338Y167310D01*
X143309Y167405D01*
X143283Y167501D01*
X143261Y167598D01*
X143243Y167696D01*
X143228Y167794D01*
X143217Y167893D01*
X143210Y167992D01*
X143207Y168092D01*
X143208Y168191D01*
X143212Y168291D01*
X143221Y168390D01*
X143233Y168489D01*
X143248Y168587D01*
X143268Y168684D01*
X143291Y168781D01*
X143318Y168877D01*
X143349Y168971D01*
X143383Y169065D01*
X143421Y169157D01*
X143462Y169247D01*
X143507Y169336D01*
X143555Y169423D01*
X143554Y169424D02*
X146800Y175045D01*
X146851Y175130D01*
X146906Y175213D01*
X146963Y175294D01*
X147024Y175373D01*
X147088Y175449D01*
X147155Y175523D01*
X147224Y175594D01*
X147296Y175663D01*
X147371Y175729D01*
X147448Y175791D01*
X147527Y175851D01*
X147609Y175908D01*
X147693Y175961D01*
X147779Y176012D01*
X147866Y176059D01*
X147956Y176102D01*
X148047Y176142D01*
X148139Y176179D01*
X148233Y176212D01*
X148328Y176241D01*
X148424Y176267D01*
X148521Y176289D01*
X148619Y176307D01*
X148717Y176322D01*
X148816Y176333D01*
X148915Y176340D01*
X149015Y176343D01*
X149114Y176342D01*
X149214Y176338D01*
X149313Y176329D01*
X149411Y176317D01*
X149510Y176302D01*
X149607Y176282D01*
X149704Y176259D01*
X149800Y176232D01*
X149894Y176201D01*
X149988Y176167D01*
X150080Y176129D01*
X150170Y176088D01*
X150259Y176043D01*
X150346Y175995D01*
X150346Y175996D02*
X152595Y174697D01*
X157206Y172035D02*
X151364Y161916D01*
X150240Y162565D02*
X152489Y161267D01*
X158331Y171386D02*
X156082Y172684D01*
X157328Y187075D02*
X154517Y188697D01*
X157328Y187075D02*
X157425Y187017D01*
X157520Y186955D01*
X157613Y186890D01*
X157703Y186822D01*
X157791Y186751D01*
X157877Y186676D01*
X157960Y186599D01*
X158040Y186519D01*
X158117Y186436D01*
X158192Y186350D01*
X158263Y186262D01*
X158331Y186172D01*
X158396Y186079D01*
X158458Y185984D01*
X158516Y185887D01*
X158571Y185788D01*
X158622Y185687D01*
X158670Y185584D01*
X158715Y185480D01*
X158755Y185374D01*
X158792Y185267D01*
X158825Y185159D01*
X158855Y185049D01*
X158880Y184939D01*
X158902Y184828D01*
X158919Y184716D01*
X158933Y184603D01*
X158943Y184490D01*
X158949Y184377D01*
X158951Y184264D01*
X158949Y184151D01*
X158943Y184038D01*
X158933Y183925D01*
X158919Y183812D01*
X158902Y183700D01*
X158880Y183589D01*
X158855Y183479D01*
X158825Y183369D01*
X158792Y183261D01*
X158755Y183154D01*
X158715Y183048D01*
X158670Y182944D01*
X158622Y182841D01*
X158571Y182740D01*
X158516Y182641D01*
X158458Y182544D01*
X158396Y182449D01*
X158331Y182356D01*
X158263Y182266D01*
X158192Y182178D01*
X158117Y182092D01*
X158040Y182009D01*
X157960Y181929D01*
X157877Y181852D01*
X157791Y181777D01*
X157703Y181706D01*
X157613Y181638D01*
X157520Y181573D01*
X157425Y181511D01*
X157328Y181453D01*
X157229Y181398D01*
X157128Y181347D01*
X157025Y181299D01*
X156921Y181254D01*
X156815Y181214D01*
X156708Y181177D01*
X156600Y181144D01*
X156490Y181114D01*
X156380Y181089D01*
X156269Y181067D01*
X156157Y181050D01*
X156044Y181036D01*
X155931Y181026D01*
X155818Y181020D01*
X155705Y181018D01*
X155592Y181020D01*
X155479Y181026D01*
X155366Y181036D01*
X155253Y181050D01*
X155141Y181067D01*
X155030Y181089D01*
X154920Y181114D01*
X154810Y181144D01*
X154702Y181177D01*
X154595Y181214D01*
X154489Y181254D01*
X154385Y181299D01*
X154282Y181347D01*
X154181Y181398D01*
X154082Y181453D01*
X151271Y183076D01*
X157113Y193194D01*
X159924Y191572D01*
X159925Y191572D02*
X160011Y191520D01*
X160095Y191465D01*
X160177Y191406D01*
X160256Y191344D01*
X160334Y191280D01*
X160408Y191212D01*
X160480Y191141D01*
X160549Y191068D01*
X160615Y190992D01*
X160679Y190914D01*
X160739Y190833D01*
X160796Y190750D01*
X160849Y190665D01*
X160900Y190578D01*
X160947Y190489D01*
X160990Y190398D01*
X161030Y190305D01*
X161066Y190211D01*
X161099Y190116D01*
X161128Y190019D01*
X161153Y189922D01*
X161174Y189823D01*
X161192Y189724D01*
X161205Y189624D01*
X161215Y189524D01*
X161221Y189424D01*
X161223Y189323D01*
X161221Y189222D01*
X161215Y189122D01*
X161205Y189022D01*
X161192Y188922D01*
X161174Y188823D01*
X161153Y188724D01*
X161128Y188627D01*
X161099Y188530D01*
X161066Y188435D01*
X161030Y188341D01*
X160990Y188248D01*
X160947Y188157D01*
X160900Y188068D01*
X160849Y187981D01*
X160796Y187896D01*
X160739Y187813D01*
X160679Y187732D01*
X160615Y187654D01*
X160549Y187578D01*
X160480Y187505D01*
X160408Y187434D01*
X160334Y187366D01*
X160256Y187302D01*
X160177Y187240D01*
X160095Y187181D01*
X160011Y187126D01*
X159925Y187074D01*
X159836Y187025D01*
X159746Y186980D01*
X159655Y186938D01*
X159561Y186900D01*
X159467Y186866D01*
X159371Y186835D01*
X159274Y186808D01*
X159176Y186785D01*
X159077Y186765D01*
X158977Y186750D01*
X158877Y186738D01*
X158777Y186730D01*
X158676Y186726D01*
X158576Y186726D01*
X158475Y186730D01*
X158375Y186738D01*
X158275Y186750D01*
X158175Y186765D01*
X158076Y186785D01*
X157978Y186808D01*
X157881Y186835D01*
X157785Y186866D01*
X157691Y186900D01*
X157597Y186938D01*
X157506Y186980D01*
X157416Y187025D01*
X157328Y187074D01*
X167366Y187275D02*
X161524Y177156D01*
X160400Y177805D02*
X162649Y176507D01*
X168491Y186626D02*
X166242Y187924D01*
X132159Y145745D02*
X128786Y147692D01*
X132159Y145746D02*
X132246Y145698D01*
X132335Y145653D01*
X132425Y145612D01*
X132517Y145574D01*
X132611Y145540D01*
X132705Y145509D01*
X132801Y145482D01*
X132898Y145459D01*
X132995Y145439D01*
X133094Y145424D01*
X133192Y145412D01*
X133291Y145403D01*
X133391Y145399D01*
X133490Y145398D01*
X133590Y145401D01*
X133689Y145408D01*
X133788Y145419D01*
X133886Y145434D01*
X133984Y145452D01*
X134081Y145474D01*
X134177Y145500D01*
X134272Y145529D01*
X134366Y145562D01*
X134458Y145599D01*
X134549Y145639D01*
X134639Y145682D01*
X134726Y145729D01*
X134812Y145780D01*
X134896Y145833D01*
X134978Y145890D01*
X135057Y145950D01*
X135134Y146012D01*
X135209Y146078D01*
X135281Y146147D01*
X135350Y146218D01*
X135417Y146292D01*
X135481Y146368D01*
X135542Y146447D01*
X135599Y146528D01*
X135654Y146611D01*
X135705Y146696D01*
X135706Y146695D02*
X136355Y147820D01*
X136403Y147907D01*
X136448Y147996D01*
X136489Y148086D01*
X136527Y148178D01*
X136561Y148272D01*
X136592Y148366D01*
X136619Y148462D01*
X136642Y148559D01*
X136662Y148656D01*
X136677Y148755D01*
X136689Y148853D01*
X136698Y148952D01*
X136702Y149052D01*
X136703Y149151D01*
X136700Y149251D01*
X136693Y149350D01*
X136682Y149449D01*
X136667Y149547D01*
X136649Y149645D01*
X136627Y149742D01*
X136601Y149838D01*
X136572Y149933D01*
X136539Y150027D01*
X136502Y150119D01*
X136462Y150210D01*
X136419Y150300D01*
X136372Y150387D01*
X136321Y150473D01*
X136268Y150557D01*
X136211Y150639D01*
X136151Y150718D01*
X136089Y150795D01*
X136023Y150870D01*
X135954Y150942D01*
X135883Y151011D01*
X135809Y151078D01*
X135733Y151142D01*
X135654Y151202D01*
X135573Y151260D01*
X135490Y151315D01*
X135405Y151366D01*
X132032Y153314D01*
X134628Y157811D01*
X140250Y154565D01*
X143965Y152420D02*
X141496Y140354D01*
X150711Y148526D01*
X129537Y133361D02*
X127851Y134334D01*
X129537Y133361D02*
X126292Y127739D01*
X122919Y129686D01*
X122919Y129687D02*
X122834Y129738D01*
X122751Y129793D01*
X122670Y129850D01*
X122591Y129911D01*
X122515Y129975D01*
X122441Y130042D01*
X122370Y130111D01*
X122301Y130183D01*
X122235Y130258D01*
X122173Y130335D01*
X122113Y130414D01*
X122056Y130496D01*
X122003Y130580D01*
X121952Y130666D01*
X121905Y130753D01*
X121862Y130843D01*
X121822Y130934D01*
X121785Y131026D01*
X121752Y131120D01*
X121723Y131215D01*
X121697Y131311D01*
X121675Y131408D01*
X121657Y131506D01*
X121642Y131604D01*
X121631Y131703D01*
X121624Y131802D01*
X121621Y131902D01*
X121622Y132001D01*
X121626Y132101D01*
X121635Y132200D01*
X121647Y132298D01*
X121662Y132397D01*
X121682Y132494D01*
X121705Y132591D01*
X121732Y132687D01*
X121763Y132781D01*
X121797Y132875D01*
X121835Y132967D01*
X121876Y133057D01*
X121921Y133146D01*
X121969Y133233D01*
X121968Y133233D02*
X125214Y138855D01*
X125214Y138854D02*
X125265Y138939D01*
X125320Y139022D01*
X125377Y139103D01*
X125438Y139182D01*
X125502Y139258D01*
X125569Y139332D01*
X125638Y139403D01*
X125710Y139472D01*
X125785Y139538D01*
X125862Y139600D01*
X125941Y139660D01*
X126023Y139717D01*
X126107Y139770D01*
X126193Y139821D01*
X126280Y139868D01*
X126370Y139911D01*
X126461Y139951D01*
X126553Y139988D01*
X126647Y140021D01*
X126742Y140050D01*
X126838Y140076D01*
X126935Y140098D01*
X127033Y140116D01*
X127131Y140131D01*
X127230Y140142D01*
X127329Y140149D01*
X127429Y140152D01*
X127528Y140151D01*
X127628Y140147D01*
X127727Y140138D01*
X127825Y140126D01*
X127924Y140111D01*
X128021Y140091D01*
X128118Y140068D01*
X128214Y140041D01*
X128308Y140010D01*
X128402Y139976D01*
X128494Y139938D01*
X128584Y139897D01*
X128673Y139852D01*
X128760Y139804D01*
X128761Y139805D02*
X132134Y137858D01*
X137071Y135007D02*
X131229Y124889D01*
X136850Y121643D02*
X137071Y135007D01*
X142692Y131762D02*
X136850Y121643D01*
X141787Y118793D02*
X147629Y128911D01*
X150440Y127289D01*
X150537Y127231D01*
X150632Y127169D01*
X150725Y127104D01*
X150815Y127036D01*
X150903Y126965D01*
X150989Y126890D01*
X151072Y126813D01*
X151152Y126733D01*
X151229Y126650D01*
X151304Y126564D01*
X151375Y126476D01*
X151443Y126386D01*
X151508Y126293D01*
X151570Y126198D01*
X151628Y126101D01*
X151683Y126002D01*
X151734Y125901D01*
X151782Y125798D01*
X151827Y125694D01*
X151867Y125588D01*
X151904Y125481D01*
X151937Y125373D01*
X151967Y125263D01*
X151992Y125153D01*
X152014Y125042D01*
X152031Y124930D01*
X152045Y124817D01*
X152055Y124704D01*
X152061Y124591D01*
X152063Y124478D01*
X152061Y124365D01*
X152055Y124252D01*
X152045Y124139D01*
X152031Y124026D01*
X152014Y123914D01*
X151992Y123803D01*
X151967Y123693D01*
X151937Y123583D01*
X151904Y123475D01*
X151867Y123368D01*
X151827Y123262D01*
X151782Y123158D01*
X151734Y123055D01*
X151683Y122954D01*
X151628Y122855D01*
X149031Y118358D01*
X149032Y118358D02*
X148974Y118261D01*
X148912Y118166D01*
X148847Y118073D01*
X148779Y117983D01*
X148708Y117895D01*
X148633Y117809D01*
X148556Y117726D01*
X148476Y117646D01*
X148393Y117569D01*
X148307Y117494D01*
X148219Y117423D01*
X148129Y117355D01*
X148036Y117290D01*
X147941Y117228D01*
X147844Y117170D01*
X147745Y117115D01*
X147644Y117064D01*
X147541Y117016D01*
X147437Y116971D01*
X147331Y116931D01*
X147224Y116894D01*
X147116Y116861D01*
X147006Y116831D01*
X146896Y116806D01*
X146785Y116784D01*
X146673Y116767D01*
X146560Y116753D01*
X146447Y116743D01*
X146334Y116737D01*
X146221Y116735D01*
X146108Y116737D01*
X145995Y116743D01*
X145882Y116753D01*
X145769Y116767D01*
X145657Y116784D01*
X145546Y116806D01*
X145436Y116831D01*
X145326Y116861D01*
X145218Y116894D01*
X145111Y116931D01*
X145005Y116971D01*
X144901Y117016D01*
X144798Y117064D01*
X144697Y117115D01*
X144598Y117170D01*
X141787Y118793D01*
X111252Y76708D02*
X99568Y76708D01*
X99568Y79954D01*
X99570Y80067D01*
X99576Y80180D01*
X99586Y80293D01*
X99600Y80406D01*
X99617Y80518D01*
X99639Y80629D01*
X99664Y80739D01*
X99694Y80849D01*
X99727Y80957D01*
X99764Y81064D01*
X99804Y81170D01*
X99849Y81274D01*
X99897Y81377D01*
X99948Y81478D01*
X100003Y81577D01*
X100061Y81674D01*
X100123Y81769D01*
X100188Y81862D01*
X100256Y81952D01*
X100327Y82040D01*
X100402Y82126D01*
X100479Y82209D01*
X100559Y82289D01*
X100642Y82366D01*
X100728Y82441D01*
X100816Y82512D01*
X100906Y82580D01*
X100999Y82645D01*
X101094Y82707D01*
X101191Y82765D01*
X101290Y82820D01*
X101391Y82871D01*
X101494Y82919D01*
X101598Y82964D01*
X101704Y83004D01*
X101811Y83041D01*
X101919Y83074D01*
X102029Y83104D01*
X102139Y83129D01*
X102250Y83151D01*
X102362Y83168D01*
X102475Y83182D01*
X102588Y83192D01*
X102701Y83198D01*
X102814Y83200D01*
X102927Y83198D01*
X103040Y83192D01*
X103153Y83182D01*
X103266Y83168D01*
X103378Y83151D01*
X103489Y83129D01*
X103599Y83104D01*
X103709Y83074D01*
X103817Y83041D01*
X103924Y83004D01*
X104030Y82964D01*
X104134Y82919D01*
X104237Y82871D01*
X104338Y82820D01*
X104437Y82765D01*
X104534Y82707D01*
X104629Y82645D01*
X104722Y82580D01*
X104812Y82512D01*
X104900Y82441D01*
X104986Y82366D01*
X105069Y82289D01*
X105149Y82209D01*
X105226Y82126D01*
X105301Y82040D01*
X105372Y81952D01*
X105440Y81862D01*
X105505Y81769D01*
X105567Y81674D01*
X105625Y81577D01*
X105680Y81478D01*
X105731Y81377D01*
X105779Y81274D01*
X105824Y81170D01*
X105864Y81064D01*
X105901Y80957D01*
X105934Y80849D01*
X105964Y80739D01*
X105989Y80629D01*
X106011Y80518D01*
X106028Y80406D01*
X106042Y80293D01*
X106052Y80180D01*
X106058Y80067D01*
X106060Y79954D01*
X106059Y79954D02*
X106059Y76708D01*
X106059Y80603D02*
X111252Y83199D01*
X102164Y88064D02*
X99568Y91310D01*
X111252Y91310D01*
X111252Y94555D02*
X111252Y88064D01*
M02*
