G04 EAGLE Gerber RS-274X export*
G75*
%MOMM*%
%FSLAX34Y34*%
%LPD*%
%INBottom Silkscreen*%
%IPPOS*%
%AMOC8*
5,1,8,0,0,1.08239X$1,22.5*%
G01*
%ADD10C,0.152400*%
%ADD11C,0.127000*%
%ADD12C,0.203200*%
%ADD13C,0.101600*%


D10*
X0Y43180D02*
X30480Y43180D01*
X30480Y-12700D01*
X0Y-12700D01*
X0Y43180D01*
D11*
X33655Y-9525D02*
X45085Y-5715D01*
X33655Y-1905D01*
X36513Y-2858D02*
X36513Y-8573D01*
X33655Y2946D02*
X45085Y2946D01*
X33655Y2946D02*
X33655Y8026D01*
X32385Y11938D02*
X46355Y17018D01*
X42545Y21590D02*
X45085Y24765D01*
X33655Y24765D01*
X33655Y21590D02*
X33655Y27940D01*
D10*
X38100Y43180D02*
X68580Y43180D01*
X68580Y-12700D01*
X38100Y-12700D01*
X38100Y43180D01*
D11*
X71755Y-9525D02*
X83185Y-5715D01*
X71755Y-1905D01*
X74613Y-2858D02*
X74613Y-8573D01*
X78105Y7366D02*
X78105Y9271D01*
X71755Y9271D01*
X71755Y5461D01*
X71757Y5361D01*
X71763Y5262D01*
X71773Y5162D01*
X71786Y5064D01*
X71804Y4965D01*
X71825Y4868D01*
X71850Y4772D01*
X71879Y4676D01*
X71912Y4582D01*
X71948Y4489D01*
X71988Y4398D01*
X72032Y4308D01*
X72079Y4220D01*
X72129Y4134D01*
X72183Y4050D01*
X72240Y3968D01*
X72300Y3889D01*
X72364Y3811D01*
X72430Y3737D01*
X72499Y3665D01*
X72571Y3596D01*
X72645Y3530D01*
X72723Y3466D01*
X72802Y3406D01*
X72884Y3349D01*
X72968Y3295D01*
X73054Y3245D01*
X73142Y3198D01*
X73232Y3154D01*
X73323Y3114D01*
X73416Y3078D01*
X73510Y3045D01*
X73606Y3016D01*
X73702Y2991D01*
X73799Y2970D01*
X73898Y2952D01*
X73996Y2939D01*
X74096Y2929D01*
X74195Y2923D01*
X74295Y2921D01*
X80645Y2921D01*
X80745Y2923D01*
X80844Y2929D01*
X80944Y2939D01*
X81042Y2952D01*
X81141Y2970D01*
X81238Y2991D01*
X81334Y3016D01*
X81430Y3045D01*
X81524Y3078D01*
X81617Y3114D01*
X81708Y3154D01*
X81798Y3198D01*
X81886Y3245D01*
X81972Y3295D01*
X82056Y3349D01*
X82138Y3406D01*
X82217Y3466D01*
X82295Y3530D01*
X82369Y3596D01*
X82441Y3665D01*
X82510Y3737D01*
X82576Y3811D01*
X82640Y3889D01*
X82700Y3968D01*
X82757Y4050D01*
X82811Y4134D01*
X82861Y4220D01*
X82908Y4308D01*
X82952Y4398D01*
X82992Y4489D01*
X83028Y4582D01*
X83061Y4676D01*
X83090Y4772D01*
X83115Y4868D01*
X83136Y4965D01*
X83154Y5064D01*
X83167Y5162D01*
X83177Y5262D01*
X83183Y5361D01*
X83185Y5461D01*
X83185Y9271D01*
X84455Y19304D02*
X70485Y14224D01*
X71755Y23876D02*
X71755Y27051D01*
X71757Y27162D01*
X71763Y27272D01*
X71772Y27383D01*
X71786Y27493D01*
X71803Y27602D01*
X71824Y27711D01*
X71849Y27819D01*
X71878Y27926D01*
X71910Y28032D01*
X71946Y28137D01*
X71986Y28240D01*
X72029Y28342D01*
X72076Y28443D01*
X72127Y28542D01*
X72180Y28638D01*
X72237Y28733D01*
X72298Y28826D01*
X72361Y28917D01*
X72428Y29006D01*
X72498Y29092D01*
X72571Y29175D01*
X72646Y29257D01*
X72724Y29335D01*
X72806Y29410D01*
X72889Y29483D01*
X72975Y29553D01*
X73064Y29620D01*
X73155Y29683D01*
X73248Y29744D01*
X73343Y29801D01*
X73439Y29854D01*
X73538Y29905D01*
X73639Y29952D01*
X73741Y29995D01*
X73844Y30035D01*
X73949Y30071D01*
X74055Y30103D01*
X74162Y30132D01*
X74270Y30157D01*
X74379Y30178D01*
X74488Y30195D01*
X74598Y30209D01*
X74709Y30218D01*
X74819Y30224D01*
X74930Y30226D01*
X75041Y30224D01*
X75151Y30218D01*
X75262Y30209D01*
X75372Y30195D01*
X75481Y30178D01*
X75590Y30157D01*
X75698Y30132D01*
X75805Y30103D01*
X75911Y30071D01*
X76016Y30035D01*
X76119Y29995D01*
X76221Y29952D01*
X76322Y29905D01*
X76421Y29854D01*
X76518Y29801D01*
X76612Y29744D01*
X76705Y29683D01*
X76796Y29620D01*
X76885Y29553D01*
X76971Y29483D01*
X77054Y29410D01*
X77136Y29335D01*
X77214Y29257D01*
X77289Y29175D01*
X77362Y29092D01*
X77432Y29006D01*
X77499Y28917D01*
X77562Y28826D01*
X77623Y28733D01*
X77680Y28639D01*
X77733Y28542D01*
X77784Y28443D01*
X77831Y28342D01*
X77874Y28240D01*
X77914Y28137D01*
X77950Y28032D01*
X77982Y27926D01*
X78011Y27819D01*
X78036Y27711D01*
X78057Y27602D01*
X78074Y27493D01*
X78088Y27383D01*
X78097Y27272D01*
X78103Y27162D01*
X78105Y27051D01*
X83185Y27686D02*
X83185Y23876D01*
X83185Y27686D02*
X83183Y27786D01*
X83177Y27885D01*
X83167Y27985D01*
X83154Y28083D01*
X83136Y28182D01*
X83115Y28279D01*
X83090Y28375D01*
X83061Y28471D01*
X83028Y28565D01*
X82992Y28658D01*
X82952Y28749D01*
X82908Y28839D01*
X82861Y28927D01*
X82811Y29013D01*
X82757Y29097D01*
X82700Y29179D01*
X82640Y29258D01*
X82576Y29336D01*
X82510Y29410D01*
X82441Y29482D01*
X82369Y29551D01*
X82295Y29617D01*
X82217Y29681D01*
X82138Y29741D01*
X82056Y29798D01*
X81972Y29852D01*
X81886Y29902D01*
X81798Y29949D01*
X81708Y29993D01*
X81617Y30033D01*
X81524Y30069D01*
X81430Y30102D01*
X81334Y30131D01*
X81238Y30156D01*
X81141Y30177D01*
X81042Y30195D01*
X80944Y30208D01*
X80844Y30218D01*
X80745Y30224D01*
X80645Y30226D01*
X80545Y30224D01*
X80446Y30218D01*
X80346Y30208D01*
X80248Y30195D01*
X80149Y30177D01*
X80052Y30156D01*
X79956Y30131D01*
X79860Y30102D01*
X79766Y30069D01*
X79673Y30033D01*
X79582Y29993D01*
X79492Y29949D01*
X79404Y29902D01*
X79318Y29852D01*
X79234Y29798D01*
X79152Y29741D01*
X79073Y29681D01*
X78995Y29617D01*
X78921Y29551D01*
X78849Y29482D01*
X78780Y29410D01*
X78714Y29336D01*
X78650Y29258D01*
X78590Y29179D01*
X78533Y29097D01*
X78479Y29013D01*
X78429Y28927D01*
X78382Y28839D01*
X78338Y28749D01*
X78298Y28658D01*
X78262Y28565D01*
X78229Y28471D01*
X78200Y28375D01*
X78175Y28279D01*
X78154Y28182D01*
X78136Y28083D01*
X78123Y27985D01*
X78113Y27885D01*
X78107Y27786D01*
X78105Y27686D01*
X78105Y25146D01*
D10*
X76200Y43180D02*
X106680Y43180D01*
X106680Y-12700D01*
X76200Y-12700D01*
X76200Y43180D01*
D11*
X109855Y-9525D02*
X121285Y-5715D01*
X109855Y-1905D01*
X112713Y-2858D02*
X112713Y-8573D01*
X109855Y3004D02*
X121285Y3004D01*
X121285Y6179D01*
X121283Y6290D01*
X121277Y6400D01*
X121268Y6511D01*
X121254Y6621D01*
X121237Y6730D01*
X121216Y6839D01*
X121191Y6947D01*
X121162Y7054D01*
X121130Y7160D01*
X121094Y7265D01*
X121054Y7368D01*
X121011Y7470D01*
X120964Y7571D01*
X120913Y7670D01*
X120860Y7767D01*
X120803Y7861D01*
X120742Y7954D01*
X120679Y8045D01*
X120612Y8134D01*
X120542Y8220D01*
X120469Y8303D01*
X120394Y8385D01*
X120316Y8463D01*
X120234Y8538D01*
X120151Y8611D01*
X120065Y8681D01*
X119976Y8748D01*
X119885Y8811D01*
X119792Y8872D01*
X119698Y8929D01*
X119601Y8982D01*
X119502Y9033D01*
X119401Y9080D01*
X119299Y9123D01*
X119196Y9163D01*
X119091Y9199D01*
X118985Y9231D01*
X118878Y9260D01*
X118770Y9285D01*
X118661Y9306D01*
X118552Y9323D01*
X118442Y9337D01*
X118331Y9346D01*
X118221Y9352D01*
X118110Y9354D01*
X117999Y9352D01*
X117889Y9346D01*
X117778Y9337D01*
X117668Y9323D01*
X117559Y9306D01*
X117450Y9285D01*
X117342Y9260D01*
X117235Y9231D01*
X117129Y9199D01*
X117024Y9163D01*
X116921Y9123D01*
X116819Y9080D01*
X116718Y9033D01*
X116619Y8982D01*
X116523Y8929D01*
X116428Y8872D01*
X116335Y8811D01*
X116244Y8748D01*
X116155Y8681D01*
X116069Y8611D01*
X115986Y8538D01*
X115904Y8463D01*
X115826Y8385D01*
X115751Y8303D01*
X115678Y8220D01*
X115608Y8134D01*
X115541Y8045D01*
X115478Y7954D01*
X115417Y7861D01*
X115360Y7766D01*
X115307Y7670D01*
X115256Y7571D01*
X115209Y7470D01*
X115166Y7368D01*
X115126Y7265D01*
X115090Y7160D01*
X115058Y7054D01*
X115029Y6947D01*
X115004Y6839D01*
X114983Y6730D01*
X114966Y6621D01*
X114952Y6511D01*
X114943Y6400D01*
X114937Y6290D01*
X114935Y6179D01*
X114935Y3004D01*
X114935Y6814D02*
X109855Y9354D01*
X108585Y13843D02*
X122555Y18923D01*
X109855Y23495D02*
X109855Y27305D01*
X109857Y27405D01*
X109863Y27504D01*
X109873Y27604D01*
X109886Y27702D01*
X109904Y27801D01*
X109925Y27898D01*
X109950Y27994D01*
X109979Y28090D01*
X110012Y28184D01*
X110048Y28277D01*
X110088Y28368D01*
X110132Y28458D01*
X110179Y28546D01*
X110229Y28632D01*
X110283Y28716D01*
X110340Y28798D01*
X110400Y28877D01*
X110464Y28955D01*
X110530Y29029D01*
X110599Y29101D01*
X110671Y29170D01*
X110745Y29236D01*
X110823Y29300D01*
X110902Y29360D01*
X110984Y29417D01*
X111068Y29471D01*
X111154Y29521D01*
X111242Y29568D01*
X111332Y29612D01*
X111423Y29652D01*
X111516Y29688D01*
X111610Y29721D01*
X111706Y29750D01*
X111802Y29775D01*
X111899Y29796D01*
X111998Y29814D01*
X112096Y29827D01*
X112196Y29837D01*
X112295Y29843D01*
X112395Y29845D01*
X113665Y29845D01*
X113765Y29843D01*
X113864Y29837D01*
X113964Y29827D01*
X114062Y29814D01*
X114161Y29796D01*
X114258Y29775D01*
X114354Y29750D01*
X114450Y29721D01*
X114544Y29688D01*
X114637Y29652D01*
X114728Y29612D01*
X114818Y29568D01*
X114906Y29521D01*
X114992Y29471D01*
X115076Y29417D01*
X115158Y29360D01*
X115237Y29300D01*
X115315Y29236D01*
X115389Y29170D01*
X115461Y29101D01*
X115530Y29029D01*
X115596Y28955D01*
X115660Y28877D01*
X115720Y28798D01*
X115777Y28716D01*
X115831Y28632D01*
X115881Y28546D01*
X115928Y28458D01*
X115972Y28368D01*
X116012Y28277D01*
X116048Y28184D01*
X116081Y28090D01*
X116110Y27994D01*
X116135Y27898D01*
X116156Y27801D01*
X116174Y27702D01*
X116187Y27604D01*
X116197Y27504D01*
X116203Y27405D01*
X116205Y27305D01*
X116205Y23495D01*
X121285Y23495D01*
X121285Y29845D01*
D10*
X114300Y43180D02*
X144780Y43180D01*
X144780Y-12700D01*
X114300Y-12700D01*
X114300Y43180D01*
D11*
X147955Y-4445D02*
X147955Y-6985D01*
X147957Y-7085D01*
X147963Y-7184D01*
X147973Y-7284D01*
X147986Y-7382D01*
X148004Y-7481D01*
X148025Y-7578D01*
X148050Y-7674D01*
X148079Y-7770D01*
X148112Y-7864D01*
X148148Y-7957D01*
X148188Y-8048D01*
X148232Y-8138D01*
X148279Y-8226D01*
X148329Y-8312D01*
X148383Y-8396D01*
X148440Y-8478D01*
X148500Y-8557D01*
X148564Y-8635D01*
X148630Y-8709D01*
X148699Y-8781D01*
X148771Y-8850D01*
X148845Y-8916D01*
X148923Y-8980D01*
X149002Y-9040D01*
X149084Y-9097D01*
X149168Y-9151D01*
X149254Y-9201D01*
X149342Y-9248D01*
X149432Y-9292D01*
X149523Y-9332D01*
X149616Y-9368D01*
X149710Y-9401D01*
X149806Y-9430D01*
X149902Y-9455D01*
X149999Y-9476D01*
X150098Y-9494D01*
X150196Y-9507D01*
X150296Y-9517D01*
X150395Y-9523D01*
X150495Y-9525D01*
X156845Y-9525D01*
X156945Y-9523D01*
X157044Y-9517D01*
X157144Y-9507D01*
X157242Y-9494D01*
X157341Y-9476D01*
X157438Y-9455D01*
X157534Y-9430D01*
X157630Y-9401D01*
X157724Y-9368D01*
X157817Y-9332D01*
X157908Y-9292D01*
X157998Y-9248D01*
X158086Y-9201D01*
X158172Y-9151D01*
X158256Y-9097D01*
X158338Y-9040D01*
X158417Y-8980D01*
X158495Y-8916D01*
X158569Y-8850D01*
X158641Y-8781D01*
X158710Y-8709D01*
X158776Y-8635D01*
X158840Y-8557D01*
X158900Y-8478D01*
X158957Y-8396D01*
X159011Y-8312D01*
X159061Y-8226D01*
X159108Y-8138D01*
X159152Y-8048D01*
X159192Y-7957D01*
X159228Y-7864D01*
X159261Y-7770D01*
X159290Y-7674D01*
X159315Y-7578D01*
X159336Y-7481D01*
X159354Y-7382D01*
X159367Y-7284D01*
X159377Y-7184D01*
X159383Y-7085D01*
X159385Y-6985D01*
X159385Y-4445D01*
X154305Y4863D02*
X154305Y6768D01*
X147955Y6768D01*
X147955Y2958D01*
X147957Y2858D01*
X147963Y2759D01*
X147973Y2659D01*
X147986Y2561D01*
X148004Y2462D01*
X148025Y2365D01*
X148050Y2269D01*
X148079Y2173D01*
X148112Y2079D01*
X148148Y1986D01*
X148188Y1895D01*
X148232Y1805D01*
X148279Y1717D01*
X148329Y1631D01*
X148383Y1547D01*
X148440Y1465D01*
X148500Y1386D01*
X148564Y1308D01*
X148630Y1234D01*
X148699Y1162D01*
X148771Y1093D01*
X148845Y1027D01*
X148923Y963D01*
X149002Y903D01*
X149084Y846D01*
X149168Y792D01*
X149254Y742D01*
X149342Y695D01*
X149432Y651D01*
X149523Y611D01*
X149616Y575D01*
X149710Y542D01*
X149806Y513D01*
X149902Y488D01*
X149999Y467D01*
X150098Y449D01*
X150196Y436D01*
X150296Y426D01*
X150395Y420D01*
X150495Y418D01*
X156845Y418D01*
X156945Y420D01*
X157044Y426D01*
X157144Y436D01*
X157242Y449D01*
X157341Y467D01*
X157438Y488D01*
X157534Y513D01*
X157630Y542D01*
X157724Y575D01*
X157817Y611D01*
X157908Y651D01*
X157998Y695D01*
X158086Y742D01*
X158172Y792D01*
X158256Y846D01*
X158338Y903D01*
X158417Y963D01*
X158495Y1027D01*
X158569Y1093D01*
X158641Y1162D01*
X158710Y1234D01*
X158776Y1308D01*
X158840Y1386D01*
X158900Y1465D01*
X158957Y1547D01*
X159011Y1631D01*
X159061Y1717D01*
X159108Y1805D01*
X159152Y1895D01*
X159192Y1986D01*
X159228Y2079D01*
X159261Y2173D01*
X159290Y2269D01*
X159315Y2365D01*
X159336Y2462D01*
X159354Y2561D01*
X159367Y2659D01*
X159377Y2759D01*
X159383Y2858D01*
X159385Y2958D01*
X159385Y6768D01*
X160655Y16801D02*
X146685Y11721D01*
X158115Y21373D02*
X159385Y21373D01*
X159385Y27723D01*
X147955Y24548D01*
D10*
X152400Y43180D02*
X182880Y43180D01*
X182880Y-12700D01*
X152400Y-12700D01*
X152400Y43180D01*
D11*
X186055Y-4445D02*
X186055Y-6985D01*
X186057Y-7085D01*
X186063Y-7184D01*
X186073Y-7284D01*
X186086Y-7382D01*
X186104Y-7481D01*
X186125Y-7578D01*
X186150Y-7674D01*
X186179Y-7770D01*
X186212Y-7864D01*
X186248Y-7957D01*
X186288Y-8048D01*
X186332Y-8138D01*
X186379Y-8226D01*
X186429Y-8312D01*
X186483Y-8396D01*
X186540Y-8478D01*
X186600Y-8557D01*
X186664Y-8635D01*
X186730Y-8709D01*
X186799Y-8781D01*
X186871Y-8850D01*
X186945Y-8916D01*
X187023Y-8980D01*
X187102Y-9040D01*
X187184Y-9097D01*
X187268Y-9151D01*
X187354Y-9201D01*
X187442Y-9248D01*
X187532Y-9292D01*
X187623Y-9332D01*
X187716Y-9368D01*
X187810Y-9401D01*
X187906Y-9430D01*
X188002Y-9455D01*
X188099Y-9476D01*
X188198Y-9494D01*
X188296Y-9507D01*
X188396Y-9517D01*
X188495Y-9523D01*
X188595Y-9525D01*
X194945Y-9525D01*
X195045Y-9523D01*
X195144Y-9517D01*
X195244Y-9507D01*
X195342Y-9494D01*
X195441Y-9476D01*
X195538Y-9455D01*
X195634Y-9430D01*
X195730Y-9401D01*
X195824Y-9368D01*
X195917Y-9332D01*
X196008Y-9292D01*
X196098Y-9248D01*
X196186Y-9201D01*
X196272Y-9151D01*
X196356Y-9097D01*
X196438Y-9040D01*
X196517Y-8980D01*
X196595Y-8916D01*
X196669Y-8850D01*
X196741Y-8781D01*
X196810Y-8709D01*
X196876Y-8635D01*
X196940Y-8557D01*
X197000Y-8478D01*
X197057Y-8396D01*
X197111Y-8312D01*
X197161Y-8226D01*
X197208Y-8138D01*
X197252Y-8048D01*
X197292Y-7957D01*
X197328Y-7864D01*
X197361Y-7770D01*
X197390Y-7674D01*
X197415Y-7578D01*
X197436Y-7481D01*
X197454Y-7382D01*
X197467Y-7284D01*
X197477Y-7184D01*
X197483Y-7085D01*
X197485Y-6985D01*
X197485Y-4445D01*
X191135Y2577D02*
X191135Y6387D01*
X191135Y2577D02*
X191137Y2477D01*
X191143Y2378D01*
X191153Y2278D01*
X191166Y2180D01*
X191184Y2081D01*
X191205Y1984D01*
X191230Y1888D01*
X191259Y1792D01*
X191292Y1698D01*
X191328Y1605D01*
X191368Y1514D01*
X191412Y1424D01*
X191459Y1336D01*
X191509Y1250D01*
X191563Y1166D01*
X191620Y1084D01*
X191680Y1005D01*
X191744Y927D01*
X191810Y853D01*
X191879Y781D01*
X191951Y712D01*
X192025Y646D01*
X192103Y582D01*
X192182Y522D01*
X192264Y465D01*
X192348Y411D01*
X192434Y361D01*
X192522Y314D01*
X192612Y270D01*
X192703Y230D01*
X192796Y194D01*
X192890Y161D01*
X192986Y132D01*
X193082Y107D01*
X193179Y86D01*
X193278Y68D01*
X193376Y55D01*
X193476Y45D01*
X193575Y39D01*
X193675Y37D01*
X194310Y37D01*
X194421Y39D01*
X194531Y45D01*
X194642Y54D01*
X194752Y68D01*
X194861Y85D01*
X194970Y106D01*
X195078Y131D01*
X195185Y160D01*
X195291Y192D01*
X195396Y228D01*
X195499Y268D01*
X195601Y311D01*
X195702Y358D01*
X195801Y409D01*
X195897Y462D01*
X195992Y519D01*
X196085Y580D01*
X196176Y643D01*
X196265Y710D01*
X196351Y780D01*
X196434Y853D01*
X196516Y928D01*
X196594Y1006D01*
X196669Y1088D01*
X196742Y1171D01*
X196812Y1257D01*
X196879Y1346D01*
X196942Y1437D01*
X197003Y1530D01*
X197060Y1624D01*
X197113Y1721D01*
X197164Y1820D01*
X197211Y1921D01*
X197254Y2023D01*
X197294Y2126D01*
X197330Y2231D01*
X197362Y2337D01*
X197391Y2444D01*
X197416Y2552D01*
X197437Y2661D01*
X197454Y2770D01*
X197468Y2880D01*
X197477Y2991D01*
X197483Y3101D01*
X197485Y3212D01*
X197483Y3323D01*
X197477Y3433D01*
X197468Y3544D01*
X197454Y3654D01*
X197437Y3763D01*
X197416Y3872D01*
X197391Y3980D01*
X197362Y4087D01*
X197330Y4193D01*
X197294Y4298D01*
X197254Y4401D01*
X197211Y4503D01*
X197164Y4604D01*
X197113Y4703D01*
X197060Y4799D01*
X197003Y4894D01*
X196942Y4987D01*
X196879Y5078D01*
X196812Y5167D01*
X196742Y5253D01*
X196669Y5336D01*
X196594Y5418D01*
X196516Y5496D01*
X196434Y5571D01*
X196351Y5644D01*
X196265Y5714D01*
X196176Y5781D01*
X196085Y5844D01*
X195992Y5905D01*
X195898Y5962D01*
X195801Y6015D01*
X195702Y6066D01*
X195601Y6113D01*
X195499Y6156D01*
X195396Y6196D01*
X195291Y6232D01*
X195185Y6264D01*
X195078Y6293D01*
X194970Y6318D01*
X194861Y6339D01*
X194752Y6356D01*
X194642Y6370D01*
X194531Y6379D01*
X194421Y6385D01*
X194310Y6387D01*
X191135Y6387D01*
X190995Y6385D01*
X190855Y6379D01*
X190715Y6370D01*
X190576Y6356D01*
X190437Y6339D01*
X190299Y6318D01*
X190161Y6293D01*
X190024Y6264D01*
X189888Y6232D01*
X189753Y6195D01*
X189619Y6155D01*
X189486Y6112D01*
X189354Y6064D01*
X189223Y6014D01*
X189094Y5959D01*
X188967Y5901D01*
X188841Y5840D01*
X188717Y5775D01*
X188595Y5706D01*
X188475Y5635D01*
X188357Y5560D01*
X188240Y5482D01*
X188126Y5400D01*
X188015Y5316D01*
X187906Y5228D01*
X187799Y5138D01*
X187694Y5044D01*
X187593Y4948D01*
X187494Y4849D01*
X187398Y4748D01*
X187304Y4643D01*
X187214Y4536D01*
X187126Y4427D01*
X187042Y4316D01*
X186960Y4202D01*
X186882Y4085D01*
X186807Y3967D01*
X186736Y3847D01*
X186667Y3725D01*
X186602Y3601D01*
X186541Y3475D01*
X186483Y3348D01*
X186428Y3219D01*
X186378Y3088D01*
X186330Y2956D01*
X186287Y2823D01*
X186247Y2689D01*
X186210Y2554D01*
X186178Y2418D01*
X186149Y2281D01*
X186124Y2143D01*
X186103Y2005D01*
X186086Y1866D01*
X186072Y1727D01*
X186063Y1587D01*
X186057Y1447D01*
X186055Y1307D01*
D10*
X190500Y43180D02*
X220980Y43180D01*
X220980Y-12700D01*
X190500Y-12700D01*
X190500Y43180D01*
D11*
X235585Y-6350D02*
X233045Y-9525D01*
X235585Y-6350D02*
X224155Y-6350D01*
X224155Y-9525D02*
X224155Y-3175D01*
X233045Y1905D02*
X235585Y5080D01*
X224155Y5080D01*
X224155Y1905D02*
X224155Y8255D01*
D10*
X228600Y43180D02*
X259080Y43180D01*
X259080Y-12700D01*
X228600Y-12700D01*
X228600Y43180D01*
D11*
X262255Y-9525D02*
X273685Y-9525D01*
X273685Y-6350D01*
X273683Y-6239D01*
X273677Y-6129D01*
X273668Y-6018D01*
X273654Y-5908D01*
X273637Y-5799D01*
X273616Y-5690D01*
X273591Y-5582D01*
X273562Y-5475D01*
X273530Y-5369D01*
X273494Y-5264D01*
X273454Y-5161D01*
X273411Y-5059D01*
X273364Y-4958D01*
X273313Y-4859D01*
X273260Y-4763D01*
X273203Y-4668D01*
X273142Y-4575D01*
X273079Y-4484D01*
X273012Y-4395D01*
X272942Y-4309D01*
X272869Y-4226D01*
X272794Y-4144D01*
X272716Y-4066D01*
X272634Y-3991D01*
X272551Y-3918D01*
X272465Y-3848D01*
X272376Y-3781D01*
X272285Y-3718D01*
X272192Y-3657D01*
X272098Y-3600D01*
X272001Y-3547D01*
X271902Y-3496D01*
X271801Y-3449D01*
X271699Y-3406D01*
X271596Y-3366D01*
X271491Y-3330D01*
X271385Y-3298D01*
X271278Y-3269D01*
X271170Y-3244D01*
X271061Y-3223D01*
X270952Y-3206D01*
X270842Y-3192D01*
X270731Y-3183D01*
X270621Y-3177D01*
X270510Y-3175D01*
X270399Y-3177D01*
X270289Y-3183D01*
X270178Y-3192D01*
X270068Y-3206D01*
X269959Y-3223D01*
X269850Y-3244D01*
X269742Y-3269D01*
X269635Y-3298D01*
X269529Y-3330D01*
X269424Y-3366D01*
X269321Y-3406D01*
X269219Y-3449D01*
X269118Y-3496D01*
X269019Y-3547D01*
X268923Y-3600D01*
X268828Y-3657D01*
X268735Y-3718D01*
X268644Y-3781D01*
X268555Y-3848D01*
X268469Y-3918D01*
X268386Y-3991D01*
X268304Y-4066D01*
X268226Y-4144D01*
X268151Y-4226D01*
X268078Y-4309D01*
X268008Y-4395D01*
X267941Y-4484D01*
X267878Y-4575D01*
X267817Y-4668D01*
X267760Y-4763D01*
X267707Y-4859D01*
X267656Y-4958D01*
X267609Y-5059D01*
X267566Y-5161D01*
X267526Y-5264D01*
X267490Y-5369D01*
X267458Y-5475D01*
X267429Y-5582D01*
X267404Y-5690D01*
X267383Y-5799D01*
X267366Y-5908D01*
X267352Y-6018D01*
X267343Y-6129D01*
X267337Y-6239D01*
X267335Y-6350D01*
X267335Y-9525D01*
X267335Y-5715D02*
X262255Y-3175D01*
X268605Y6648D02*
X268605Y8553D01*
X262255Y8553D01*
X262255Y4743D01*
X262257Y4643D01*
X262263Y4544D01*
X262273Y4444D01*
X262286Y4346D01*
X262304Y4247D01*
X262325Y4150D01*
X262350Y4054D01*
X262379Y3958D01*
X262412Y3864D01*
X262448Y3771D01*
X262488Y3680D01*
X262532Y3590D01*
X262579Y3502D01*
X262629Y3416D01*
X262683Y3332D01*
X262740Y3250D01*
X262800Y3171D01*
X262864Y3093D01*
X262930Y3019D01*
X262999Y2947D01*
X263071Y2878D01*
X263145Y2812D01*
X263223Y2748D01*
X263302Y2688D01*
X263384Y2631D01*
X263468Y2577D01*
X263554Y2527D01*
X263642Y2480D01*
X263732Y2436D01*
X263823Y2396D01*
X263916Y2360D01*
X264010Y2327D01*
X264106Y2298D01*
X264202Y2273D01*
X264299Y2252D01*
X264398Y2234D01*
X264496Y2221D01*
X264596Y2211D01*
X264695Y2205D01*
X264795Y2203D01*
X271145Y2203D01*
X271245Y2205D01*
X271344Y2211D01*
X271444Y2221D01*
X271542Y2234D01*
X271641Y2252D01*
X271738Y2273D01*
X271834Y2298D01*
X271930Y2327D01*
X272024Y2360D01*
X272117Y2396D01*
X272208Y2436D01*
X272298Y2480D01*
X272386Y2527D01*
X272472Y2577D01*
X272556Y2631D01*
X272638Y2688D01*
X272717Y2748D01*
X272795Y2812D01*
X272869Y2878D01*
X272941Y2947D01*
X273010Y3019D01*
X273076Y3093D01*
X273140Y3171D01*
X273200Y3250D01*
X273257Y3332D01*
X273311Y3416D01*
X273361Y3502D01*
X273408Y3590D01*
X273452Y3680D01*
X273492Y3771D01*
X273528Y3864D01*
X273561Y3958D01*
X273590Y4054D01*
X273615Y4150D01*
X273636Y4247D01*
X273654Y4346D01*
X273667Y4444D01*
X273677Y4544D01*
X273683Y4643D01*
X273685Y4743D01*
X273685Y8553D01*
X274955Y18586D02*
X260985Y13506D01*
X271145Y23158D02*
X273685Y26333D01*
X262255Y26333D01*
X262255Y23158D02*
X262255Y29508D01*
X262255Y34588D02*
X262255Y37763D01*
X262257Y37874D01*
X262263Y37984D01*
X262272Y38095D01*
X262286Y38205D01*
X262303Y38314D01*
X262324Y38423D01*
X262349Y38531D01*
X262378Y38638D01*
X262410Y38744D01*
X262446Y38849D01*
X262486Y38952D01*
X262529Y39054D01*
X262576Y39155D01*
X262627Y39254D01*
X262680Y39350D01*
X262737Y39445D01*
X262798Y39538D01*
X262861Y39629D01*
X262928Y39718D01*
X262998Y39804D01*
X263071Y39887D01*
X263146Y39969D01*
X263224Y40047D01*
X263306Y40122D01*
X263389Y40195D01*
X263475Y40265D01*
X263564Y40332D01*
X263655Y40395D01*
X263748Y40456D01*
X263843Y40513D01*
X263939Y40566D01*
X264038Y40617D01*
X264139Y40664D01*
X264241Y40707D01*
X264344Y40747D01*
X264449Y40783D01*
X264555Y40815D01*
X264662Y40844D01*
X264770Y40869D01*
X264879Y40890D01*
X264988Y40907D01*
X265098Y40921D01*
X265209Y40930D01*
X265319Y40936D01*
X265430Y40938D01*
X265541Y40936D01*
X265651Y40930D01*
X265762Y40921D01*
X265872Y40907D01*
X265981Y40890D01*
X266090Y40869D01*
X266198Y40844D01*
X266305Y40815D01*
X266411Y40783D01*
X266516Y40747D01*
X266619Y40707D01*
X266721Y40664D01*
X266822Y40617D01*
X266921Y40566D01*
X267018Y40513D01*
X267112Y40456D01*
X267205Y40395D01*
X267296Y40332D01*
X267385Y40265D01*
X267471Y40195D01*
X267554Y40122D01*
X267636Y40047D01*
X267714Y39969D01*
X267789Y39887D01*
X267862Y39804D01*
X267932Y39718D01*
X267999Y39629D01*
X268062Y39538D01*
X268123Y39445D01*
X268180Y39351D01*
X268233Y39254D01*
X268284Y39155D01*
X268331Y39054D01*
X268374Y38952D01*
X268414Y38849D01*
X268450Y38744D01*
X268482Y38638D01*
X268511Y38531D01*
X268536Y38423D01*
X268557Y38314D01*
X268574Y38205D01*
X268588Y38095D01*
X268597Y37984D01*
X268603Y37874D01*
X268605Y37763D01*
X273685Y38398D02*
X273685Y34588D01*
X273685Y38398D02*
X273683Y38498D01*
X273677Y38597D01*
X273667Y38697D01*
X273654Y38795D01*
X273636Y38894D01*
X273615Y38991D01*
X273590Y39087D01*
X273561Y39183D01*
X273528Y39277D01*
X273492Y39370D01*
X273452Y39461D01*
X273408Y39551D01*
X273361Y39639D01*
X273311Y39725D01*
X273257Y39809D01*
X273200Y39891D01*
X273140Y39970D01*
X273076Y40048D01*
X273010Y40122D01*
X272941Y40194D01*
X272869Y40263D01*
X272795Y40329D01*
X272717Y40393D01*
X272638Y40453D01*
X272556Y40510D01*
X272472Y40564D01*
X272386Y40614D01*
X272298Y40661D01*
X272208Y40705D01*
X272117Y40745D01*
X272024Y40781D01*
X271930Y40814D01*
X271834Y40843D01*
X271738Y40868D01*
X271641Y40889D01*
X271542Y40907D01*
X271444Y40920D01*
X271344Y40930D01*
X271245Y40936D01*
X271145Y40938D01*
X271045Y40936D01*
X270946Y40930D01*
X270846Y40920D01*
X270748Y40907D01*
X270649Y40889D01*
X270552Y40868D01*
X270456Y40843D01*
X270360Y40814D01*
X270266Y40781D01*
X270173Y40745D01*
X270082Y40705D01*
X269992Y40661D01*
X269904Y40614D01*
X269818Y40564D01*
X269734Y40510D01*
X269652Y40453D01*
X269573Y40393D01*
X269495Y40329D01*
X269421Y40263D01*
X269349Y40194D01*
X269280Y40122D01*
X269214Y40048D01*
X269150Y39970D01*
X269090Y39891D01*
X269033Y39809D01*
X268979Y39725D01*
X268929Y39639D01*
X268882Y39551D01*
X268838Y39461D01*
X268798Y39370D01*
X268762Y39277D01*
X268729Y39183D01*
X268700Y39087D01*
X268675Y38991D01*
X268654Y38894D01*
X268636Y38795D01*
X268623Y38697D01*
X268613Y38597D01*
X268607Y38498D01*
X268605Y38398D01*
X268605Y35858D01*
D10*
X266700Y43180D02*
X297180Y43180D01*
X297180Y-12700D01*
X266700Y-12700D01*
X266700Y43180D01*
D11*
X300355Y-9525D02*
X311785Y-9525D01*
X311785Y-6350D01*
X311783Y-6239D01*
X311777Y-6129D01*
X311768Y-6018D01*
X311754Y-5908D01*
X311737Y-5799D01*
X311716Y-5690D01*
X311691Y-5582D01*
X311662Y-5475D01*
X311630Y-5369D01*
X311594Y-5264D01*
X311554Y-5161D01*
X311511Y-5059D01*
X311464Y-4958D01*
X311413Y-4859D01*
X311360Y-4763D01*
X311303Y-4668D01*
X311242Y-4575D01*
X311179Y-4484D01*
X311112Y-4395D01*
X311042Y-4309D01*
X310969Y-4226D01*
X310894Y-4144D01*
X310816Y-4066D01*
X310734Y-3991D01*
X310651Y-3918D01*
X310565Y-3848D01*
X310476Y-3781D01*
X310385Y-3718D01*
X310292Y-3657D01*
X310198Y-3600D01*
X310101Y-3547D01*
X310002Y-3496D01*
X309901Y-3449D01*
X309799Y-3406D01*
X309696Y-3366D01*
X309591Y-3330D01*
X309485Y-3298D01*
X309378Y-3269D01*
X309270Y-3244D01*
X309161Y-3223D01*
X309052Y-3206D01*
X308942Y-3192D01*
X308831Y-3183D01*
X308721Y-3177D01*
X308610Y-3175D01*
X308499Y-3177D01*
X308389Y-3183D01*
X308278Y-3192D01*
X308168Y-3206D01*
X308059Y-3223D01*
X307950Y-3244D01*
X307842Y-3269D01*
X307735Y-3298D01*
X307629Y-3330D01*
X307524Y-3366D01*
X307421Y-3406D01*
X307319Y-3449D01*
X307218Y-3496D01*
X307119Y-3547D01*
X307023Y-3600D01*
X306928Y-3657D01*
X306835Y-3718D01*
X306744Y-3781D01*
X306655Y-3848D01*
X306569Y-3918D01*
X306486Y-3991D01*
X306404Y-4066D01*
X306326Y-4144D01*
X306251Y-4226D01*
X306178Y-4309D01*
X306108Y-4395D01*
X306041Y-4484D01*
X305978Y-4575D01*
X305917Y-4668D01*
X305860Y-4763D01*
X305807Y-4859D01*
X305756Y-4958D01*
X305709Y-5059D01*
X305666Y-5161D01*
X305626Y-5264D01*
X305590Y-5369D01*
X305558Y-5475D01*
X305529Y-5582D01*
X305504Y-5690D01*
X305483Y-5799D01*
X305466Y-5908D01*
X305452Y-6018D01*
X305443Y-6129D01*
X305437Y-6239D01*
X305435Y-6350D01*
X305435Y-9525D01*
X305435Y-5715D02*
X300355Y-3175D01*
X299085Y1314D02*
X313055Y6394D01*
X309245Y10966D02*
X311785Y14141D01*
X300355Y14141D01*
X300355Y10966D02*
X300355Y17316D01*
X300355Y22396D02*
X300355Y26206D01*
X300357Y26306D01*
X300363Y26405D01*
X300373Y26505D01*
X300386Y26603D01*
X300404Y26702D01*
X300425Y26799D01*
X300450Y26895D01*
X300479Y26991D01*
X300512Y27085D01*
X300548Y27178D01*
X300588Y27269D01*
X300632Y27359D01*
X300679Y27447D01*
X300729Y27533D01*
X300783Y27617D01*
X300840Y27699D01*
X300900Y27778D01*
X300964Y27856D01*
X301030Y27930D01*
X301099Y28002D01*
X301171Y28071D01*
X301245Y28137D01*
X301323Y28201D01*
X301402Y28261D01*
X301484Y28318D01*
X301568Y28372D01*
X301654Y28422D01*
X301742Y28469D01*
X301832Y28513D01*
X301923Y28553D01*
X302016Y28589D01*
X302110Y28622D01*
X302206Y28651D01*
X302302Y28676D01*
X302399Y28697D01*
X302498Y28715D01*
X302596Y28728D01*
X302696Y28738D01*
X302795Y28744D01*
X302895Y28746D01*
X304165Y28746D01*
X304265Y28744D01*
X304364Y28738D01*
X304464Y28728D01*
X304562Y28715D01*
X304661Y28697D01*
X304758Y28676D01*
X304854Y28651D01*
X304950Y28622D01*
X305044Y28589D01*
X305137Y28553D01*
X305228Y28513D01*
X305318Y28469D01*
X305406Y28422D01*
X305492Y28372D01*
X305576Y28318D01*
X305658Y28261D01*
X305737Y28201D01*
X305815Y28137D01*
X305889Y28071D01*
X305961Y28002D01*
X306030Y27930D01*
X306096Y27856D01*
X306160Y27778D01*
X306220Y27699D01*
X306277Y27617D01*
X306331Y27533D01*
X306381Y27447D01*
X306428Y27359D01*
X306472Y27269D01*
X306512Y27178D01*
X306548Y27085D01*
X306581Y26991D01*
X306610Y26895D01*
X306635Y26799D01*
X306656Y26702D01*
X306674Y26603D01*
X306687Y26505D01*
X306697Y26405D01*
X306703Y26306D01*
X306705Y26206D01*
X306705Y22396D01*
X311785Y22396D01*
X311785Y28746D01*
D10*
X304800Y43180D02*
X335280Y43180D01*
X335280Y-12700D01*
X304800Y-12700D01*
X304800Y43180D01*
D11*
X344805Y-3175D02*
X344805Y-5080D01*
X344805Y-3175D02*
X338455Y-3175D01*
X338455Y-6985D01*
X338457Y-7085D01*
X338463Y-7184D01*
X338473Y-7284D01*
X338486Y-7382D01*
X338504Y-7481D01*
X338525Y-7578D01*
X338550Y-7674D01*
X338579Y-7770D01*
X338612Y-7864D01*
X338648Y-7957D01*
X338688Y-8048D01*
X338732Y-8138D01*
X338779Y-8226D01*
X338829Y-8312D01*
X338883Y-8396D01*
X338940Y-8478D01*
X339000Y-8557D01*
X339064Y-8635D01*
X339130Y-8709D01*
X339199Y-8781D01*
X339271Y-8850D01*
X339345Y-8916D01*
X339423Y-8980D01*
X339502Y-9040D01*
X339584Y-9097D01*
X339668Y-9151D01*
X339754Y-9201D01*
X339842Y-9248D01*
X339932Y-9292D01*
X340023Y-9332D01*
X340116Y-9368D01*
X340210Y-9401D01*
X340306Y-9430D01*
X340402Y-9455D01*
X340499Y-9476D01*
X340598Y-9494D01*
X340696Y-9507D01*
X340796Y-9517D01*
X340895Y-9523D01*
X340995Y-9525D01*
X347345Y-9525D01*
X347445Y-9523D01*
X347544Y-9517D01*
X347644Y-9507D01*
X347742Y-9494D01*
X347841Y-9476D01*
X347938Y-9455D01*
X348034Y-9430D01*
X348130Y-9401D01*
X348224Y-9368D01*
X348317Y-9332D01*
X348408Y-9292D01*
X348498Y-9248D01*
X348586Y-9201D01*
X348672Y-9151D01*
X348756Y-9097D01*
X348838Y-9040D01*
X348917Y-8980D01*
X348995Y-8916D01*
X349069Y-8850D01*
X349141Y-8781D01*
X349210Y-8709D01*
X349276Y-8635D01*
X349340Y-8557D01*
X349400Y-8478D01*
X349457Y-8396D01*
X349511Y-8312D01*
X349561Y-8226D01*
X349608Y-8138D01*
X349652Y-8048D01*
X349692Y-7957D01*
X349728Y-7864D01*
X349761Y-7770D01*
X349790Y-7674D01*
X349815Y-7578D01*
X349836Y-7481D01*
X349854Y-7382D01*
X349867Y-7284D01*
X349877Y-7184D01*
X349883Y-7085D01*
X349885Y-6985D01*
X349885Y-3175D01*
X344805Y7112D02*
X344805Y9017D01*
X338455Y9017D01*
X338455Y5207D01*
X338457Y5107D01*
X338463Y5008D01*
X338473Y4908D01*
X338486Y4810D01*
X338504Y4711D01*
X338525Y4614D01*
X338550Y4518D01*
X338579Y4422D01*
X338612Y4328D01*
X338648Y4235D01*
X338688Y4144D01*
X338732Y4054D01*
X338779Y3966D01*
X338829Y3880D01*
X338883Y3796D01*
X338940Y3714D01*
X339000Y3635D01*
X339064Y3557D01*
X339130Y3483D01*
X339199Y3411D01*
X339271Y3342D01*
X339345Y3276D01*
X339423Y3212D01*
X339502Y3152D01*
X339584Y3095D01*
X339668Y3041D01*
X339754Y2991D01*
X339842Y2944D01*
X339932Y2900D01*
X340023Y2860D01*
X340116Y2824D01*
X340210Y2791D01*
X340306Y2762D01*
X340402Y2737D01*
X340499Y2716D01*
X340598Y2698D01*
X340696Y2685D01*
X340796Y2675D01*
X340895Y2669D01*
X340995Y2667D01*
X347345Y2667D01*
X347445Y2669D01*
X347544Y2675D01*
X347644Y2685D01*
X347742Y2698D01*
X347841Y2716D01*
X347938Y2737D01*
X348034Y2762D01*
X348130Y2791D01*
X348224Y2824D01*
X348317Y2860D01*
X348408Y2900D01*
X348498Y2944D01*
X348586Y2991D01*
X348672Y3041D01*
X348756Y3095D01*
X348838Y3152D01*
X348917Y3212D01*
X348995Y3276D01*
X349069Y3342D01*
X349141Y3411D01*
X349210Y3483D01*
X349276Y3557D01*
X349340Y3635D01*
X349400Y3714D01*
X349457Y3796D01*
X349511Y3880D01*
X349561Y3966D01*
X349608Y4054D01*
X349652Y4144D01*
X349692Y4235D01*
X349728Y4328D01*
X349761Y4422D01*
X349790Y4518D01*
X349815Y4614D01*
X349836Y4711D01*
X349854Y4810D01*
X349867Y4908D01*
X349877Y5008D01*
X349883Y5107D01*
X349885Y5207D01*
X349885Y9017D01*
X351155Y19050D02*
X337185Y13970D01*
X347345Y23622D02*
X349885Y26797D01*
X338455Y26797D01*
X338455Y23622D02*
X338455Y29972D01*
X348615Y35052D02*
X349885Y35052D01*
X349885Y41402D01*
X338455Y38227D01*
D10*
X340360Y43180D02*
X370840Y43180D01*
X370840Y-12700D01*
X340360Y-12700D01*
X340360Y43180D01*
D11*
X380365Y-3175D02*
X380365Y-5080D01*
X380365Y-3175D02*
X374015Y-3175D01*
X374015Y-6985D01*
X374017Y-7085D01*
X374023Y-7184D01*
X374033Y-7284D01*
X374046Y-7382D01*
X374064Y-7481D01*
X374085Y-7578D01*
X374110Y-7674D01*
X374139Y-7770D01*
X374172Y-7864D01*
X374208Y-7957D01*
X374248Y-8048D01*
X374292Y-8138D01*
X374339Y-8226D01*
X374389Y-8312D01*
X374443Y-8396D01*
X374500Y-8478D01*
X374560Y-8557D01*
X374624Y-8635D01*
X374690Y-8709D01*
X374759Y-8781D01*
X374831Y-8850D01*
X374905Y-8916D01*
X374983Y-8980D01*
X375062Y-9040D01*
X375144Y-9097D01*
X375228Y-9151D01*
X375314Y-9201D01*
X375402Y-9248D01*
X375492Y-9292D01*
X375583Y-9332D01*
X375676Y-9368D01*
X375770Y-9401D01*
X375866Y-9430D01*
X375962Y-9455D01*
X376059Y-9476D01*
X376158Y-9494D01*
X376256Y-9507D01*
X376356Y-9517D01*
X376455Y-9523D01*
X376555Y-9525D01*
X382905Y-9525D01*
X383005Y-9523D01*
X383104Y-9517D01*
X383204Y-9507D01*
X383302Y-9494D01*
X383401Y-9476D01*
X383498Y-9455D01*
X383594Y-9430D01*
X383690Y-9401D01*
X383784Y-9368D01*
X383877Y-9332D01*
X383968Y-9292D01*
X384058Y-9248D01*
X384146Y-9201D01*
X384232Y-9151D01*
X384316Y-9097D01*
X384398Y-9040D01*
X384477Y-8980D01*
X384555Y-8916D01*
X384629Y-8850D01*
X384701Y-8781D01*
X384770Y-8709D01*
X384836Y-8635D01*
X384900Y-8557D01*
X384960Y-8478D01*
X385017Y-8396D01*
X385071Y-8312D01*
X385121Y-8226D01*
X385168Y-8138D01*
X385212Y-8048D01*
X385252Y-7957D01*
X385288Y-7864D01*
X385321Y-7770D01*
X385350Y-7674D01*
X385375Y-7578D01*
X385396Y-7481D01*
X385414Y-7382D01*
X385427Y-7284D01*
X385437Y-7184D01*
X385443Y-7085D01*
X385445Y-6985D01*
X385445Y-3175D01*
X386715Y6858D02*
X372745Y1778D01*
X382905Y11430D02*
X385445Y14605D01*
X374015Y14605D01*
X374015Y11430D02*
X374015Y17780D01*
X379095Y25400D02*
X379095Y29210D01*
X379095Y25400D02*
X379097Y25300D01*
X379103Y25201D01*
X379113Y25101D01*
X379126Y25003D01*
X379144Y24904D01*
X379165Y24807D01*
X379190Y24711D01*
X379219Y24615D01*
X379252Y24521D01*
X379288Y24428D01*
X379328Y24337D01*
X379372Y24247D01*
X379419Y24159D01*
X379469Y24073D01*
X379523Y23989D01*
X379580Y23907D01*
X379640Y23828D01*
X379704Y23750D01*
X379770Y23676D01*
X379839Y23604D01*
X379911Y23535D01*
X379985Y23469D01*
X380063Y23405D01*
X380142Y23345D01*
X380224Y23288D01*
X380308Y23234D01*
X380394Y23184D01*
X380482Y23137D01*
X380572Y23093D01*
X380663Y23053D01*
X380756Y23017D01*
X380850Y22984D01*
X380946Y22955D01*
X381042Y22930D01*
X381139Y22909D01*
X381238Y22891D01*
X381336Y22878D01*
X381436Y22868D01*
X381535Y22862D01*
X381635Y22860D01*
X382270Y22860D01*
X382381Y22862D01*
X382491Y22868D01*
X382602Y22877D01*
X382712Y22891D01*
X382821Y22908D01*
X382930Y22929D01*
X383038Y22954D01*
X383145Y22983D01*
X383251Y23015D01*
X383356Y23051D01*
X383459Y23091D01*
X383561Y23134D01*
X383662Y23181D01*
X383761Y23232D01*
X383858Y23285D01*
X383952Y23342D01*
X384045Y23403D01*
X384136Y23466D01*
X384225Y23533D01*
X384311Y23603D01*
X384394Y23676D01*
X384476Y23751D01*
X384554Y23829D01*
X384629Y23911D01*
X384702Y23994D01*
X384772Y24080D01*
X384839Y24169D01*
X384902Y24260D01*
X384963Y24353D01*
X385020Y24447D01*
X385073Y24544D01*
X385124Y24643D01*
X385171Y24744D01*
X385214Y24846D01*
X385254Y24949D01*
X385290Y25054D01*
X385322Y25160D01*
X385351Y25267D01*
X385376Y25375D01*
X385397Y25484D01*
X385414Y25593D01*
X385428Y25703D01*
X385437Y25814D01*
X385443Y25924D01*
X385445Y26035D01*
X385443Y26146D01*
X385437Y26256D01*
X385428Y26367D01*
X385414Y26477D01*
X385397Y26586D01*
X385376Y26695D01*
X385351Y26803D01*
X385322Y26910D01*
X385290Y27016D01*
X385254Y27121D01*
X385214Y27224D01*
X385171Y27326D01*
X385124Y27427D01*
X385073Y27526D01*
X385020Y27622D01*
X384963Y27717D01*
X384902Y27810D01*
X384839Y27901D01*
X384772Y27990D01*
X384702Y28076D01*
X384629Y28159D01*
X384554Y28241D01*
X384476Y28319D01*
X384394Y28394D01*
X384311Y28467D01*
X384225Y28537D01*
X384136Y28604D01*
X384045Y28667D01*
X383952Y28728D01*
X383858Y28785D01*
X383761Y28838D01*
X383662Y28889D01*
X383561Y28936D01*
X383459Y28979D01*
X383356Y29019D01*
X383251Y29055D01*
X383145Y29087D01*
X383038Y29116D01*
X382930Y29141D01*
X382821Y29162D01*
X382712Y29179D01*
X382602Y29193D01*
X382491Y29202D01*
X382381Y29208D01*
X382270Y29210D01*
X379095Y29210D01*
X378955Y29208D01*
X378815Y29202D01*
X378675Y29193D01*
X378536Y29179D01*
X378397Y29162D01*
X378259Y29141D01*
X378121Y29116D01*
X377984Y29087D01*
X377848Y29055D01*
X377713Y29018D01*
X377579Y28978D01*
X377446Y28935D01*
X377314Y28887D01*
X377183Y28837D01*
X377054Y28782D01*
X376927Y28724D01*
X376801Y28663D01*
X376677Y28598D01*
X376555Y28529D01*
X376435Y28458D01*
X376317Y28383D01*
X376200Y28305D01*
X376086Y28223D01*
X375975Y28139D01*
X375866Y28051D01*
X375759Y27961D01*
X375654Y27867D01*
X375553Y27771D01*
X375454Y27672D01*
X375358Y27571D01*
X375264Y27466D01*
X375174Y27359D01*
X375086Y27250D01*
X375002Y27139D01*
X374920Y27025D01*
X374842Y26908D01*
X374767Y26790D01*
X374696Y26670D01*
X374627Y26548D01*
X374562Y26424D01*
X374501Y26298D01*
X374443Y26171D01*
X374388Y26042D01*
X374338Y25911D01*
X374290Y25779D01*
X374247Y25646D01*
X374207Y25512D01*
X374170Y25377D01*
X374138Y25241D01*
X374109Y25104D01*
X374084Y24966D01*
X374063Y24828D01*
X374046Y24689D01*
X374032Y24550D01*
X374023Y24410D01*
X374017Y24270D01*
X374015Y24130D01*
D12*
X132100Y68600D02*
X132100Y125600D01*
X132100Y68600D02*
X154100Y68600D01*
X176100Y68600D02*
X198100Y68600D01*
X198100Y125600D01*
X189100Y134600D02*
X176100Y134600D01*
X154100Y134600D02*
X141100Y134600D01*
X132100Y125600D01*
X189100Y134600D02*
X198100Y125600D01*
X155600Y131099D02*
X154886Y130859D01*
X154178Y130602D01*
X153477Y130327D01*
X152782Y130035D01*
X152095Y129727D01*
X151416Y129402D01*
X150744Y129060D01*
X150082Y128702D01*
X149428Y128328D01*
X148783Y127939D01*
X148148Y127533D01*
X147523Y127113D01*
X146909Y126677D01*
X146305Y126226D01*
X145713Y125761D01*
X145132Y125282D01*
X144563Y124788D01*
X144006Y124281D01*
X143461Y123760D01*
X142930Y123227D01*
X142411Y122680D01*
X141907Y122121D01*
X141415Y121550D01*
X140938Y120967D01*
X140476Y120373D01*
X140027Y119767D01*
X139594Y119151D01*
X139176Y118525D01*
X138773Y117888D01*
X138386Y117242D01*
X138015Y116587D01*
X137660Y115922D01*
X137321Y115250D01*
X136999Y114569D01*
X136693Y113880D01*
X136404Y113185D01*
X136132Y112482D01*
X135878Y111773D01*
X135640Y111058D01*
X135421Y110338D01*
X135218Y109612D01*
X135034Y108882D01*
X134867Y108147D01*
X134719Y107409D01*
X134588Y106667D01*
X134476Y105922D01*
X134381Y105175D01*
X134305Y104425D01*
X134248Y103674D01*
X134208Y102922D01*
X134187Y102169D01*
X134184Y101416D01*
X134200Y100663D01*
X134234Y99910D01*
X134286Y99159D01*
X134356Y98409D01*
X134445Y97661D01*
X134552Y96915D01*
X134677Y96173D01*
X134820Y95433D01*
X134981Y94697D01*
X135160Y93966D01*
X135357Y93238D01*
X135572Y92516D01*
X135804Y91800D01*
X136053Y91089D01*
X136320Y90384D01*
X136603Y89687D01*
X136904Y88996D01*
X137221Y88313D01*
X137555Y87638D01*
X137905Y86971D01*
X138272Y86313D01*
X138654Y85664D01*
X139052Y85024D01*
X139465Y84394D01*
X139894Y83775D01*
X140338Y83166D01*
X140796Y82568D01*
X141269Y81982D01*
X141756Y81407D01*
X142256Y80845D01*
X142771Y80294D01*
X143298Y79757D01*
X143839Y79232D01*
X144392Y78721D01*
X144957Y78223D01*
X145535Y77739D01*
X146124Y77270D01*
X146724Y76815D01*
X147335Y76374D01*
X147957Y75949D01*
X148589Y75539D01*
X149230Y75145D01*
X149882Y74766D01*
X150542Y74403D01*
X151211Y74057D01*
X151888Y73726D01*
X152572Y73413D01*
X153265Y73116D01*
X153964Y72836D01*
X154670Y72573D01*
X155382Y72328D01*
X156100Y72100D01*
X174600Y72101D02*
X175314Y72341D01*
X176022Y72598D01*
X176723Y72873D01*
X177418Y73165D01*
X178105Y73473D01*
X178784Y73798D01*
X179456Y74140D01*
X180118Y74498D01*
X180772Y74872D01*
X181417Y75261D01*
X182052Y75667D01*
X182677Y76087D01*
X183291Y76523D01*
X183895Y76974D01*
X184487Y77439D01*
X185068Y77918D01*
X185637Y78412D01*
X186194Y78919D01*
X186739Y79440D01*
X187270Y79973D01*
X187789Y80520D01*
X188293Y81079D01*
X188785Y81650D01*
X189262Y82233D01*
X189724Y82827D01*
X190173Y83433D01*
X190606Y84049D01*
X191024Y84675D01*
X191427Y85312D01*
X191814Y85958D01*
X192185Y86613D01*
X192540Y87278D01*
X192879Y87950D01*
X193201Y88631D01*
X193507Y89320D01*
X193796Y90015D01*
X194068Y90718D01*
X194322Y91427D01*
X194560Y92142D01*
X194779Y92862D01*
X194982Y93588D01*
X195166Y94318D01*
X195333Y95053D01*
X195481Y95791D01*
X195612Y96533D01*
X195724Y97278D01*
X195819Y98025D01*
X195895Y98775D01*
X195952Y99526D01*
X195992Y100278D01*
X196013Y101031D01*
X196016Y101784D01*
X196000Y102537D01*
X195966Y103290D01*
X195914Y104041D01*
X195844Y104791D01*
X195755Y105539D01*
X195648Y106285D01*
X195523Y107027D01*
X195380Y107767D01*
X195219Y108503D01*
X195040Y109234D01*
X194843Y109962D01*
X194628Y110684D01*
X194396Y111400D01*
X194147Y112111D01*
X193880Y112816D01*
X193597Y113513D01*
X193296Y114204D01*
X192979Y114887D01*
X192645Y115562D01*
X192295Y116229D01*
X191928Y116887D01*
X191546Y117536D01*
X191148Y118176D01*
X190735Y118806D01*
X190306Y119425D01*
X189862Y120034D01*
X189404Y120632D01*
X188931Y121218D01*
X188444Y121793D01*
X187944Y122355D01*
X187429Y122906D01*
X186902Y123443D01*
X186361Y123968D01*
X185808Y124479D01*
X185243Y124977D01*
X184665Y125461D01*
X184076Y125930D01*
X183476Y126385D01*
X182865Y126826D01*
X182243Y127251D01*
X181611Y127661D01*
X180970Y128055D01*
X180318Y128434D01*
X179658Y128797D01*
X178989Y129143D01*
X178312Y129474D01*
X177628Y129787D01*
X176935Y130084D01*
X176236Y130364D01*
X175530Y130627D01*
X174818Y130872D01*
X174100Y131100D01*
D13*
X201908Y73401D02*
X201908Y70804D01*
X201910Y70705D01*
X201916Y70605D01*
X201925Y70506D01*
X201938Y70408D01*
X201955Y70310D01*
X201976Y70212D01*
X202001Y70116D01*
X202029Y70021D01*
X202061Y69927D01*
X202096Y69834D01*
X202135Y69742D01*
X202178Y69652D01*
X202223Y69564D01*
X202273Y69477D01*
X202325Y69393D01*
X202381Y69310D01*
X202439Y69230D01*
X202501Y69152D01*
X202566Y69077D01*
X202634Y69004D01*
X202704Y68934D01*
X202777Y68866D01*
X202852Y68801D01*
X202930Y68739D01*
X203010Y68681D01*
X203093Y68625D01*
X203177Y68573D01*
X203264Y68523D01*
X203352Y68478D01*
X203442Y68435D01*
X203534Y68396D01*
X203627Y68361D01*
X203721Y68329D01*
X203816Y68301D01*
X203912Y68276D01*
X204010Y68255D01*
X204108Y68238D01*
X204206Y68225D01*
X204305Y68216D01*
X204405Y68210D01*
X204504Y68208D01*
X210996Y68208D01*
X211095Y68210D01*
X211195Y68216D01*
X211294Y68225D01*
X211392Y68238D01*
X211490Y68255D01*
X211588Y68276D01*
X211684Y68301D01*
X211779Y68329D01*
X211873Y68361D01*
X211966Y68396D01*
X212058Y68435D01*
X212148Y68478D01*
X212236Y68523D01*
X212323Y68573D01*
X212407Y68625D01*
X212490Y68681D01*
X212570Y68739D01*
X212648Y68801D01*
X212723Y68866D01*
X212796Y68934D01*
X212866Y69004D01*
X212934Y69077D01*
X212999Y69152D01*
X213061Y69230D01*
X213119Y69310D01*
X213175Y69393D01*
X213227Y69477D01*
X213277Y69564D01*
X213322Y69652D01*
X213365Y69742D01*
X213404Y69834D01*
X213439Y69926D01*
X213471Y70021D01*
X213499Y70116D01*
X213524Y70212D01*
X213545Y70310D01*
X213562Y70408D01*
X213575Y70506D01*
X213584Y70605D01*
X213590Y70705D01*
X213592Y70804D01*
X213592Y73401D01*
X213592Y81336D02*
X213590Y81443D01*
X213584Y81549D01*
X213574Y81655D01*
X213561Y81761D01*
X213543Y81867D01*
X213522Y81971D01*
X213497Y82075D01*
X213468Y82178D01*
X213436Y82279D01*
X213399Y82379D01*
X213359Y82478D01*
X213316Y82576D01*
X213269Y82672D01*
X213218Y82766D01*
X213164Y82858D01*
X213107Y82948D01*
X213047Y83036D01*
X212983Y83121D01*
X212916Y83204D01*
X212846Y83285D01*
X212774Y83363D01*
X212698Y83439D01*
X212620Y83511D01*
X212539Y83581D01*
X212456Y83648D01*
X212371Y83712D01*
X212283Y83772D01*
X212193Y83829D01*
X212101Y83883D01*
X212007Y83934D01*
X211911Y83981D01*
X211813Y84024D01*
X211714Y84064D01*
X211614Y84101D01*
X211513Y84133D01*
X211410Y84162D01*
X211306Y84187D01*
X211202Y84208D01*
X211096Y84226D01*
X210990Y84239D01*
X210884Y84249D01*
X210778Y84255D01*
X210671Y84257D01*
X213592Y81336D02*
X213590Y81215D01*
X213584Y81094D01*
X213574Y80974D01*
X213561Y80853D01*
X213543Y80734D01*
X213522Y80614D01*
X213497Y80496D01*
X213468Y80379D01*
X213435Y80262D01*
X213399Y80147D01*
X213358Y80033D01*
X213315Y79920D01*
X213267Y79808D01*
X213216Y79699D01*
X213161Y79591D01*
X213103Y79484D01*
X213042Y79380D01*
X212977Y79278D01*
X212909Y79178D01*
X212838Y79080D01*
X212764Y78984D01*
X212687Y78891D01*
X212606Y78801D01*
X212523Y78713D01*
X212437Y78628D01*
X212348Y78545D01*
X212257Y78466D01*
X212163Y78389D01*
X212067Y78316D01*
X211969Y78246D01*
X211868Y78179D01*
X211765Y78115D01*
X211660Y78055D01*
X211553Y77998D01*
X211445Y77944D01*
X211335Y77894D01*
X211223Y77848D01*
X211110Y77805D01*
X210995Y77766D01*
X208399Y83284D02*
X208476Y83363D01*
X208557Y83439D01*
X208640Y83512D01*
X208725Y83582D01*
X208813Y83649D01*
X208903Y83713D01*
X208995Y83773D01*
X209090Y83830D01*
X209186Y83884D01*
X209284Y83935D01*
X209384Y83982D01*
X209486Y84026D01*
X209589Y84066D01*
X209693Y84102D01*
X209799Y84134D01*
X209905Y84163D01*
X210013Y84188D01*
X210121Y84210D01*
X210231Y84227D01*
X210340Y84241D01*
X210450Y84250D01*
X210561Y84256D01*
X210671Y84258D01*
X208399Y83284D02*
X201908Y77766D01*
X201908Y84257D01*
D12*
X200680Y68600D02*
X200680Y125600D01*
X200680Y68600D02*
X222680Y68600D01*
X244680Y68600D02*
X266680Y68600D01*
X266680Y125600D01*
X257680Y134600D02*
X244680Y134600D01*
X222680Y134600D02*
X209680Y134600D01*
X200680Y125600D01*
X257680Y134600D02*
X266680Y125600D01*
X224180Y131099D02*
X223466Y130859D01*
X222758Y130602D01*
X222057Y130327D01*
X221362Y130035D01*
X220675Y129727D01*
X219996Y129402D01*
X219324Y129060D01*
X218662Y128702D01*
X218008Y128328D01*
X217363Y127939D01*
X216728Y127533D01*
X216103Y127113D01*
X215489Y126677D01*
X214885Y126226D01*
X214293Y125761D01*
X213712Y125282D01*
X213143Y124788D01*
X212586Y124281D01*
X212041Y123760D01*
X211510Y123227D01*
X210991Y122680D01*
X210487Y122121D01*
X209995Y121550D01*
X209518Y120967D01*
X209056Y120373D01*
X208607Y119767D01*
X208174Y119151D01*
X207756Y118525D01*
X207353Y117888D01*
X206966Y117242D01*
X206595Y116587D01*
X206240Y115922D01*
X205901Y115250D01*
X205579Y114569D01*
X205273Y113880D01*
X204984Y113185D01*
X204712Y112482D01*
X204458Y111773D01*
X204220Y111058D01*
X204001Y110338D01*
X203798Y109612D01*
X203614Y108882D01*
X203447Y108147D01*
X203299Y107409D01*
X203168Y106667D01*
X203056Y105922D01*
X202961Y105175D01*
X202885Y104425D01*
X202828Y103674D01*
X202788Y102922D01*
X202767Y102169D01*
X202764Y101416D01*
X202780Y100663D01*
X202814Y99910D01*
X202866Y99159D01*
X202936Y98409D01*
X203025Y97661D01*
X203132Y96915D01*
X203257Y96173D01*
X203400Y95433D01*
X203561Y94697D01*
X203740Y93966D01*
X203937Y93238D01*
X204152Y92516D01*
X204384Y91800D01*
X204633Y91089D01*
X204900Y90384D01*
X205183Y89687D01*
X205484Y88996D01*
X205801Y88313D01*
X206135Y87638D01*
X206485Y86971D01*
X206852Y86313D01*
X207234Y85664D01*
X207632Y85024D01*
X208045Y84394D01*
X208474Y83775D01*
X208918Y83166D01*
X209376Y82568D01*
X209849Y81982D01*
X210336Y81407D01*
X210836Y80845D01*
X211351Y80294D01*
X211878Y79757D01*
X212419Y79232D01*
X212972Y78721D01*
X213537Y78223D01*
X214115Y77739D01*
X214704Y77270D01*
X215304Y76815D01*
X215915Y76374D01*
X216537Y75949D01*
X217169Y75539D01*
X217810Y75145D01*
X218462Y74766D01*
X219122Y74403D01*
X219791Y74057D01*
X220468Y73726D01*
X221152Y73413D01*
X221845Y73116D01*
X222544Y72836D01*
X223250Y72573D01*
X223962Y72328D01*
X224680Y72100D01*
X243180Y72101D02*
X243894Y72341D01*
X244602Y72598D01*
X245303Y72873D01*
X245998Y73165D01*
X246685Y73473D01*
X247364Y73798D01*
X248036Y74140D01*
X248698Y74498D01*
X249352Y74872D01*
X249997Y75261D01*
X250632Y75667D01*
X251257Y76087D01*
X251871Y76523D01*
X252475Y76974D01*
X253067Y77439D01*
X253648Y77918D01*
X254217Y78412D01*
X254774Y78919D01*
X255319Y79440D01*
X255850Y79973D01*
X256369Y80520D01*
X256873Y81079D01*
X257365Y81650D01*
X257842Y82233D01*
X258304Y82827D01*
X258753Y83433D01*
X259186Y84049D01*
X259604Y84675D01*
X260007Y85312D01*
X260394Y85958D01*
X260765Y86613D01*
X261120Y87278D01*
X261459Y87950D01*
X261781Y88631D01*
X262087Y89320D01*
X262376Y90015D01*
X262648Y90718D01*
X262902Y91427D01*
X263140Y92142D01*
X263359Y92862D01*
X263562Y93588D01*
X263746Y94318D01*
X263913Y95053D01*
X264061Y95791D01*
X264192Y96533D01*
X264304Y97278D01*
X264399Y98025D01*
X264475Y98775D01*
X264532Y99526D01*
X264572Y100278D01*
X264593Y101031D01*
X264596Y101784D01*
X264580Y102537D01*
X264546Y103290D01*
X264494Y104041D01*
X264424Y104791D01*
X264335Y105539D01*
X264228Y106285D01*
X264103Y107027D01*
X263960Y107767D01*
X263799Y108503D01*
X263620Y109234D01*
X263423Y109962D01*
X263208Y110684D01*
X262976Y111400D01*
X262727Y112111D01*
X262460Y112816D01*
X262177Y113513D01*
X261876Y114204D01*
X261559Y114887D01*
X261225Y115562D01*
X260875Y116229D01*
X260508Y116887D01*
X260126Y117536D01*
X259728Y118176D01*
X259315Y118806D01*
X258886Y119425D01*
X258442Y120034D01*
X257984Y120632D01*
X257511Y121218D01*
X257024Y121793D01*
X256524Y122355D01*
X256009Y122906D01*
X255482Y123443D01*
X254941Y123968D01*
X254388Y124479D01*
X253823Y124977D01*
X253245Y125461D01*
X252656Y125930D01*
X252056Y126385D01*
X251445Y126826D01*
X250823Y127251D01*
X250191Y127661D01*
X249550Y128055D01*
X248898Y128434D01*
X248238Y128797D01*
X247569Y129143D01*
X246892Y129474D01*
X246208Y129787D01*
X245515Y130084D01*
X244816Y130364D01*
X244110Y130627D01*
X243398Y130872D01*
X242680Y131100D01*
D13*
X270488Y73401D02*
X270488Y70804D01*
X270490Y70705D01*
X270496Y70605D01*
X270505Y70506D01*
X270518Y70408D01*
X270535Y70310D01*
X270556Y70212D01*
X270581Y70116D01*
X270609Y70021D01*
X270641Y69927D01*
X270676Y69834D01*
X270715Y69742D01*
X270758Y69652D01*
X270803Y69564D01*
X270853Y69477D01*
X270905Y69393D01*
X270961Y69310D01*
X271019Y69230D01*
X271081Y69152D01*
X271146Y69077D01*
X271214Y69004D01*
X271284Y68934D01*
X271357Y68866D01*
X271432Y68801D01*
X271510Y68739D01*
X271590Y68681D01*
X271673Y68625D01*
X271757Y68573D01*
X271844Y68523D01*
X271932Y68478D01*
X272022Y68435D01*
X272114Y68396D01*
X272207Y68361D01*
X272301Y68329D01*
X272396Y68301D01*
X272492Y68276D01*
X272590Y68255D01*
X272688Y68238D01*
X272786Y68225D01*
X272885Y68216D01*
X272985Y68210D01*
X273084Y68208D01*
X279576Y68208D01*
X279675Y68210D01*
X279775Y68216D01*
X279874Y68225D01*
X279972Y68238D01*
X280070Y68255D01*
X280168Y68276D01*
X280264Y68301D01*
X280359Y68329D01*
X280453Y68361D01*
X280546Y68396D01*
X280638Y68435D01*
X280728Y68478D01*
X280816Y68523D01*
X280903Y68573D01*
X280987Y68625D01*
X281070Y68681D01*
X281150Y68739D01*
X281228Y68801D01*
X281303Y68866D01*
X281376Y68934D01*
X281446Y69004D01*
X281514Y69077D01*
X281579Y69152D01*
X281641Y69230D01*
X281699Y69310D01*
X281755Y69393D01*
X281807Y69477D01*
X281857Y69564D01*
X281902Y69652D01*
X281945Y69742D01*
X281984Y69834D01*
X282019Y69926D01*
X282051Y70021D01*
X282079Y70116D01*
X282104Y70212D01*
X282125Y70310D01*
X282142Y70408D01*
X282155Y70506D01*
X282164Y70605D01*
X282170Y70705D01*
X282172Y70804D01*
X282172Y73401D01*
X270488Y77766D02*
X270488Y81012D01*
X270490Y81125D01*
X270496Y81238D01*
X270506Y81351D01*
X270520Y81464D01*
X270537Y81576D01*
X270559Y81687D01*
X270584Y81797D01*
X270614Y81907D01*
X270647Y82015D01*
X270684Y82122D01*
X270724Y82228D01*
X270769Y82332D01*
X270817Y82435D01*
X270868Y82536D01*
X270923Y82635D01*
X270981Y82732D01*
X271043Y82827D01*
X271108Y82920D01*
X271176Y83010D01*
X271247Y83098D01*
X271322Y83184D01*
X271399Y83267D01*
X271479Y83347D01*
X271562Y83424D01*
X271648Y83499D01*
X271736Y83570D01*
X271826Y83638D01*
X271919Y83703D01*
X272014Y83765D01*
X272111Y83823D01*
X272210Y83878D01*
X272311Y83929D01*
X272414Y83977D01*
X272518Y84022D01*
X272624Y84062D01*
X272731Y84099D01*
X272839Y84132D01*
X272949Y84162D01*
X273059Y84187D01*
X273170Y84209D01*
X273282Y84226D01*
X273395Y84240D01*
X273508Y84250D01*
X273621Y84256D01*
X273734Y84258D01*
X273847Y84256D01*
X273960Y84250D01*
X274073Y84240D01*
X274186Y84226D01*
X274298Y84209D01*
X274409Y84187D01*
X274519Y84162D01*
X274629Y84132D01*
X274737Y84099D01*
X274844Y84062D01*
X274950Y84022D01*
X275054Y83977D01*
X275157Y83929D01*
X275258Y83878D01*
X275357Y83823D01*
X275454Y83765D01*
X275549Y83703D01*
X275642Y83638D01*
X275732Y83570D01*
X275820Y83499D01*
X275906Y83424D01*
X275989Y83347D01*
X276069Y83267D01*
X276146Y83184D01*
X276221Y83098D01*
X276292Y83010D01*
X276360Y82920D01*
X276425Y82827D01*
X276487Y82732D01*
X276545Y82635D01*
X276600Y82536D01*
X276651Y82435D01*
X276699Y82332D01*
X276744Y82228D01*
X276784Y82122D01*
X276821Y82015D01*
X276854Y81907D01*
X276884Y81797D01*
X276909Y81687D01*
X276931Y81576D01*
X276948Y81464D01*
X276962Y81351D01*
X276972Y81238D01*
X276978Y81125D01*
X276980Y81012D01*
X282172Y81661D02*
X282172Y77766D01*
X282172Y81661D02*
X282170Y81762D01*
X282164Y81862D01*
X282154Y81962D01*
X282141Y82062D01*
X282123Y82161D01*
X282102Y82260D01*
X282077Y82357D01*
X282048Y82454D01*
X282015Y82549D01*
X281979Y82643D01*
X281939Y82735D01*
X281896Y82826D01*
X281849Y82915D01*
X281799Y83002D01*
X281745Y83088D01*
X281688Y83171D01*
X281628Y83251D01*
X281565Y83330D01*
X281498Y83406D01*
X281429Y83479D01*
X281357Y83549D01*
X281283Y83617D01*
X281206Y83682D01*
X281126Y83743D01*
X281044Y83802D01*
X280960Y83857D01*
X280874Y83909D01*
X280786Y83958D01*
X280696Y84003D01*
X280604Y84045D01*
X280511Y84083D01*
X280416Y84117D01*
X280321Y84148D01*
X280224Y84175D01*
X280126Y84198D01*
X280027Y84218D01*
X279927Y84233D01*
X279827Y84245D01*
X279727Y84253D01*
X279626Y84257D01*
X279526Y84257D01*
X279425Y84253D01*
X279325Y84245D01*
X279225Y84233D01*
X279125Y84218D01*
X279026Y84198D01*
X278928Y84175D01*
X278831Y84148D01*
X278736Y84117D01*
X278641Y84083D01*
X278548Y84045D01*
X278456Y84003D01*
X278366Y83958D01*
X278278Y83909D01*
X278192Y83857D01*
X278108Y83802D01*
X278026Y83743D01*
X277946Y83682D01*
X277869Y83617D01*
X277795Y83549D01*
X277723Y83479D01*
X277654Y83406D01*
X277587Y83330D01*
X277524Y83251D01*
X277464Y83171D01*
X277407Y83088D01*
X277353Y83002D01*
X277303Y82915D01*
X277256Y82826D01*
X277213Y82735D01*
X277173Y82643D01*
X277137Y82549D01*
X277104Y82454D01*
X277075Y82357D01*
X277050Y82260D01*
X277029Y82161D01*
X277011Y82062D01*
X276998Y81962D01*
X276988Y81862D01*
X276982Y81762D01*
X276980Y81661D01*
X276979Y81661D02*
X276979Y79064D01*
X143979Y117542D02*
X146448Y129608D01*
X137233Y121437D01*
X139537Y123480D02*
X144596Y120559D01*
X133168Y123783D02*
X139010Y133902D01*
X133168Y123783D02*
X128671Y126380D01*
X124108Y129014D02*
X129950Y139133D01*
X122984Y129664D02*
X125232Y128365D01*
X131074Y138484D02*
X128826Y139782D01*
X151599Y135322D02*
X154068Y147388D01*
X144853Y139217D01*
X147157Y141260D02*
X152216Y138339D01*
X140744Y141589D02*
X146586Y151708D01*
X143776Y153330D01*
X143776Y153331D02*
X143677Y153386D01*
X143576Y153437D01*
X143473Y153485D01*
X143369Y153530D01*
X143263Y153570D01*
X143156Y153607D01*
X143048Y153640D01*
X142938Y153670D01*
X142828Y153695D01*
X142717Y153717D01*
X142605Y153734D01*
X142492Y153748D01*
X142379Y153758D01*
X142266Y153764D01*
X142153Y153766D01*
X142040Y153764D01*
X141927Y153758D01*
X141814Y153748D01*
X141701Y153734D01*
X141589Y153717D01*
X141478Y153695D01*
X141368Y153670D01*
X141258Y153640D01*
X141150Y153607D01*
X141043Y153570D01*
X140937Y153530D01*
X140833Y153485D01*
X140730Y153437D01*
X140629Y153386D01*
X140530Y153331D01*
X140433Y153273D01*
X140338Y153211D01*
X140245Y153146D01*
X140155Y153078D01*
X140067Y153007D01*
X139981Y152932D01*
X139898Y152855D01*
X139818Y152775D01*
X139741Y152692D01*
X139666Y152606D01*
X139595Y152518D01*
X139527Y152428D01*
X139462Y152335D01*
X139400Y152240D01*
X139342Y152143D01*
X139287Y152044D01*
X139236Y151943D01*
X139188Y151840D01*
X139143Y151736D01*
X139103Y151630D01*
X139066Y151523D01*
X139033Y151415D01*
X139003Y151305D01*
X138978Y151195D01*
X138956Y151084D01*
X138939Y150972D01*
X138925Y150859D01*
X138915Y150746D01*
X138909Y150633D01*
X138907Y150520D01*
X138909Y150407D01*
X138915Y150294D01*
X138925Y150181D01*
X138939Y150068D01*
X138956Y149956D01*
X138978Y149845D01*
X139003Y149735D01*
X139033Y149625D01*
X139066Y149517D01*
X139103Y149410D01*
X139143Y149304D01*
X139188Y149200D01*
X139236Y149097D01*
X139287Y148996D01*
X139342Y148897D01*
X139400Y148800D01*
X139462Y148705D01*
X139527Y148612D01*
X139595Y148522D01*
X139666Y148433D01*
X139741Y148348D01*
X139818Y148265D01*
X139898Y148185D01*
X139981Y148108D01*
X140067Y148033D01*
X140155Y147962D01*
X140245Y147894D01*
X140338Y147829D01*
X140433Y147767D01*
X140530Y147709D01*
X143341Y146086D01*
X139968Y148033D02*
X135123Y144835D01*
X130078Y147747D02*
X135920Y157866D01*
X131203Y147098D02*
X128954Y148396D01*
X134796Y158515D02*
X137045Y157216D01*
X154139Y160722D02*
X159981Y170841D01*
X157170Y172464D01*
X157071Y172519D01*
X156970Y172570D01*
X156867Y172618D01*
X156763Y172663D01*
X156657Y172703D01*
X156550Y172740D01*
X156442Y172773D01*
X156332Y172803D01*
X156222Y172828D01*
X156111Y172850D01*
X155999Y172867D01*
X155886Y172881D01*
X155773Y172891D01*
X155660Y172897D01*
X155547Y172899D01*
X155434Y172897D01*
X155321Y172891D01*
X155208Y172881D01*
X155095Y172867D01*
X154983Y172850D01*
X154872Y172828D01*
X154762Y172803D01*
X154652Y172773D01*
X154544Y172740D01*
X154437Y172703D01*
X154331Y172663D01*
X154227Y172618D01*
X154124Y172570D01*
X154023Y172519D01*
X153924Y172464D01*
X153827Y172406D01*
X153732Y172344D01*
X153639Y172279D01*
X153549Y172211D01*
X153461Y172140D01*
X153375Y172065D01*
X153292Y171988D01*
X153212Y171908D01*
X153135Y171825D01*
X153060Y171739D01*
X152989Y171651D01*
X152921Y171561D01*
X152856Y171468D01*
X152794Y171373D01*
X152736Y171276D01*
X152681Y171177D01*
X152630Y171076D01*
X152582Y170973D01*
X152537Y170869D01*
X152497Y170763D01*
X152460Y170656D01*
X152427Y170548D01*
X152397Y170438D01*
X152372Y170328D01*
X152350Y170217D01*
X152333Y170105D01*
X152319Y169992D01*
X152309Y169879D01*
X152303Y169766D01*
X152301Y169653D01*
X152303Y169540D01*
X152309Y169427D01*
X152319Y169314D01*
X152333Y169201D01*
X152350Y169089D01*
X152372Y168978D01*
X152397Y168868D01*
X152427Y168758D01*
X152460Y168650D01*
X152497Y168543D01*
X152537Y168437D01*
X152582Y168333D01*
X152630Y168230D01*
X152681Y168129D01*
X152736Y168030D01*
X152794Y167933D01*
X152856Y167838D01*
X152921Y167745D01*
X152989Y167655D01*
X153060Y167566D01*
X153135Y167481D01*
X153212Y167398D01*
X153292Y167318D01*
X153375Y167241D01*
X153461Y167166D01*
X153549Y167095D01*
X153639Y167027D01*
X153732Y166962D01*
X153827Y166900D01*
X153924Y166842D01*
X156735Y165219D01*
X153362Y167167D02*
X148517Y163968D01*
X143473Y166880D02*
X149315Y176999D01*
X144597Y166231D02*
X142349Y167529D01*
X148191Y177648D02*
X150439Y176350D01*
X159383Y184829D02*
X161069Y183855D01*
X159383Y184829D02*
X156137Y179208D01*
X159510Y177260D01*
X159510Y177261D02*
X159597Y177213D01*
X159686Y177168D01*
X159776Y177127D01*
X159868Y177089D01*
X159962Y177055D01*
X160056Y177024D01*
X160152Y176997D01*
X160249Y176974D01*
X160346Y176954D01*
X160445Y176939D01*
X160543Y176927D01*
X160642Y176918D01*
X160742Y176914D01*
X160841Y176913D01*
X160941Y176916D01*
X161040Y176923D01*
X161139Y176934D01*
X161237Y176949D01*
X161335Y176967D01*
X161432Y176989D01*
X161528Y177015D01*
X161623Y177044D01*
X161717Y177077D01*
X161809Y177114D01*
X161900Y177154D01*
X161990Y177197D01*
X162077Y177244D01*
X162163Y177295D01*
X162247Y177348D01*
X162329Y177405D01*
X162408Y177465D01*
X162485Y177527D01*
X162560Y177593D01*
X162632Y177662D01*
X162701Y177733D01*
X162768Y177807D01*
X162832Y177883D01*
X162893Y177962D01*
X162950Y178043D01*
X163005Y178126D01*
X163056Y178211D01*
X163057Y178211D02*
X166302Y183832D01*
X166350Y183919D01*
X166395Y184008D01*
X166436Y184098D01*
X166474Y184190D01*
X166508Y184284D01*
X166539Y184378D01*
X166566Y184474D01*
X166589Y184571D01*
X166609Y184668D01*
X166624Y184767D01*
X166636Y184865D01*
X166645Y184964D01*
X166649Y185064D01*
X166650Y185163D01*
X166647Y185263D01*
X166640Y185362D01*
X166629Y185461D01*
X166614Y185559D01*
X166596Y185657D01*
X166574Y185754D01*
X166548Y185850D01*
X166519Y185945D01*
X166486Y186039D01*
X166449Y186131D01*
X166409Y186222D01*
X166366Y186312D01*
X166319Y186399D01*
X166268Y186485D01*
X166215Y186569D01*
X166158Y186651D01*
X166098Y186730D01*
X166036Y186807D01*
X165970Y186882D01*
X165901Y186954D01*
X165830Y187023D01*
X165756Y187090D01*
X165680Y187154D01*
X165601Y187214D01*
X165520Y187272D01*
X165437Y187327D01*
X165352Y187378D01*
X165352Y187379D02*
X161979Y189326D01*
X156541Y192466D02*
X150699Y182347D01*
X151823Y181698D02*
X149575Y182997D01*
X155417Y193115D02*
X157665Y191817D01*
M02*
