G04 EAGLE Gerber RS-274X export*
G75*
%MOMM*%
%FSLAX34Y34*%
%LPD*%
%INTop Copper*%
%IPPOS*%
%AMOC8*
5,1,8,0,0,1.08239X$1,22.5*%
G01*
%ADD10R,2.540000X5.080000*%
%ADD11R,1.600000X3.500000*%
%ADD12R,1.270000X2.540000*%
%ADD13R,1.803000X1.600000*%
%ADD14C,0.299719*%
%ADD15C,0.254000*%
%ADD16C,0.756400*%

G36*
X124010Y11106D02*
X124010Y11106D01*
X124049Y11103D01*
X124181Y11125D01*
X124314Y11140D01*
X124351Y11153D01*
X124390Y11160D01*
X124513Y11211D01*
X124639Y11256D01*
X124673Y11277D01*
X124709Y11293D01*
X124817Y11371D01*
X124930Y11443D01*
X124957Y11472D01*
X124989Y11495D01*
X125077Y11596D01*
X125169Y11692D01*
X125189Y11726D01*
X125215Y11756D01*
X125277Y11875D01*
X125346Y11990D01*
X125357Y12028D01*
X125376Y12062D01*
X125409Y12192D01*
X125449Y12319D01*
X125452Y12359D01*
X125462Y12397D01*
X125475Y12600D01*
X125475Y41272D01*
X126368Y42165D01*
X149407Y42165D01*
X149511Y42177D01*
X149615Y42179D01*
X149682Y42197D01*
X149750Y42205D01*
X149848Y42240D01*
X149950Y42267D01*
X150010Y42299D01*
X150075Y42322D01*
X150163Y42379D01*
X150255Y42428D01*
X150307Y42473D01*
X150365Y42511D01*
X150437Y42587D01*
X150515Y42655D01*
X150555Y42711D01*
X150603Y42761D01*
X150656Y42851D01*
X150717Y42936D01*
X150743Y43000D01*
X150778Y43059D01*
X150809Y43159D01*
X150848Y43256D01*
X150859Y43324D01*
X150880Y43389D01*
X150887Y43494D01*
X150903Y43597D01*
X150898Y43666D01*
X150903Y43734D01*
X150886Y43837D01*
X150878Y43942D01*
X150858Y44007D01*
X150847Y44075D01*
X150807Y44172D01*
X150775Y44271D01*
X150740Y44331D01*
X150714Y44394D01*
X150653Y44479D01*
X150599Y44569D01*
X150531Y44648D01*
X150511Y44674D01*
X150495Y44688D01*
X150466Y44722D01*
X130471Y64717D01*
X130361Y64804D01*
X130255Y64895D01*
X130226Y64911D01*
X130200Y64931D01*
X130073Y64991D01*
X129949Y65056D01*
X129917Y65064D01*
X129887Y65078D01*
X129750Y65107D01*
X129614Y65142D01*
X129570Y65145D01*
X129549Y65149D01*
X129516Y65148D01*
X129412Y65155D01*
X114813Y65155D01*
X113920Y66048D01*
X113920Y83312D01*
X114813Y84205D01*
X134107Y84205D01*
X135000Y83312D01*
X135000Y68713D01*
X135016Y68574D01*
X135026Y68434D01*
X135036Y68402D01*
X135040Y68370D01*
X135087Y68238D01*
X135129Y68104D01*
X135146Y68076D01*
X135157Y68045D01*
X135234Y67927D01*
X135305Y67807D01*
X135334Y67773D01*
X135346Y67755D01*
X135370Y67733D01*
X135438Y67654D01*
X156425Y46667D01*
X156535Y46580D01*
X156641Y46489D01*
X156670Y46473D01*
X156696Y46453D01*
X156823Y46393D01*
X156947Y46328D01*
X156979Y46320D01*
X157009Y46306D01*
X157146Y46277D01*
X157282Y46242D01*
X157326Y46239D01*
X157347Y46235D01*
X157380Y46236D01*
X157484Y46229D01*
X176788Y46229D01*
X176943Y46247D01*
X177099Y46261D01*
X177115Y46267D01*
X177131Y46269D01*
X177278Y46322D01*
X177427Y46372D01*
X177441Y46380D01*
X177456Y46386D01*
X177587Y46472D01*
X177720Y46554D01*
X177732Y46566D01*
X177746Y46575D01*
X177854Y46688D01*
X177964Y46799D01*
X177973Y46813D01*
X177984Y46825D01*
X178063Y46961D01*
X178145Y47093D01*
X178150Y47109D01*
X178159Y47123D01*
X178205Y47273D01*
X178254Y47421D01*
X178256Y47438D01*
X178261Y47453D01*
X178271Y47609D01*
X178285Y47765D01*
X178283Y47782D01*
X178284Y47798D01*
X178259Y47952D01*
X178236Y48108D01*
X178230Y48128D01*
X178228Y48139D01*
X178218Y48164D01*
X178172Y48300D01*
X177573Y49744D01*
X177573Y51856D01*
X178381Y53806D01*
X179647Y55071D01*
X179734Y55181D01*
X179825Y55287D01*
X179841Y55316D01*
X179861Y55342D01*
X179921Y55469D01*
X179986Y55593D01*
X179994Y55625D01*
X180008Y55655D01*
X180037Y55793D01*
X180072Y55928D01*
X180075Y55972D01*
X180079Y55993D01*
X180078Y56026D01*
X180085Y56131D01*
X180085Y89881D01*
X180075Y89968D01*
X180075Y90057D01*
X180055Y90139D01*
X180045Y90224D01*
X180015Y90307D01*
X179995Y90393D01*
X179957Y90469D01*
X179928Y90549D01*
X179880Y90623D01*
X179840Y90702D01*
X179786Y90767D01*
X179739Y90838D01*
X179675Y90899D01*
X179619Y90967D01*
X179551Y91018D01*
X179489Y91077D01*
X179413Y91121D01*
X179342Y91174D01*
X179214Y91238D01*
X179191Y91252D01*
X179180Y91255D01*
X179161Y91265D01*
X177334Y92021D01*
X175841Y93514D01*
X175033Y95464D01*
X175033Y97576D01*
X175841Y99526D01*
X177334Y101019D01*
X179284Y101827D01*
X181396Y101827D01*
X183346Y101019D01*
X184839Y99526D01*
X185647Y97576D01*
X185647Y95786D01*
X185663Y95647D01*
X185673Y95507D01*
X185675Y95501D01*
X185675Y93427D01*
X185687Y93323D01*
X185689Y93219D01*
X185707Y93152D01*
X185715Y93084D01*
X185750Y92986D01*
X185777Y92884D01*
X185809Y92824D01*
X185832Y92759D01*
X185889Y92671D01*
X185938Y92579D01*
X185983Y92527D01*
X186021Y92469D01*
X186097Y92397D01*
X186165Y92319D01*
X186221Y92278D01*
X186271Y92231D01*
X186361Y92178D01*
X186446Y92117D01*
X186510Y92091D01*
X186569Y92056D01*
X186669Y92025D01*
X186766Y91986D01*
X186834Y91975D01*
X186899Y91954D01*
X187004Y91947D01*
X187107Y91931D01*
X187176Y91936D01*
X187244Y91931D01*
X187347Y91948D01*
X187452Y91956D01*
X187517Y91976D01*
X187585Y91987D01*
X187682Y92027D01*
X187781Y92059D01*
X187841Y92094D01*
X187904Y92120D01*
X187989Y92181D01*
X188079Y92235D01*
X188158Y92303D01*
X188184Y92323D01*
X188198Y92339D01*
X188232Y92368D01*
X189488Y93625D01*
X206752Y93625D01*
X207645Y92732D01*
X207645Y78545D01*
X207664Y78376D01*
X207683Y78209D01*
X207684Y78205D01*
X207685Y78201D01*
X207742Y78043D01*
X207799Y77883D01*
X207801Y77880D01*
X207802Y77876D01*
X207895Y77734D01*
X207986Y77593D01*
X207989Y77590D01*
X207991Y77587D01*
X208114Y77469D01*
X208235Y77353D01*
X208238Y77351D01*
X208241Y77349D01*
X208388Y77262D01*
X208532Y77177D01*
X208536Y77176D01*
X208539Y77174D01*
X208702Y77124D01*
X208862Y77073D01*
X208867Y77073D01*
X208869Y77072D01*
X208879Y77071D01*
X209063Y77049D01*
X214421Y76766D01*
X214495Y76770D01*
X214568Y76765D01*
X214667Y76781D01*
X214766Y76787D01*
X214836Y76809D01*
X214909Y76821D01*
X214972Y76847D01*
X216128Y76681D01*
X216161Y76681D01*
X216261Y76668D01*
X217418Y76607D01*
X217434Y76595D01*
X217497Y76569D01*
X218198Y75635D01*
X218220Y75611D01*
X218282Y75532D01*
X219057Y74671D01*
X219061Y74651D01*
X219099Y74559D01*
X219128Y74463D01*
X219165Y74400D01*
X219193Y74331D01*
X219298Y74169D01*
X219301Y74164D01*
X219302Y74163D01*
X219303Y74161D01*
X224582Y67122D01*
X224633Y67069D01*
X224676Y67009D01*
X224751Y66944D01*
X224820Y66872D01*
X224882Y66831D01*
X224937Y66783D01*
X225026Y66737D01*
X225109Y66682D01*
X225178Y66657D01*
X225243Y66623D01*
X225340Y66598D01*
X225434Y66564D01*
X225507Y66555D01*
X225578Y66537D01*
X225772Y66524D01*
X225777Y66523D01*
X225778Y66523D01*
X225781Y66523D01*
X344423Y66523D01*
X344480Y66530D01*
X344536Y66528D01*
X344651Y66550D01*
X344767Y66563D01*
X344820Y66583D01*
X344876Y66593D01*
X345065Y66668D01*
X345278Y66768D01*
X345719Y66611D01*
X345871Y66576D01*
X346021Y66537D01*
X346044Y66536D01*
X346056Y66533D01*
X346084Y66533D01*
X346223Y66523D01*
X346692Y66523D01*
X346859Y66357D01*
X346903Y66322D01*
X346942Y66280D01*
X347039Y66214D01*
X347130Y66142D01*
X347181Y66118D01*
X347228Y66086D01*
X347414Y66005D01*
X347636Y65926D01*
X347837Y65502D01*
X347919Y65371D01*
X347998Y65237D01*
X348013Y65219D01*
X348020Y65209D01*
X348040Y65189D01*
X348132Y65084D01*
X348463Y64752D01*
X348463Y64517D01*
X348470Y64460D01*
X348468Y64404D01*
X348490Y64289D01*
X348503Y64173D01*
X348523Y64120D01*
X348533Y64064D01*
X348608Y63875D01*
X358486Y43021D01*
X358513Y42978D01*
X358532Y42931D01*
X358604Y42832D01*
X358669Y42728D01*
X358705Y42692D01*
X358735Y42651D01*
X358827Y42571D01*
X358914Y42485D01*
X358958Y42458D01*
X358996Y42425D01*
X359104Y42368D01*
X359209Y42304D01*
X359257Y42288D01*
X359302Y42264D01*
X359421Y42234D01*
X359537Y42196D01*
X359588Y42191D01*
X359637Y42178D01*
X359839Y42165D01*
X369721Y42165D01*
X369765Y42170D01*
X369809Y42167D01*
X369936Y42190D01*
X370065Y42205D01*
X370106Y42220D01*
X370149Y42227D01*
X370268Y42278D01*
X370390Y42322D01*
X370426Y42346D01*
X370467Y42363D01*
X370571Y42440D01*
X370679Y42511D01*
X370709Y42543D01*
X370745Y42569D01*
X370828Y42667D01*
X370918Y42761D01*
X370940Y42799D01*
X370968Y42832D01*
X371027Y42947D01*
X371092Y43059D01*
X371105Y43101D01*
X371125Y43140D01*
X371156Y43266D01*
X371194Y43389D01*
X371197Y43433D01*
X371208Y43476D01*
X371219Y43678D01*
X370894Y74257D01*
X370875Y74410D01*
X370859Y74563D01*
X370853Y74581D01*
X370851Y74599D01*
X370797Y74744D01*
X370746Y74890D01*
X370736Y74906D01*
X370730Y74923D01*
X370645Y75051D01*
X370562Y75182D01*
X370548Y75195D01*
X370538Y75211D01*
X370425Y75316D01*
X370315Y75424D01*
X370295Y75437D01*
X370285Y75446D01*
X370261Y75461D01*
X370147Y75537D01*
X157792Y198421D01*
X157695Y198463D01*
X157603Y198513D01*
X157537Y198531D01*
X157475Y198558D01*
X157371Y198577D01*
X157269Y198605D01*
X157202Y198607D01*
X157134Y198620D01*
X157029Y198614D01*
X156924Y198618D01*
X156857Y198605D01*
X156789Y198601D01*
X156688Y198571D01*
X156585Y198551D01*
X156523Y198523D01*
X156458Y198504D01*
X156366Y198452D01*
X156270Y198409D01*
X156216Y198367D01*
X156157Y198333D01*
X156080Y198262D01*
X155996Y198198D01*
X155953Y198145D01*
X155904Y198099D01*
X155845Y198011D01*
X155778Y197930D01*
X155749Y197868D01*
X155711Y197812D01*
X155673Y197714D01*
X155627Y197619D01*
X155613Y197552D01*
X155589Y197489D01*
X155575Y197384D01*
X155552Y197282D01*
X155553Y197213D01*
X155544Y197146D01*
X155547Y197118D01*
X153462Y193507D01*
X153430Y193433D01*
X153391Y193367D01*
X153377Y193322D01*
X153352Y193271D01*
X153342Y193230D01*
X153325Y193190D01*
X153309Y193099D01*
X153289Y193036D01*
X153287Y192998D01*
X153272Y192935D01*
X153272Y192892D01*
X153264Y192850D01*
X153270Y192747D01*
X153266Y192692D01*
X153271Y192661D01*
X153271Y192590D01*
X153281Y192548D01*
X153283Y192505D01*
X153315Y192397D01*
X153322Y192351D01*
X153332Y192328D01*
X153349Y192253D01*
X153368Y192214D01*
X153380Y192173D01*
X153440Y192069D01*
X153455Y192032D01*
X153467Y192016D01*
X153502Y191943D01*
X153530Y191910D01*
X153551Y191873D01*
X153637Y191781D01*
X153658Y191752D01*
X153669Y191741D01*
X153723Y191677D01*
X153768Y191639D01*
X153786Y191619D01*
X153813Y191602D01*
X153878Y191547D01*
X195989Y160921D01*
X196067Y160877D01*
X196139Y160825D01*
X196217Y160793D01*
X196290Y160751D01*
X196376Y160726D01*
X196451Y160695D01*
X197403Y159897D01*
X197428Y159880D01*
X197484Y159833D01*
X198471Y159116D01*
X198578Y157900D01*
X198584Y157870D01*
X198591Y157798D01*
X198786Y156563D01*
X198778Y156519D01*
X198755Y156438D01*
X198750Y156349D01*
X198736Y156261D01*
X198739Y156120D01*
X198737Y156093D01*
X198740Y156081D01*
X198740Y156059D01*
X199362Y148991D01*
X199390Y148851D01*
X199414Y148710D01*
X199425Y148682D01*
X199431Y148653D01*
X199492Y148523D01*
X199547Y148391D01*
X199564Y148367D01*
X199577Y148339D01*
X199665Y148227D01*
X199749Y148111D01*
X199772Y148091D01*
X199790Y148068D01*
X199902Y147978D01*
X200010Y147885D01*
X200037Y147871D01*
X200060Y147852D01*
X200190Y147791D01*
X200317Y147724D01*
X200346Y147717D01*
X200373Y147704D01*
X200513Y147674D01*
X200651Y147638D01*
X200691Y147636D01*
X200711Y147632D01*
X200743Y147632D01*
X200854Y147625D01*
X206752Y147625D01*
X207645Y146732D01*
X207645Y110468D01*
X206752Y109575D01*
X189488Y109575D01*
X188595Y110468D01*
X188595Y146732D01*
X189488Y147625D01*
X191776Y147625D01*
X191877Y147636D01*
X191979Y147638D01*
X192048Y147656D01*
X192120Y147665D01*
X192215Y147699D01*
X192314Y147724D01*
X192377Y147758D01*
X192445Y147782D01*
X192530Y147838D01*
X192620Y147885D01*
X192674Y147932D01*
X192734Y147971D01*
X192804Y148045D01*
X192881Y148111D01*
X192923Y148169D01*
X192973Y148221D01*
X193024Y148309D01*
X193083Y148391D01*
X193111Y148457D01*
X193147Y148519D01*
X193177Y148616D01*
X193216Y148710D01*
X193228Y148781D01*
X193249Y148849D01*
X193256Y148951D01*
X193273Y149051D01*
X193270Y149162D01*
X193273Y149194D01*
X193269Y149214D01*
X193269Y149254D01*
X192749Y155165D01*
X192745Y155184D01*
X192745Y155202D01*
X192710Y155353D01*
X192679Y155504D01*
X192671Y155521D01*
X192667Y155539D01*
X192598Y155678D01*
X192533Y155817D01*
X192522Y155832D01*
X192513Y155849D01*
X192415Y155967D01*
X192320Y156089D01*
X192305Y156101D01*
X192293Y156115D01*
X192138Y156245D01*
X151094Y186095D01*
X150994Y186152D01*
X150899Y186215D01*
X150844Y186236D01*
X150793Y186265D01*
X150682Y186297D01*
X150576Y186337D01*
X150517Y186345D01*
X150461Y186361D01*
X150346Y186367D01*
X150233Y186382D01*
X150174Y186376D01*
X150116Y186379D01*
X150003Y186358D01*
X149889Y186346D01*
X149834Y186327D01*
X149776Y186316D01*
X149671Y186271D01*
X149562Y186233D01*
X149513Y186202D01*
X149459Y186178D01*
X149367Y186109D01*
X149271Y186048D01*
X149229Y186006D01*
X149183Y185971D01*
X149109Y185883D01*
X149029Y185801D01*
X148981Y185730D01*
X148961Y185706D01*
X148949Y185682D01*
X148916Y185633D01*
X148528Y184961D01*
X147308Y184635D01*
X126744Y196507D01*
X126731Y196513D01*
X126718Y196522D01*
X126572Y196581D01*
X126427Y196644D01*
X126412Y196647D01*
X126398Y196652D01*
X126242Y196677D01*
X126087Y196705D01*
X126072Y196704D01*
X126057Y196706D01*
X125899Y196695D01*
X125742Y196686D01*
X125727Y196682D01*
X125712Y196681D01*
X125561Y196633D01*
X125410Y196589D01*
X125397Y196581D01*
X125383Y196577D01*
X125247Y196496D01*
X125110Y196418D01*
X125099Y196407D01*
X125086Y196400D01*
X124973Y196290D01*
X124857Y196183D01*
X124848Y196170D01*
X124837Y196160D01*
X124720Y195994D01*
X123812Y194518D01*
X123788Y194466D01*
X123756Y194419D01*
X123715Y194310D01*
X123666Y194204D01*
X123654Y194149D01*
X123634Y194096D01*
X123619Y193980D01*
X123596Y193866D01*
X123597Y193809D01*
X123590Y193753D01*
X123602Y193637D01*
X123605Y193521D01*
X123619Y193466D01*
X123625Y193409D01*
X123663Y193299D01*
X123693Y193186D01*
X123720Y193136D01*
X123738Y193083D01*
X123801Y192984D01*
X123856Y192881D01*
X123893Y192839D01*
X123923Y192791D01*
X124007Y192709D01*
X124084Y192622D01*
X124130Y192589D01*
X124170Y192549D01*
X124339Y192436D01*
X145023Y180494D01*
X145350Y179274D01*
X141975Y173428D01*
X141969Y173416D01*
X141962Y173405D01*
X141901Y173258D01*
X141837Y173111D01*
X141835Y173098D01*
X141830Y173086D01*
X141805Y172927D01*
X141777Y172770D01*
X141777Y172758D01*
X141775Y172745D01*
X141787Y172584D01*
X141795Y172425D01*
X141799Y172413D01*
X141800Y172400D01*
X141848Y172247D01*
X141893Y172094D01*
X141899Y172083D01*
X141903Y172070D01*
X141985Y171932D01*
X142064Y171793D01*
X142073Y171784D01*
X142079Y171773D01*
X142213Y171620D01*
X150579Y163253D01*
X152655Y161178D01*
X152655Y72112D01*
X152640Y72056D01*
X152637Y72012D01*
X152633Y71991D01*
X152634Y71958D01*
X152627Y71854D01*
X152627Y70064D01*
X151819Y68114D01*
X150326Y66621D01*
X148376Y65813D01*
X146264Y65813D01*
X144314Y66621D01*
X142821Y68114D01*
X142013Y70064D01*
X142013Y72176D01*
X142821Y74126D01*
X144314Y75619D01*
X146141Y76375D01*
X146218Y76418D01*
X146299Y76452D01*
X146368Y76502D01*
X146443Y76544D01*
X146508Y76603D01*
X146579Y76655D01*
X146635Y76719D01*
X146698Y76777D01*
X146748Y76849D01*
X146805Y76916D01*
X146845Y76991D01*
X146893Y77062D01*
X146925Y77144D01*
X146966Y77222D01*
X146987Y77305D01*
X147018Y77384D01*
X147030Y77471D01*
X147052Y77557D01*
X147061Y77700D01*
X147065Y77726D01*
X147064Y77738D01*
X147065Y77759D01*
X147065Y92904D01*
X147059Y92956D01*
X147062Y93009D01*
X147039Y93127D01*
X147025Y93247D01*
X147008Y93297D01*
X146998Y93348D01*
X146949Y93459D01*
X146908Y93572D01*
X146879Y93616D01*
X146858Y93664D01*
X146785Y93761D01*
X146719Y93862D01*
X146681Y93898D01*
X146649Y93940D01*
X146556Y94017D01*
X146469Y94100D01*
X146424Y94127D01*
X146383Y94160D01*
X146275Y94214D01*
X146171Y94275D01*
X146121Y94290D01*
X146074Y94314D01*
X145956Y94341D01*
X145841Y94377D01*
X145788Y94380D01*
X145737Y94392D01*
X145616Y94392D01*
X145496Y94400D01*
X145444Y94392D01*
X145391Y94392D01*
X145274Y94364D01*
X145155Y94344D01*
X145106Y94324D01*
X145055Y94312D01*
X144947Y94257D01*
X144836Y94211D01*
X144793Y94180D01*
X144746Y94157D01*
X144653Y94079D01*
X144556Y94009D01*
X144521Y93969D01*
X144481Y93935D01*
X144408Y93839D01*
X144330Y93747D01*
X144305Y93701D01*
X144274Y93659D01*
X144205Y93520D01*
X142706Y92021D01*
X140756Y91213D01*
X138644Y91213D01*
X136694Y92021D01*
X135559Y93157D01*
X135449Y93244D01*
X135343Y93335D01*
X135313Y93351D01*
X135288Y93371D01*
X135161Y93431D01*
X135037Y93496D01*
X135005Y93504D01*
X134975Y93518D01*
X134838Y93547D01*
X134702Y93582D01*
X134658Y93585D01*
X134637Y93589D01*
X134604Y93588D01*
X134499Y93595D01*
X114813Y93595D01*
X113920Y94488D01*
X113920Y111752D01*
X114813Y112645D01*
X119939Y112645D01*
X119975Y112649D01*
X120010Y112646D01*
X120146Y112669D01*
X120282Y112685D01*
X120316Y112697D01*
X120351Y112703D01*
X120478Y112755D01*
X120607Y112802D01*
X120637Y112822D01*
X120670Y112836D01*
X120782Y112916D01*
X120897Y112991D01*
X120921Y113017D01*
X120951Y113038D01*
X121040Y113142D01*
X121135Y113241D01*
X121153Y113272D01*
X121177Y113299D01*
X121240Y113421D01*
X121310Y113539D01*
X121320Y113574D01*
X121337Y113605D01*
X121371Y113738D01*
X121412Y113869D01*
X121414Y113905D01*
X121423Y113940D01*
X121437Y114143D01*
X121437Y130115D01*
X121425Y130218D01*
X121422Y130323D01*
X121405Y130390D01*
X121397Y130458D01*
X121361Y130556D01*
X121335Y130657D01*
X121303Y130718D01*
X121279Y130783D01*
X121222Y130870D01*
X121173Y130963D01*
X121128Y131015D01*
X121090Y131072D01*
X121015Y131145D01*
X120946Y131223D01*
X120890Y131263D01*
X120840Y131311D01*
X120750Y131364D01*
X120665Y131425D01*
X120602Y131451D01*
X120542Y131486D01*
X120442Y131516D01*
X120346Y131556D01*
X120278Y131567D01*
X120212Y131587D01*
X120108Y131594D01*
X120004Y131611D01*
X119936Y131606D01*
X119867Y131611D01*
X119764Y131594D01*
X119660Y131586D01*
X119594Y131566D01*
X119526Y131555D01*
X119430Y131514D01*
X119330Y131483D01*
X119271Y131448D01*
X119207Y131422D01*
X119122Y131360D01*
X119032Y131307D01*
X118954Y131238D01*
X118927Y131219D01*
X118913Y131203D01*
X118880Y131174D01*
X118604Y130898D01*
X118024Y130563D01*
X117378Y130390D01*
X116709Y130390D01*
X116063Y130563D01*
X107370Y135582D01*
X111066Y141984D01*
X111080Y142017D01*
X111100Y142047D01*
X111148Y142175D01*
X111203Y142301D01*
X111209Y142337D01*
X111222Y142370D01*
X111239Y142506D01*
X111263Y142641D01*
X111262Y142677D01*
X111266Y142713D01*
X111252Y142850D01*
X111245Y142986D01*
X111235Y143021D01*
X111231Y143057D01*
X111186Y143186D01*
X111147Y143318D01*
X111129Y143349D01*
X111118Y143383D01*
X111044Y143499D01*
X110976Y143618D01*
X110952Y143645D01*
X110933Y143675D01*
X110835Y143771D01*
X110741Y143872D01*
X110711Y143892D01*
X110686Y143917D01*
X110517Y144030D01*
X107922Y145529D01*
X107889Y145543D01*
X107859Y145563D01*
X107731Y145611D01*
X107605Y145666D01*
X107569Y145672D01*
X107535Y145685D01*
X107399Y145702D01*
X107264Y145726D01*
X107229Y145724D01*
X107193Y145729D01*
X107056Y145715D01*
X106919Y145708D01*
X106885Y145697D01*
X106849Y145694D01*
X106719Y145649D01*
X106588Y145610D01*
X106557Y145592D01*
X106522Y145581D01*
X106406Y145507D01*
X106287Y145439D01*
X106261Y145415D01*
X106231Y145396D01*
X106135Y145298D01*
X106034Y145204D01*
X106014Y145174D01*
X105989Y145149D01*
X105876Y144980D01*
X102180Y138579D01*
X94021Y143289D01*
X94007Y143295D01*
X93995Y143304D01*
X93849Y143364D01*
X93704Y143426D01*
X93689Y143429D01*
X93675Y143435D01*
X93518Y143459D01*
X93363Y143487D01*
X93348Y143486D01*
X93333Y143489D01*
X93175Y143477D01*
X93018Y143468D01*
X93004Y143464D01*
X92989Y143463D01*
X92838Y143415D01*
X92687Y143371D01*
X92674Y143363D01*
X92659Y143359D01*
X92524Y143278D01*
X92386Y143200D01*
X92375Y143190D01*
X92362Y143182D01*
X92249Y143072D01*
X92133Y142965D01*
X92125Y142952D01*
X92114Y142942D01*
X91996Y142776D01*
X51904Y77576D01*
X51897Y77560D01*
X51886Y77546D01*
X51796Y77365D01*
X51308Y76185D01*
X50760Y75638D01*
X50714Y75580D01*
X50661Y75528D01*
X50550Y75372D01*
X50546Y75367D01*
X50545Y75365D01*
X50544Y75363D01*
X50138Y74704D01*
X49104Y73955D01*
X49091Y73943D01*
X49076Y73934D01*
X48924Y73801D01*
X48021Y72898D01*
X47306Y72602D01*
X47241Y72566D01*
X47172Y72539D01*
X47009Y72436D01*
X47004Y72434D01*
X47003Y72433D01*
X47000Y72431D01*
X46373Y71977D01*
X45131Y71681D01*
X45115Y71675D01*
X45098Y71673D01*
X44906Y71608D01*
X43726Y71119D01*
X42952Y71119D01*
X42879Y71111D01*
X42805Y71112D01*
X42614Y71080D01*
X42609Y71079D01*
X42607Y71079D01*
X42605Y71078D01*
X41852Y70899D01*
X40591Y71100D01*
X40574Y71101D01*
X40557Y71106D01*
X40354Y71119D01*
X13931Y71119D01*
X13903Y71116D01*
X13875Y71118D01*
X13732Y71096D01*
X13588Y71079D01*
X13561Y71070D01*
X13534Y71066D01*
X13399Y71011D01*
X13263Y70962D01*
X13239Y70947D01*
X13213Y70936D01*
X13095Y70852D01*
X12973Y70773D01*
X12954Y70753D01*
X12931Y70737D01*
X12835Y70628D01*
X12735Y70523D01*
X12721Y70499D01*
X12702Y70478D01*
X12633Y70350D01*
X12560Y70225D01*
X12552Y70198D01*
X12538Y70174D01*
X12501Y70033D01*
X12458Y69895D01*
X12456Y69867D01*
X12449Y69840D01*
X12433Y69638D01*
X12154Y43679D01*
X12159Y43635D01*
X12156Y43591D01*
X12177Y43464D01*
X12191Y43335D01*
X12205Y43293D01*
X12212Y43250D01*
X12262Y43131D01*
X12305Y43009D01*
X12328Y42972D01*
X12345Y42931D01*
X12421Y42826D01*
X12490Y42717D01*
X12522Y42687D01*
X12548Y42651D01*
X12645Y42566D01*
X12738Y42476D01*
X12776Y42453D01*
X12809Y42425D01*
X12923Y42365D01*
X13034Y42298D01*
X13076Y42285D01*
X13115Y42264D01*
X13240Y42232D01*
X13363Y42193D01*
X13407Y42189D01*
X13450Y42178D01*
X13652Y42165D01*
X38732Y42165D01*
X39625Y41272D01*
X39625Y12989D01*
X39627Y12966D01*
X39626Y12950D01*
X39628Y12944D01*
X39626Y12925D01*
X39648Y12786D01*
X39665Y12646D01*
X39676Y12615D01*
X39681Y12583D01*
X39734Y12453D01*
X39782Y12321D01*
X39800Y12294D01*
X39812Y12264D01*
X39894Y12149D01*
X39971Y12032D01*
X39994Y12009D01*
X40013Y11983D01*
X40119Y11890D01*
X40221Y11793D01*
X40249Y11777D01*
X40273Y11755D01*
X40398Y11690D01*
X40519Y11618D01*
X40550Y11609D01*
X40579Y11594D01*
X40715Y11558D01*
X40849Y11517D01*
X40882Y11514D01*
X40913Y11506D01*
X41116Y11491D01*
X47770Y11460D01*
X47810Y11465D01*
X47849Y11462D01*
X47981Y11484D01*
X48114Y11498D01*
X48151Y11512D01*
X48190Y11518D01*
X48313Y11570D01*
X48439Y11614D01*
X48473Y11636D01*
X48509Y11651D01*
X48617Y11729D01*
X48730Y11802D01*
X48757Y11830D01*
X48789Y11853D01*
X48877Y11954D01*
X48969Y12051D01*
X48989Y12085D01*
X49015Y12115D01*
X49077Y12233D01*
X49146Y12348D01*
X49157Y12386D01*
X49176Y12421D01*
X49209Y12550D01*
X49249Y12678D01*
X49252Y12717D01*
X49262Y12756D01*
X49275Y12958D01*
X49275Y41272D01*
X50168Y42165D01*
X76832Y42165D01*
X77725Y41272D01*
X77725Y12810D01*
X77728Y12778D01*
X77726Y12745D01*
X77748Y12607D01*
X77765Y12467D01*
X77776Y12436D01*
X77781Y12404D01*
X77834Y12274D01*
X77882Y12142D01*
X77900Y12115D01*
X77912Y12085D01*
X77994Y11970D01*
X78071Y11852D01*
X78094Y11830D01*
X78113Y11804D01*
X78219Y11711D01*
X78321Y11614D01*
X78349Y11597D01*
X78373Y11576D01*
X78498Y11510D01*
X78619Y11439D01*
X78650Y11430D01*
X78679Y11414D01*
X78815Y11379D01*
X78949Y11337D01*
X78982Y11335D01*
X79013Y11327D01*
X79216Y11312D01*
X85870Y11281D01*
X85910Y11285D01*
X85949Y11283D01*
X86081Y11304D01*
X86214Y11319D01*
X86251Y11332D01*
X86290Y11339D01*
X86413Y11390D01*
X86539Y11435D01*
X86573Y11457D01*
X86609Y11472D01*
X86717Y11550D01*
X86830Y11623D01*
X86857Y11651D01*
X86889Y11674D01*
X86977Y11775D01*
X87069Y11872D01*
X87089Y11906D01*
X87115Y11935D01*
X87177Y12054D01*
X87246Y12169D01*
X87257Y12207D01*
X87276Y12242D01*
X87309Y12371D01*
X87349Y12499D01*
X87352Y12538D01*
X87362Y12576D01*
X87375Y12779D01*
X87375Y41272D01*
X88268Y42165D01*
X114932Y42165D01*
X115825Y41272D01*
X115825Y12631D01*
X115828Y12599D01*
X115826Y12566D01*
X115848Y12427D01*
X115865Y12288D01*
X115876Y12257D01*
X115881Y12225D01*
X115934Y12095D01*
X115982Y11963D01*
X116000Y11935D01*
X116012Y11905D01*
X116094Y11791D01*
X116171Y11673D01*
X116194Y11651D01*
X116213Y11624D01*
X116319Y11532D01*
X116421Y11435D01*
X116449Y11418D01*
X116473Y11397D01*
X116598Y11331D01*
X116719Y11260D01*
X116750Y11250D01*
X116779Y11235D01*
X116915Y11200D01*
X117049Y11158D01*
X117082Y11156D01*
X117113Y11148D01*
X117316Y11133D01*
X123970Y11102D01*
X124010Y11106D01*
G37*
G36*
X352610Y10031D02*
X352610Y10031D01*
X352649Y10028D01*
X352781Y10050D01*
X352914Y10065D01*
X352951Y10078D01*
X352990Y10084D01*
X353113Y10136D01*
X353239Y10181D01*
X353273Y10202D01*
X353309Y10217D01*
X353417Y10295D01*
X353530Y10368D01*
X353557Y10397D01*
X353589Y10420D01*
X353676Y10521D01*
X353769Y10617D01*
X353790Y10651D01*
X353815Y10681D01*
X353877Y10799D01*
X353945Y10914D01*
X353957Y10952D01*
X353976Y10987D01*
X354009Y11116D01*
X354049Y11244D01*
X354052Y11284D01*
X354062Y11322D01*
X354075Y11524D01*
X354075Y37871D01*
X354069Y37927D01*
X354071Y37984D01*
X354049Y38098D01*
X354035Y38214D01*
X354016Y38267D01*
X354005Y38323D01*
X353931Y38512D01*
X343933Y59620D01*
X343905Y59663D01*
X343886Y59710D01*
X343814Y59809D01*
X343750Y59913D01*
X343713Y59949D01*
X343683Y59991D01*
X343591Y60070D01*
X343504Y60157D01*
X343461Y60183D01*
X343422Y60217D01*
X343314Y60273D01*
X343210Y60337D01*
X343161Y60353D01*
X343116Y60377D01*
X342998Y60407D01*
X342882Y60446D01*
X342831Y60450D01*
X342781Y60463D01*
X342579Y60477D01*
X225027Y60477D01*
X224993Y60473D01*
X224959Y60475D01*
X224822Y60453D01*
X224684Y60437D01*
X224652Y60425D01*
X224618Y60420D01*
X224489Y60367D01*
X224372Y60324D01*
X223410Y60462D01*
X223406Y60462D01*
X223401Y60463D01*
X223199Y60477D01*
X222220Y60477D01*
X222177Y60511D01*
X222146Y60526D01*
X222118Y60546D01*
X221990Y60599D01*
X221877Y60652D01*
X221294Y61429D01*
X221291Y61432D01*
X221288Y61437D01*
X221155Y61589D01*
X220463Y62281D01*
X220457Y62336D01*
X220445Y62368D01*
X220440Y62402D01*
X220387Y62530D01*
X220339Y62661D01*
X220321Y62690D01*
X220308Y62722D01*
X220197Y62892D01*
X214749Y70155D01*
X214726Y70180D01*
X214707Y70209D01*
X214607Y70305D01*
X214511Y70406D01*
X214483Y70425D01*
X214458Y70448D01*
X214339Y70519D01*
X214222Y70596D01*
X214190Y70607D01*
X214161Y70625D01*
X214029Y70666D01*
X213898Y70714D01*
X213864Y70718D01*
X213831Y70728D01*
X213630Y70752D01*
X209222Y70986D01*
X209146Y70981D01*
X209071Y70986D01*
X208974Y70970D01*
X208877Y70964D01*
X208804Y70942D01*
X208730Y70930D01*
X208640Y70892D01*
X208546Y70864D01*
X208481Y70826D01*
X208411Y70797D01*
X208332Y70739D01*
X208247Y70690D01*
X208192Y70639D01*
X208131Y70594D01*
X208067Y70520D01*
X207996Y70453D01*
X207954Y70390D01*
X207905Y70333D01*
X207859Y70246D01*
X207805Y70165D01*
X207779Y70094D01*
X207744Y70027D01*
X207720Y69932D01*
X207686Y69840D01*
X207677Y69765D01*
X207658Y69692D01*
X207646Y69506D01*
X207645Y69497D01*
X207645Y69495D01*
X207645Y69490D01*
X207645Y56468D01*
X206752Y55575D01*
X188888Y55575D01*
X188732Y55557D01*
X188576Y55543D01*
X188561Y55537D01*
X188544Y55535D01*
X188397Y55482D01*
X188249Y55432D01*
X188235Y55424D01*
X188219Y55418D01*
X188088Y55332D01*
X187955Y55250D01*
X187944Y55238D01*
X187930Y55229D01*
X187822Y55116D01*
X187712Y55005D01*
X187703Y54991D01*
X187691Y54979D01*
X187612Y54843D01*
X187530Y54711D01*
X187525Y54695D01*
X187517Y54681D01*
X187470Y54531D01*
X187421Y54383D01*
X187420Y54366D01*
X187415Y54351D01*
X187404Y54195D01*
X187390Y54039D01*
X187393Y54022D01*
X187392Y54006D01*
X187417Y53852D01*
X187439Y53696D01*
X187446Y53676D01*
X187448Y53665D01*
X187458Y53640D01*
X187504Y53504D01*
X188187Y51856D01*
X188187Y49744D01*
X187588Y48300D01*
X187546Y48150D01*
X187499Y48000D01*
X187498Y47983D01*
X187494Y47967D01*
X187487Y47811D01*
X187476Y47655D01*
X187479Y47639D01*
X187478Y47622D01*
X187507Y47468D01*
X187532Y47314D01*
X187539Y47299D01*
X187542Y47283D01*
X187605Y47139D01*
X187665Y46995D01*
X187675Y46982D01*
X187681Y46966D01*
X187776Y46841D01*
X187868Y46715D01*
X187880Y46704D01*
X187890Y46691D01*
X188011Y46591D01*
X188129Y46489D01*
X188143Y46481D01*
X188156Y46470D01*
X188297Y46401D01*
X188435Y46328D01*
X188451Y46324D01*
X188466Y46317D01*
X188619Y46281D01*
X188770Y46242D01*
X188791Y46241D01*
X188802Y46238D01*
X188829Y46238D01*
X188972Y46229D01*
X269015Y46229D01*
X272289Y42955D01*
X272289Y39624D01*
X272305Y39485D01*
X272315Y39345D01*
X272325Y39313D01*
X272329Y39281D01*
X272376Y39149D01*
X272418Y39015D01*
X272435Y38987D01*
X272446Y38956D01*
X272523Y38838D01*
X272594Y38718D01*
X272623Y38684D01*
X272635Y38666D01*
X272659Y38644D01*
X272727Y38565D01*
X275318Y35974D01*
X275400Y35909D01*
X275476Y35837D01*
X275535Y35802D01*
X275589Y35759D01*
X275684Y35715D01*
X275774Y35662D01*
X275840Y35642D01*
X275902Y35613D01*
X276004Y35591D01*
X276104Y35560D01*
X276173Y35556D01*
X276240Y35542D01*
X276345Y35544D01*
X276449Y35537D01*
X276517Y35548D01*
X276586Y35550D01*
X276687Y35576D01*
X276790Y35593D01*
X276854Y35620D01*
X276920Y35637D01*
X277013Y35686D01*
X277109Y35726D01*
X277165Y35766D01*
X277226Y35799D01*
X277304Y35867D01*
X277389Y35929D01*
X277434Y35981D01*
X277486Y36026D01*
X277547Y36111D01*
X277615Y36190D01*
X277647Y36251D01*
X277687Y36307D01*
X277727Y36403D01*
X277776Y36496D01*
X277793Y36563D01*
X277819Y36626D01*
X277836Y36730D01*
X277862Y36831D01*
X277869Y36935D01*
X277874Y36968D01*
X277872Y36989D01*
X277875Y37033D01*
X277875Y41272D01*
X278768Y42165D01*
X305432Y42165D01*
X306325Y41272D01*
X306325Y11735D01*
X306328Y11702D01*
X306326Y11670D01*
X306348Y11531D01*
X306365Y11391D01*
X306376Y11361D01*
X306381Y11329D01*
X306434Y11199D01*
X306482Y11066D01*
X306500Y11039D01*
X306512Y11009D01*
X306594Y10895D01*
X306671Y10777D01*
X306694Y10755D01*
X306713Y10728D01*
X306819Y10636D01*
X306921Y10539D01*
X306949Y10522D01*
X306973Y10501D01*
X307098Y10435D01*
X307219Y10364D01*
X307250Y10354D01*
X307279Y10339D01*
X307415Y10303D01*
X307549Y10262D01*
X307582Y10260D01*
X307613Y10252D01*
X307816Y10237D01*
X313454Y10210D01*
X313494Y10215D01*
X313533Y10212D01*
X313665Y10234D01*
X313798Y10249D01*
X313835Y10262D01*
X313874Y10268D01*
X313997Y10320D01*
X314123Y10365D01*
X314157Y10386D01*
X314193Y10401D01*
X314301Y10479D01*
X314414Y10552D01*
X314441Y10581D01*
X314473Y10604D01*
X314560Y10705D01*
X314653Y10801D01*
X314674Y10835D01*
X314699Y10865D01*
X314761Y10983D01*
X314829Y11098D01*
X314841Y11136D01*
X314860Y11171D01*
X314893Y11300D01*
X314933Y11428D01*
X314936Y11468D01*
X314946Y11506D01*
X314959Y11708D01*
X314959Y12244D01*
X328701Y12244D01*
X328737Y12248D01*
X328773Y12245D01*
X328908Y12268D01*
X329045Y12283D01*
X329078Y12296D01*
X329114Y12302D01*
X329240Y12354D01*
X329370Y12401D01*
X329400Y12421D01*
X329433Y12434D01*
X329544Y12515D01*
X329659Y12590D01*
X329684Y12616D01*
X329713Y12637D01*
X329803Y12740D01*
X329897Y12840D01*
X329916Y12871D01*
X329939Y12898D01*
X330003Y13020D01*
X330072Y13138D01*
X330083Y13173D01*
X330100Y13204D01*
X330134Y13337D01*
X330174Y13468D01*
X330176Y13504D01*
X330185Y13539D01*
X330199Y13741D01*
X330199Y15241D01*
X330201Y15241D01*
X330201Y13741D01*
X330205Y13706D01*
X330203Y13670D01*
X330225Y13534D01*
X330241Y13398D01*
X330253Y13364D01*
X330259Y13329D01*
X330312Y13202D01*
X330358Y13073D01*
X330378Y13043D01*
X330392Y13010D01*
X330472Y12899D01*
X330547Y12784D01*
X330573Y12759D01*
X330594Y12730D01*
X330698Y12640D01*
X330797Y12545D01*
X330828Y12527D01*
X330855Y12504D01*
X330977Y12440D01*
X331095Y12371D01*
X331130Y12360D01*
X331162Y12343D01*
X331294Y12309D01*
X331426Y12269D01*
X331461Y12266D01*
X331496Y12257D01*
X331699Y12244D01*
X345441Y12244D01*
X345441Y11551D01*
X345444Y11518D01*
X345442Y11486D01*
X345464Y11347D01*
X345481Y11207D01*
X345492Y11177D01*
X345497Y11145D01*
X345550Y11015D01*
X345598Y10882D01*
X345616Y10855D01*
X345628Y10825D01*
X345710Y10711D01*
X345787Y10593D01*
X345810Y10571D01*
X345829Y10544D01*
X345935Y10452D01*
X346037Y10355D01*
X346065Y10338D01*
X346089Y10317D01*
X346214Y10251D01*
X346335Y10180D01*
X346366Y10170D01*
X346395Y10155D01*
X346531Y10119D01*
X346665Y10078D01*
X346698Y10076D01*
X346729Y10068D01*
X346932Y10053D01*
X352570Y10026D01*
X352610Y10031D01*
G37*
G36*
X145587Y98643D02*
X145587Y98643D01*
X145639Y98640D01*
X145758Y98659D01*
X145878Y98671D01*
X145928Y98688D01*
X145980Y98696D01*
X146091Y98742D01*
X146206Y98781D01*
X146251Y98809D01*
X146299Y98829D01*
X146397Y98900D01*
X146500Y98963D01*
X146537Y99001D01*
X146579Y99031D01*
X146658Y99122D01*
X146743Y99208D01*
X146771Y99253D01*
X146805Y99293D01*
X146861Y99400D01*
X146925Y99502D01*
X146941Y99552D01*
X146966Y99599D01*
X146996Y99716D01*
X147034Y99830D01*
X147038Y99883D01*
X147052Y99934D01*
X147065Y100136D01*
X147065Y158242D01*
X147049Y158381D01*
X147039Y158521D01*
X147029Y158553D01*
X147025Y158585D01*
X146978Y158717D01*
X146936Y158851D01*
X146919Y158879D01*
X146908Y158910D01*
X146831Y159028D01*
X146760Y159148D01*
X146731Y159182D01*
X146719Y159200D01*
X146695Y159222D01*
X146627Y159301D01*
X139278Y166650D01*
X139150Y166751D01*
X139024Y166854D01*
X139015Y166858D01*
X139007Y166864D01*
X138859Y166934D01*
X138713Y167005D01*
X138703Y167007D01*
X138694Y167011D01*
X138534Y167045D01*
X138376Y167080D01*
X138366Y167080D01*
X138356Y167082D01*
X138193Y167078D01*
X138030Y167077D01*
X138017Y167074D01*
X138010Y167074D01*
X137991Y167069D01*
X137831Y167038D01*
X137148Y166855D01*
X116014Y179056D01*
X116000Y179062D01*
X115988Y179071D01*
X115841Y179131D01*
X115697Y179193D01*
X115682Y179196D01*
X115668Y179202D01*
X115511Y179226D01*
X115357Y179254D01*
X115342Y179253D01*
X115327Y179256D01*
X115169Y179244D01*
X115012Y179235D01*
X114997Y179231D01*
X114982Y179230D01*
X114831Y179182D01*
X114680Y179138D01*
X114667Y179130D01*
X114652Y179126D01*
X114517Y179045D01*
X114380Y178967D01*
X114368Y178957D01*
X114355Y178949D01*
X114242Y178839D01*
X114126Y178732D01*
X114118Y178719D01*
X114107Y178709D01*
X113989Y178544D01*
X113081Y177067D01*
X113057Y177016D01*
X113026Y176968D01*
X113009Y176925D01*
X112989Y176890D01*
X112969Y176827D01*
X112935Y176754D01*
X112924Y176698D01*
X112904Y176645D01*
X112897Y176592D01*
X112887Y176560D01*
X112883Y176503D01*
X112865Y176415D01*
X112867Y176359D01*
X112859Y176302D01*
X112866Y176242D01*
X112864Y176215D01*
X112872Y176167D01*
X112874Y176070D01*
X112889Y176015D01*
X112895Y175959D01*
X112917Y175895D01*
X112920Y175874D01*
X112936Y175835D01*
X112963Y175736D01*
X112989Y175686D01*
X113008Y175632D01*
X113046Y175571D01*
X113053Y175555D01*
X113075Y175526D01*
X113125Y175431D01*
X113162Y175388D01*
X113193Y175340D01*
X113247Y175287D01*
X113255Y175275D01*
X113280Y175254D01*
X113353Y175171D01*
X113399Y175138D01*
X113440Y175098D01*
X113608Y174985D01*
X134863Y162714D01*
X135190Y161494D01*
X128262Y149494D01*
X128256Y149482D01*
X128249Y149471D01*
X128188Y149323D01*
X128124Y149177D01*
X128122Y149164D01*
X128117Y149152D01*
X128092Y148993D01*
X128064Y148837D01*
X128064Y148824D01*
X128062Y148811D01*
X128074Y148650D01*
X128083Y148491D01*
X128086Y148479D01*
X128087Y148466D01*
X128135Y148313D01*
X128180Y148160D01*
X128186Y148149D01*
X128190Y148136D01*
X128272Y147999D01*
X128351Y147859D01*
X128360Y147850D01*
X128366Y147839D01*
X128500Y147686D01*
X129660Y146525D01*
X129660Y138661D01*
X127922Y136923D01*
X127835Y136813D01*
X127743Y136707D01*
X127728Y136678D01*
X127707Y136652D01*
X127648Y136525D01*
X127583Y136401D01*
X127575Y136369D01*
X127561Y136339D01*
X127532Y136201D01*
X127521Y136160D01*
X127508Y136118D01*
X127508Y136107D01*
X127497Y136066D01*
X127494Y136022D01*
X127490Y136001D01*
X127490Y135968D01*
X127483Y135863D01*
X127483Y114143D01*
X127487Y114107D01*
X127485Y114071D01*
X127507Y113936D01*
X127523Y113799D01*
X127535Y113765D01*
X127541Y113730D01*
X127594Y113603D01*
X127641Y113474D01*
X127660Y113444D01*
X127674Y113411D01*
X127754Y113300D01*
X127830Y113185D01*
X127856Y113160D01*
X127877Y113131D01*
X127980Y113041D01*
X128080Y112946D01*
X128111Y112928D01*
X128138Y112905D01*
X128259Y112841D01*
X128378Y112772D01*
X128412Y112761D01*
X128444Y112744D01*
X128577Y112710D01*
X128708Y112670D01*
X128744Y112667D01*
X128779Y112658D01*
X128981Y112645D01*
X134107Y112645D01*
X135000Y111752D01*
X135000Y102559D01*
X135018Y102403D01*
X135032Y102247D01*
X135038Y102232D01*
X135040Y102215D01*
X135093Y102068D01*
X135143Y101920D01*
X135151Y101906D01*
X135157Y101890D01*
X135243Y101759D01*
X135325Y101626D01*
X135337Y101615D01*
X135346Y101601D01*
X135459Y101493D01*
X135570Y101383D01*
X135584Y101374D01*
X135596Y101363D01*
X135732Y101283D01*
X135864Y101201D01*
X135880Y101196D01*
X135894Y101188D01*
X136044Y101142D01*
X136192Y101092D01*
X136209Y101091D01*
X136224Y101086D01*
X136380Y101075D01*
X136536Y101061D01*
X136553Y101064D01*
X136569Y101063D01*
X136723Y101088D01*
X136879Y101110D01*
X136899Y101117D01*
X136910Y101119D01*
X136935Y101129D01*
X137071Y101175D01*
X138644Y101827D01*
X140756Y101827D01*
X142706Y101019D01*
X144210Y99515D01*
X144227Y99468D01*
X144293Y99367D01*
X144352Y99261D01*
X144387Y99222D01*
X144416Y99178D01*
X144503Y99095D01*
X144585Y99006D01*
X144628Y98976D01*
X144666Y98940D01*
X144770Y98879D01*
X144870Y98810D01*
X144919Y98792D01*
X144964Y98765D01*
X145079Y98729D01*
X145192Y98686D01*
X145244Y98679D01*
X145294Y98663D01*
X145415Y98655D01*
X145534Y98638D01*
X145587Y98643D01*
G37*
%LPC*%
G36*
X333196Y18236D02*
X333196Y18236D01*
X333196Y43181D01*
X343234Y43181D01*
X343881Y43008D01*
X344460Y42673D01*
X344933Y42200D01*
X345268Y41621D01*
X345441Y40974D01*
X345441Y18236D01*
X333196Y18236D01*
G37*
%LPD*%
%LPC*%
G36*
X314959Y18236D02*
X314959Y18236D01*
X314959Y40974D01*
X315132Y41621D01*
X315467Y42200D01*
X315940Y42673D01*
X316519Y43008D01*
X317166Y43181D01*
X327204Y43181D01*
X327204Y18236D01*
X314959Y18236D01*
G37*
%LPD*%
G36*
X111384Y143845D02*
X111384Y143845D01*
X111521Y143852D01*
X111555Y143863D01*
X111591Y143866D01*
X111721Y143911D01*
X111852Y143950D01*
X111883Y143968D01*
X111917Y143979D01*
X112033Y144053D01*
X112153Y144121D01*
X112179Y144145D01*
X112209Y144164D01*
X112305Y144262D01*
X112406Y144356D01*
X112426Y144386D01*
X112451Y144411D01*
X112564Y144580D01*
X116156Y150801D01*
X116203Y150908D01*
X116257Y151013D01*
X116271Y151067D01*
X116293Y151118D01*
X116314Y151234D01*
X116343Y151347D01*
X116348Y151427D01*
X116354Y151458D01*
X116352Y151486D01*
X116357Y151550D01*
X116357Y154348D01*
X116338Y154509D01*
X116321Y154672D01*
X116318Y154681D01*
X116317Y154691D01*
X116261Y154845D01*
X116208Y154998D01*
X116203Y155007D01*
X116199Y155016D01*
X116110Y155153D01*
X116023Y155290D01*
X116016Y155297D01*
X116010Y155306D01*
X115894Y155417D01*
X115776Y155532D01*
X115765Y155539D01*
X115760Y155544D01*
X115743Y155554D01*
X115608Y155645D01*
X105284Y161606D01*
X105270Y161612D01*
X105257Y161620D01*
X105111Y161680D01*
X104966Y161743D01*
X104952Y161745D01*
X104937Y161751D01*
X104781Y161776D01*
X104626Y161803D01*
X104611Y161803D01*
X104596Y161805D01*
X104438Y161793D01*
X104281Y161785D01*
X104267Y161780D01*
X104251Y161779D01*
X104101Y161732D01*
X103950Y161687D01*
X103936Y161680D01*
X103922Y161675D01*
X103787Y161594D01*
X103649Y161516D01*
X103638Y161506D01*
X103625Y161498D01*
X103511Y161388D01*
X103396Y161281D01*
X103387Y161269D01*
X103377Y161258D01*
X103259Y161093D01*
X102883Y160482D01*
X102859Y160431D01*
X102828Y160384D01*
X102787Y160275D01*
X102737Y160169D01*
X102726Y160113D01*
X102706Y160060D01*
X102691Y159945D01*
X102667Y159830D01*
X102669Y159774D01*
X102661Y159717D01*
X102673Y159602D01*
X102676Y159485D01*
X102691Y159430D01*
X102697Y159374D01*
X102735Y159264D01*
X102765Y159151D01*
X102791Y159101D01*
X102810Y159047D01*
X102872Y158949D01*
X102927Y158846D01*
X102965Y158803D01*
X102995Y158755D01*
X103078Y158674D01*
X103155Y158586D01*
X103201Y158553D01*
X103242Y158514D01*
X103410Y158400D01*
X111070Y153978D01*
X107374Y147576D01*
X107360Y147543D01*
X107340Y147513D01*
X107292Y147385D01*
X107237Y147259D01*
X107231Y147223D01*
X107218Y147190D01*
X107201Y147054D01*
X107177Y146919D01*
X107178Y146883D01*
X107174Y146847D01*
X107188Y146710D01*
X107195Y146574D01*
X107205Y146539D01*
X107209Y146503D01*
X107254Y146374D01*
X107293Y146242D01*
X107311Y146211D01*
X107322Y146177D01*
X107396Y146061D01*
X107464Y145942D01*
X107488Y145915D01*
X107507Y145885D01*
X107605Y145789D01*
X107699Y145688D01*
X107728Y145668D01*
X107754Y145643D01*
X107923Y145530D01*
X110518Y144031D01*
X110551Y144017D01*
X110581Y143997D01*
X110709Y143949D01*
X110835Y143894D01*
X110871Y143888D01*
X110904Y143875D01*
X111041Y143858D01*
X111176Y143834D01*
X111211Y143836D01*
X111247Y143831D01*
X111384Y143845D01*
G37*
D10*
X25400Y15240D03*
X63500Y15240D03*
X101600Y15240D03*
X139700Y15240D03*
X177800Y15240D03*
X215900Y15240D03*
X254000Y15240D03*
X292100Y15240D03*
X330200Y15240D03*
X368300Y15240D03*
D11*
X198120Y128600D03*
X198120Y74600D03*
D12*
G36*
X143713Y179490D02*
X137363Y168491D01*
X115367Y181190D01*
X121717Y192189D01*
X143713Y179490D01*
G37*
G36*
X153873Y197270D02*
X147523Y186271D01*
X125527Y198970D01*
X131877Y209969D01*
X153873Y197270D01*
G37*
G36*
X133553Y161710D02*
X127203Y150711D01*
X105207Y163410D01*
X111557Y174409D01*
X133553Y161710D01*
G37*
G36*
X123393Y143930D02*
X117043Y132931D01*
X95047Y145630D01*
X101397Y156629D01*
X123393Y143930D01*
G37*
D13*
X124460Y103120D03*
X124460Y74680D03*
D14*
X195580Y157480D02*
X139700Y198120D01*
X195580Y157480D02*
X198120Y128600D01*
X198120Y74600D02*
X215900Y73660D01*
X223520Y63500D01*
X345440Y63500D02*
X368300Y15240D01*
X345440Y63500D02*
X223520Y63500D01*
D15*
X149860Y160020D02*
X129540Y180340D01*
X149860Y160020D02*
X149860Y73660D01*
X147320Y71120D01*
D16*
X147320Y71120D03*
X53340Y55880D03*
X76200Y106680D03*
X106680Y121920D03*
X96520Y58420D03*
X297180Y53340D03*
X325120Y88900D03*
X177800Y157480D03*
X190500Y175260D03*
X137160Y121920D03*
D15*
X267857Y43434D02*
X269494Y41797D01*
X155706Y43434D02*
X124460Y74680D01*
X269494Y41797D02*
X269494Y37846D01*
X292100Y15240D01*
X267857Y43434D02*
X155706Y43434D01*
D14*
X119380Y152530D02*
X119380Y162560D01*
X119380Y152530D02*
X126637Y145273D01*
X126637Y139913D01*
X124460Y137736D01*
X124460Y103120D01*
D15*
X131060Y96520D01*
X139700Y96520D01*
D16*
X139700Y96520D03*
X180340Y96520D03*
D15*
X182880Y93980D01*
X182880Y50800D01*
D16*
X182880Y50800D03*
M02*
