G04 EAGLE Gerber RS-274X export*
G75*
%MOMM*%
%FSLAX34Y34*%
%LPD*%
%INBottom Silkscreen*%
%IPPOS*%
%AMOC8*
5,1,8,0,0,1.08239X$1,22.5*%
G01*
%ADD10C,0.152400*%
%ADD11C,0.203200*%
%ADD12C,0.101600*%


D10*
X0Y43180D02*
X30480Y43180D01*
X30480Y-12700D01*
X0Y-12700D01*
X0Y43180D01*
X38100Y43180D02*
X68580Y43180D01*
X68580Y-12700D01*
X38100Y-12700D01*
X38100Y43180D01*
X76200Y43180D02*
X106680Y43180D01*
X106680Y-12700D01*
X76200Y-12700D01*
X76200Y43180D01*
X114300Y43180D02*
X144780Y43180D01*
X144780Y-12700D01*
X114300Y-12700D01*
X114300Y43180D01*
X152400Y43180D02*
X182880Y43180D01*
X182880Y-12700D01*
X152400Y-12700D01*
X152400Y43180D01*
X190500Y43180D02*
X220980Y43180D01*
X220980Y-12700D01*
X190500Y-12700D01*
X190500Y43180D01*
X228600Y43180D02*
X259080Y43180D01*
X259080Y-12700D01*
X228600Y-12700D01*
X228600Y43180D01*
X266700Y43180D02*
X297180Y43180D01*
X297180Y-12700D01*
X266700Y-12700D01*
X266700Y43180D01*
X304800Y43180D02*
X335280Y43180D01*
X335280Y-12700D01*
X304800Y-12700D01*
X304800Y43180D01*
X340360Y43180D02*
X370840Y43180D01*
X370840Y-12700D01*
X340360Y-12700D01*
X340360Y43180D01*
D11*
X132100Y68600D02*
X132100Y125600D01*
X132100Y68600D02*
X154100Y68600D01*
X176100Y68600D02*
X198100Y68600D01*
X198100Y125600D01*
X189100Y134600D02*
X176100Y134600D01*
X154100Y134600D02*
X141100Y134600D01*
X132100Y125600D01*
X189100Y134600D02*
X198100Y125600D01*
X155600Y131099D02*
X154886Y130859D01*
X154178Y130602D01*
X153477Y130327D01*
X152782Y130035D01*
X152095Y129727D01*
X151416Y129402D01*
X150744Y129060D01*
X150082Y128702D01*
X149428Y128328D01*
X148783Y127939D01*
X148148Y127533D01*
X147523Y127113D01*
X146909Y126677D01*
X146305Y126226D01*
X145713Y125761D01*
X145132Y125282D01*
X144563Y124788D01*
X144006Y124281D01*
X143461Y123760D01*
X142930Y123227D01*
X142411Y122680D01*
X141907Y122121D01*
X141415Y121550D01*
X140938Y120967D01*
X140476Y120373D01*
X140027Y119767D01*
X139594Y119151D01*
X139176Y118525D01*
X138773Y117888D01*
X138386Y117242D01*
X138015Y116587D01*
X137660Y115922D01*
X137321Y115250D01*
X136999Y114569D01*
X136693Y113880D01*
X136404Y113185D01*
X136132Y112482D01*
X135878Y111773D01*
X135640Y111058D01*
X135421Y110338D01*
X135218Y109612D01*
X135034Y108882D01*
X134867Y108147D01*
X134719Y107409D01*
X134588Y106667D01*
X134476Y105922D01*
X134381Y105175D01*
X134305Y104425D01*
X134248Y103674D01*
X134208Y102922D01*
X134187Y102169D01*
X134184Y101416D01*
X134200Y100663D01*
X134234Y99910D01*
X134286Y99159D01*
X134356Y98409D01*
X134445Y97661D01*
X134552Y96915D01*
X134677Y96173D01*
X134820Y95433D01*
X134981Y94697D01*
X135160Y93966D01*
X135357Y93238D01*
X135572Y92516D01*
X135804Y91800D01*
X136053Y91089D01*
X136320Y90384D01*
X136603Y89687D01*
X136904Y88996D01*
X137221Y88313D01*
X137555Y87638D01*
X137905Y86971D01*
X138272Y86313D01*
X138654Y85664D01*
X139052Y85024D01*
X139465Y84394D01*
X139894Y83775D01*
X140338Y83166D01*
X140796Y82568D01*
X141269Y81982D01*
X141756Y81407D01*
X142256Y80845D01*
X142771Y80294D01*
X143298Y79757D01*
X143839Y79232D01*
X144392Y78721D01*
X144957Y78223D01*
X145535Y77739D01*
X146124Y77270D01*
X146724Y76815D01*
X147335Y76374D01*
X147957Y75949D01*
X148589Y75539D01*
X149230Y75145D01*
X149882Y74766D01*
X150542Y74403D01*
X151211Y74057D01*
X151888Y73726D01*
X152572Y73413D01*
X153265Y73116D01*
X153964Y72836D01*
X154670Y72573D01*
X155382Y72328D01*
X156100Y72100D01*
X174600Y72101D02*
X175314Y72341D01*
X176022Y72598D01*
X176723Y72873D01*
X177418Y73165D01*
X178105Y73473D01*
X178784Y73798D01*
X179456Y74140D01*
X180118Y74498D01*
X180772Y74872D01*
X181417Y75261D01*
X182052Y75667D01*
X182677Y76087D01*
X183291Y76523D01*
X183895Y76974D01*
X184487Y77439D01*
X185068Y77918D01*
X185637Y78412D01*
X186194Y78919D01*
X186739Y79440D01*
X187270Y79973D01*
X187789Y80520D01*
X188293Y81079D01*
X188785Y81650D01*
X189262Y82233D01*
X189724Y82827D01*
X190173Y83433D01*
X190606Y84049D01*
X191024Y84675D01*
X191427Y85312D01*
X191814Y85958D01*
X192185Y86613D01*
X192540Y87278D01*
X192879Y87950D01*
X193201Y88631D01*
X193507Y89320D01*
X193796Y90015D01*
X194068Y90718D01*
X194322Y91427D01*
X194560Y92142D01*
X194779Y92862D01*
X194982Y93588D01*
X195166Y94318D01*
X195333Y95053D01*
X195481Y95791D01*
X195612Y96533D01*
X195724Y97278D01*
X195819Y98025D01*
X195895Y98775D01*
X195952Y99526D01*
X195992Y100278D01*
X196013Y101031D01*
X196016Y101784D01*
X196000Y102537D01*
X195966Y103290D01*
X195914Y104041D01*
X195844Y104791D01*
X195755Y105539D01*
X195648Y106285D01*
X195523Y107027D01*
X195380Y107767D01*
X195219Y108503D01*
X195040Y109234D01*
X194843Y109962D01*
X194628Y110684D01*
X194396Y111400D01*
X194147Y112111D01*
X193880Y112816D01*
X193597Y113513D01*
X193296Y114204D01*
X192979Y114887D01*
X192645Y115562D01*
X192295Y116229D01*
X191928Y116887D01*
X191546Y117536D01*
X191148Y118176D01*
X190735Y118806D01*
X190306Y119425D01*
X189862Y120034D01*
X189404Y120632D01*
X188931Y121218D01*
X188444Y121793D01*
X187944Y122355D01*
X187429Y122906D01*
X186902Y123443D01*
X186361Y123968D01*
X185808Y124479D01*
X185243Y124977D01*
X184665Y125461D01*
X184076Y125930D01*
X183476Y126385D01*
X182865Y126826D01*
X182243Y127251D01*
X181611Y127661D01*
X180970Y128055D01*
X180318Y128434D01*
X179658Y128797D01*
X178989Y129143D01*
X178312Y129474D01*
X177628Y129787D01*
X176935Y130084D01*
X176236Y130364D01*
X175530Y130627D01*
X174818Y130872D01*
X174100Y131100D01*
D12*
X201908Y73401D02*
X201908Y70804D01*
X201910Y70705D01*
X201916Y70605D01*
X201925Y70506D01*
X201938Y70408D01*
X201955Y70310D01*
X201976Y70212D01*
X202001Y70116D01*
X202029Y70021D01*
X202061Y69927D01*
X202096Y69834D01*
X202135Y69742D01*
X202178Y69652D01*
X202223Y69564D01*
X202273Y69477D01*
X202325Y69393D01*
X202381Y69310D01*
X202439Y69230D01*
X202501Y69152D01*
X202566Y69077D01*
X202634Y69004D01*
X202704Y68934D01*
X202777Y68866D01*
X202852Y68801D01*
X202930Y68739D01*
X203010Y68681D01*
X203093Y68625D01*
X203177Y68573D01*
X203264Y68523D01*
X203352Y68478D01*
X203442Y68435D01*
X203534Y68396D01*
X203627Y68361D01*
X203721Y68329D01*
X203816Y68301D01*
X203912Y68276D01*
X204010Y68255D01*
X204108Y68238D01*
X204206Y68225D01*
X204305Y68216D01*
X204405Y68210D01*
X204504Y68208D01*
X210996Y68208D01*
X211095Y68210D01*
X211195Y68216D01*
X211294Y68225D01*
X211392Y68238D01*
X211490Y68255D01*
X211588Y68276D01*
X211684Y68301D01*
X211779Y68329D01*
X211873Y68361D01*
X211966Y68396D01*
X212058Y68435D01*
X212148Y68478D01*
X212236Y68523D01*
X212323Y68573D01*
X212407Y68625D01*
X212490Y68681D01*
X212570Y68739D01*
X212648Y68801D01*
X212723Y68866D01*
X212796Y68934D01*
X212866Y69004D01*
X212934Y69077D01*
X212999Y69152D01*
X213061Y69230D01*
X213119Y69310D01*
X213175Y69393D01*
X213227Y69477D01*
X213277Y69564D01*
X213322Y69652D01*
X213365Y69742D01*
X213404Y69834D01*
X213439Y69926D01*
X213471Y70021D01*
X213499Y70116D01*
X213524Y70212D01*
X213545Y70310D01*
X213562Y70408D01*
X213575Y70506D01*
X213584Y70605D01*
X213590Y70705D01*
X213592Y70804D01*
X213592Y73401D01*
X213592Y81336D02*
X213590Y81443D01*
X213584Y81549D01*
X213574Y81655D01*
X213561Y81761D01*
X213543Y81867D01*
X213522Y81971D01*
X213497Y82075D01*
X213468Y82178D01*
X213436Y82279D01*
X213399Y82379D01*
X213359Y82478D01*
X213316Y82576D01*
X213269Y82672D01*
X213218Y82766D01*
X213164Y82858D01*
X213107Y82948D01*
X213047Y83036D01*
X212983Y83121D01*
X212916Y83204D01*
X212846Y83285D01*
X212774Y83363D01*
X212698Y83439D01*
X212620Y83511D01*
X212539Y83581D01*
X212456Y83648D01*
X212371Y83712D01*
X212283Y83772D01*
X212193Y83829D01*
X212101Y83883D01*
X212007Y83934D01*
X211911Y83981D01*
X211813Y84024D01*
X211714Y84064D01*
X211614Y84101D01*
X211513Y84133D01*
X211410Y84162D01*
X211306Y84187D01*
X211202Y84208D01*
X211096Y84226D01*
X210990Y84239D01*
X210884Y84249D01*
X210778Y84255D01*
X210671Y84257D01*
X213592Y81336D02*
X213590Y81215D01*
X213584Y81094D01*
X213574Y80974D01*
X213561Y80853D01*
X213543Y80734D01*
X213522Y80614D01*
X213497Y80496D01*
X213468Y80379D01*
X213435Y80262D01*
X213399Y80147D01*
X213358Y80033D01*
X213315Y79920D01*
X213267Y79808D01*
X213216Y79699D01*
X213161Y79591D01*
X213103Y79484D01*
X213042Y79380D01*
X212977Y79278D01*
X212909Y79178D01*
X212838Y79080D01*
X212764Y78984D01*
X212687Y78891D01*
X212606Y78801D01*
X212523Y78713D01*
X212437Y78628D01*
X212348Y78545D01*
X212257Y78466D01*
X212163Y78389D01*
X212067Y78316D01*
X211969Y78246D01*
X211868Y78179D01*
X211765Y78115D01*
X211660Y78055D01*
X211553Y77998D01*
X211445Y77944D01*
X211335Y77894D01*
X211223Y77848D01*
X211110Y77805D01*
X210995Y77766D01*
X208399Y83284D02*
X208476Y83363D01*
X208557Y83439D01*
X208640Y83512D01*
X208725Y83582D01*
X208813Y83649D01*
X208903Y83713D01*
X208995Y83773D01*
X209090Y83830D01*
X209186Y83884D01*
X209284Y83935D01*
X209384Y83982D01*
X209486Y84026D01*
X209589Y84066D01*
X209693Y84102D01*
X209799Y84134D01*
X209905Y84163D01*
X210013Y84188D01*
X210121Y84210D01*
X210231Y84227D01*
X210340Y84241D01*
X210450Y84250D01*
X210561Y84256D01*
X210671Y84258D01*
X208399Y83284D02*
X201908Y77766D01*
X201908Y84257D01*
D11*
X200680Y68600D02*
X200680Y125600D01*
X200680Y68600D02*
X222680Y68600D01*
X244680Y68600D02*
X266680Y68600D01*
X266680Y125600D01*
X257680Y134600D02*
X244680Y134600D01*
X222680Y134600D02*
X209680Y134600D01*
X200680Y125600D01*
X257680Y134600D02*
X266680Y125600D01*
X224180Y131099D02*
X223466Y130859D01*
X222758Y130602D01*
X222057Y130327D01*
X221362Y130035D01*
X220675Y129727D01*
X219996Y129402D01*
X219324Y129060D01*
X218662Y128702D01*
X218008Y128328D01*
X217363Y127939D01*
X216728Y127533D01*
X216103Y127113D01*
X215489Y126677D01*
X214885Y126226D01*
X214293Y125761D01*
X213712Y125282D01*
X213143Y124788D01*
X212586Y124281D01*
X212041Y123760D01*
X211510Y123227D01*
X210991Y122680D01*
X210487Y122121D01*
X209995Y121550D01*
X209518Y120967D01*
X209056Y120373D01*
X208607Y119767D01*
X208174Y119151D01*
X207756Y118525D01*
X207353Y117888D01*
X206966Y117242D01*
X206595Y116587D01*
X206240Y115922D01*
X205901Y115250D01*
X205579Y114569D01*
X205273Y113880D01*
X204984Y113185D01*
X204712Y112482D01*
X204458Y111773D01*
X204220Y111058D01*
X204001Y110338D01*
X203798Y109612D01*
X203614Y108882D01*
X203447Y108147D01*
X203299Y107409D01*
X203168Y106667D01*
X203056Y105922D01*
X202961Y105175D01*
X202885Y104425D01*
X202828Y103674D01*
X202788Y102922D01*
X202767Y102169D01*
X202764Y101416D01*
X202780Y100663D01*
X202814Y99910D01*
X202866Y99159D01*
X202936Y98409D01*
X203025Y97661D01*
X203132Y96915D01*
X203257Y96173D01*
X203400Y95433D01*
X203561Y94697D01*
X203740Y93966D01*
X203937Y93238D01*
X204152Y92516D01*
X204384Y91800D01*
X204633Y91089D01*
X204900Y90384D01*
X205183Y89687D01*
X205484Y88996D01*
X205801Y88313D01*
X206135Y87638D01*
X206485Y86971D01*
X206852Y86313D01*
X207234Y85664D01*
X207632Y85024D01*
X208045Y84394D01*
X208474Y83775D01*
X208918Y83166D01*
X209376Y82568D01*
X209849Y81982D01*
X210336Y81407D01*
X210836Y80845D01*
X211351Y80294D01*
X211878Y79757D01*
X212419Y79232D01*
X212972Y78721D01*
X213537Y78223D01*
X214115Y77739D01*
X214704Y77270D01*
X215304Y76815D01*
X215915Y76374D01*
X216537Y75949D01*
X217169Y75539D01*
X217810Y75145D01*
X218462Y74766D01*
X219122Y74403D01*
X219791Y74057D01*
X220468Y73726D01*
X221152Y73413D01*
X221845Y73116D01*
X222544Y72836D01*
X223250Y72573D01*
X223962Y72328D01*
X224680Y72100D01*
X243180Y72101D02*
X243894Y72341D01*
X244602Y72598D01*
X245303Y72873D01*
X245998Y73165D01*
X246685Y73473D01*
X247364Y73798D01*
X248036Y74140D01*
X248698Y74498D01*
X249352Y74872D01*
X249997Y75261D01*
X250632Y75667D01*
X251257Y76087D01*
X251871Y76523D01*
X252475Y76974D01*
X253067Y77439D01*
X253648Y77918D01*
X254217Y78412D01*
X254774Y78919D01*
X255319Y79440D01*
X255850Y79973D01*
X256369Y80520D01*
X256873Y81079D01*
X257365Y81650D01*
X257842Y82233D01*
X258304Y82827D01*
X258753Y83433D01*
X259186Y84049D01*
X259604Y84675D01*
X260007Y85312D01*
X260394Y85958D01*
X260765Y86613D01*
X261120Y87278D01*
X261459Y87950D01*
X261781Y88631D01*
X262087Y89320D01*
X262376Y90015D01*
X262648Y90718D01*
X262902Y91427D01*
X263140Y92142D01*
X263359Y92862D01*
X263562Y93588D01*
X263746Y94318D01*
X263913Y95053D01*
X264061Y95791D01*
X264192Y96533D01*
X264304Y97278D01*
X264399Y98025D01*
X264475Y98775D01*
X264532Y99526D01*
X264572Y100278D01*
X264593Y101031D01*
X264596Y101784D01*
X264580Y102537D01*
X264546Y103290D01*
X264494Y104041D01*
X264424Y104791D01*
X264335Y105539D01*
X264228Y106285D01*
X264103Y107027D01*
X263960Y107767D01*
X263799Y108503D01*
X263620Y109234D01*
X263423Y109962D01*
X263208Y110684D01*
X262976Y111400D01*
X262727Y112111D01*
X262460Y112816D01*
X262177Y113513D01*
X261876Y114204D01*
X261559Y114887D01*
X261225Y115562D01*
X260875Y116229D01*
X260508Y116887D01*
X260126Y117536D01*
X259728Y118176D01*
X259315Y118806D01*
X258886Y119425D01*
X258442Y120034D01*
X257984Y120632D01*
X257511Y121218D01*
X257024Y121793D01*
X256524Y122355D01*
X256009Y122906D01*
X255482Y123443D01*
X254941Y123968D01*
X254388Y124479D01*
X253823Y124977D01*
X253245Y125461D01*
X252656Y125930D01*
X252056Y126385D01*
X251445Y126826D01*
X250823Y127251D01*
X250191Y127661D01*
X249550Y128055D01*
X248898Y128434D01*
X248238Y128797D01*
X247569Y129143D01*
X246892Y129474D01*
X246208Y129787D01*
X245515Y130084D01*
X244816Y130364D01*
X244110Y130627D01*
X243398Y130872D01*
X242680Y131100D01*
D12*
X270488Y73401D02*
X270488Y70804D01*
X270490Y70705D01*
X270496Y70605D01*
X270505Y70506D01*
X270518Y70408D01*
X270535Y70310D01*
X270556Y70212D01*
X270581Y70116D01*
X270609Y70021D01*
X270641Y69927D01*
X270676Y69834D01*
X270715Y69742D01*
X270758Y69652D01*
X270803Y69564D01*
X270853Y69477D01*
X270905Y69393D01*
X270961Y69310D01*
X271019Y69230D01*
X271081Y69152D01*
X271146Y69077D01*
X271214Y69004D01*
X271284Y68934D01*
X271357Y68866D01*
X271432Y68801D01*
X271510Y68739D01*
X271590Y68681D01*
X271673Y68625D01*
X271757Y68573D01*
X271844Y68523D01*
X271932Y68478D01*
X272022Y68435D01*
X272114Y68396D01*
X272207Y68361D01*
X272301Y68329D01*
X272396Y68301D01*
X272492Y68276D01*
X272590Y68255D01*
X272688Y68238D01*
X272786Y68225D01*
X272885Y68216D01*
X272985Y68210D01*
X273084Y68208D01*
X279576Y68208D01*
X279675Y68210D01*
X279775Y68216D01*
X279874Y68225D01*
X279972Y68238D01*
X280070Y68255D01*
X280168Y68276D01*
X280264Y68301D01*
X280359Y68329D01*
X280453Y68361D01*
X280546Y68396D01*
X280638Y68435D01*
X280728Y68478D01*
X280816Y68523D01*
X280903Y68573D01*
X280987Y68625D01*
X281070Y68681D01*
X281150Y68739D01*
X281228Y68801D01*
X281303Y68866D01*
X281376Y68934D01*
X281446Y69004D01*
X281514Y69077D01*
X281579Y69152D01*
X281641Y69230D01*
X281699Y69310D01*
X281755Y69393D01*
X281807Y69477D01*
X281857Y69564D01*
X281902Y69652D01*
X281945Y69742D01*
X281984Y69834D01*
X282019Y69926D01*
X282051Y70021D01*
X282079Y70116D01*
X282104Y70212D01*
X282125Y70310D01*
X282142Y70408D01*
X282155Y70506D01*
X282164Y70605D01*
X282170Y70705D01*
X282172Y70804D01*
X282172Y73401D01*
X270488Y77766D02*
X270488Y81012D01*
X270490Y81125D01*
X270496Y81238D01*
X270506Y81351D01*
X270520Y81464D01*
X270537Y81576D01*
X270559Y81687D01*
X270584Y81797D01*
X270614Y81907D01*
X270647Y82015D01*
X270684Y82122D01*
X270724Y82228D01*
X270769Y82332D01*
X270817Y82435D01*
X270868Y82536D01*
X270923Y82635D01*
X270981Y82732D01*
X271043Y82827D01*
X271108Y82920D01*
X271176Y83010D01*
X271247Y83098D01*
X271322Y83184D01*
X271399Y83267D01*
X271479Y83347D01*
X271562Y83424D01*
X271648Y83499D01*
X271736Y83570D01*
X271826Y83638D01*
X271919Y83703D01*
X272014Y83765D01*
X272111Y83823D01*
X272210Y83878D01*
X272311Y83929D01*
X272414Y83977D01*
X272518Y84022D01*
X272624Y84062D01*
X272731Y84099D01*
X272839Y84132D01*
X272949Y84162D01*
X273059Y84187D01*
X273170Y84209D01*
X273282Y84226D01*
X273395Y84240D01*
X273508Y84250D01*
X273621Y84256D01*
X273734Y84258D01*
X273847Y84256D01*
X273960Y84250D01*
X274073Y84240D01*
X274186Y84226D01*
X274298Y84209D01*
X274409Y84187D01*
X274519Y84162D01*
X274629Y84132D01*
X274737Y84099D01*
X274844Y84062D01*
X274950Y84022D01*
X275054Y83977D01*
X275157Y83929D01*
X275258Y83878D01*
X275357Y83823D01*
X275454Y83765D01*
X275549Y83703D01*
X275642Y83638D01*
X275732Y83570D01*
X275820Y83499D01*
X275906Y83424D01*
X275989Y83347D01*
X276069Y83267D01*
X276146Y83184D01*
X276221Y83098D01*
X276292Y83010D01*
X276360Y82920D01*
X276425Y82827D01*
X276487Y82732D01*
X276545Y82635D01*
X276600Y82536D01*
X276651Y82435D01*
X276699Y82332D01*
X276744Y82228D01*
X276784Y82122D01*
X276821Y82015D01*
X276854Y81907D01*
X276884Y81797D01*
X276909Y81687D01*
X276931Y81576D01*
X276948Y81464D01*
X276962Y81351D01*
X276972Y81238D01*
X276978Y81125D01*
X276980Y81012D01*
X282172Y81661D02*
X282172Y77766D01*
X282172Y81661D02*
X282170Y81762D01*
X282164Y81862D01*
X282154Y81962D01*
X282141Y82062D01*
X282123Y82161D01*
X282102Y82260D01*
X282077Y82357D01*
X282048Y82454D01*
X282015Y82549D01*
X281979Y82643D01*
X281939Y82735D01*
X281896Y82826D01*
X281849Y82915D01*
X281799Y83002D01*
X281745Y83088D01*
X281688Y83171D01*
X281628Y83251D01*
X281565Y83330D01*
X281498Y83406D01*
X281429Y83479D01*
X281357Y83549D01*
X281283Y83617D01*
X281206Y83682D01*
X281126Y83743D01*
X281044Y83802D01*
X280960Y83857D01*
X280874Y83909D01*
X280786Y83958D01*
X280696Y84003D01*
X280604Y84045D01*
X280511Y84083D01*
X280416Y84117D01*
X280321Y84148D01*
X280224Y84175D01*
X280126Y84198D01*
X280027Y84218D01*
X279927Y84233D01*
X279827Y84245D01*
X279727Y84253D01*
X279626Y84257D01*
X279526Y84257D01*
X279425Y84253D01*
X279325Y84245D01*
X279225Y84233D01*
X279125Y84218D01*
X279026Y84198D01*
X278928Y84175D01*
X278831Y84148D01*
X278736Y84117D01*
X278641Y84083D01*
X278548Y84045D01*
X278456Y84003D01*
X278366Y83958D01*
X278278Y83909D01*
X278192Y83857D01*
X278108Y83802D01*
X278026Y83743D01*
X277946Y83682D01*
X277869Y83617D01*
X277795Y83549D01*
X277723Y83479D01*
X277654Y83406D01*
X277587Y83330D01*
X277524Y83251D01*
X277464Y83171D01*
X277407Y83088D01*
X277353Y83002D01*
X277303Y82915D01*
X277256Y82826D01*
X277213Y82735D01*
X277173Y82643D01*
X277137Y82549D01*
X277104Y82454D01*
X277075Y82357D01*
X277050Y82260D01*
X277029Y82161D01*
X277011Y82062D01*
X276998Y81962D01*
X276988Y81862D01*
X276982Y81762D01*
X276980Y81661D01*
X276979Y81661D02*
X276979Y79064D01*
X110959Y120082D02*
X113428Y132148D01*
X104213Y123977D01*
X106517Y126020D02*
X111576Y123099D01*
X100148Y126323D02*
X105990Y136442D01*
X100148Y126323D02*
X95651Y128920D01*
X91088Y131554D02*
X96930Y141673D01*
X89964Y132204D02*
X92212Y130905D01*
X98054Y141024D02*
X95806Y142322D01*
X151599Y135322D02*
X154068Y147388D01*
X144853Y139217D01*
X147157Y141260D02*
X152216Y138339D01*
X140744Y141589D02*
X146586Y151708D01*
X143776Y153330D01*
X143776Y153331D02*
X143677Y153386D01*
X143576Y153437D01*
X143473Y153485D01*
X143369Y153530D01*
X143263Y153570D01*
X143156Y153607D01*
X143048Y153640D01*
X142938Y153670D01*
X142828Y153695D01*
X142717Y153717D01*
X142605Y153734D01*
X142492Y153748D01*
X142379Y153758D01*
X142266Y153764D01*
X142153Y153766D01*
X142040Y153764D01*
X141927Y153758D01*
X141814Y153748D01*
X141701Y153734D01*
X141589Y153717D01*
X141478Y153695D01*
X141368Y153670D01*
X141258Y153640D01*
X141150Y153607D01*
X141043Y153570D01*
X140937Y153530D01*
X140833Y153485D01*
X140730Y153437D01*
X140629Y153386D01*
X140530Y153331D01*
X140433Y153273D01*
X140338Y153211D01*
X140245Y153146D01*
X140155Y153078D01*
X140067Y153007D01*
X139981Y152932D01*
X139898Y152855D01*
X139818Y152775D01*
X139741Y152692D01*
X139666Y152606D01*
X139595Y152518D01*
X139527Y152428D01*
X139462Y152335D01*
X139400Y152240D01*
X139342Y152143D01*
X139287Y152044D01*
X139236Y151943D01*
X139188Y151840D01*
X139143Y151736D01*
X139103Y151630D01*
X139066Y151523D01*
X139033Y151415D01*
X139003Y151305D01*
X138978Y151195D01*
X138956Y151084D01*
X138939Y150972D01*
X138925Y150859D01*
X138915Y150746D01*
X138909Y150633D01*
X138907Y150520D01*
X138909Y150407D01*
X138915Y150294D01*
X138925Y150181D01*
X138939Y150068D01*
X138956Y149956D01*
X138978Y149845D01*
X139003Y149735D01*
X139033Y149625D01*
X139066Y149517D01*
X139103Y149410D01*
X139143Y149304D01*
X139188Y149200D01*
X139236Y149097D01*
X139287Y148996D01*
X139342Y148897D01*
X139400Y148800D01*
X139462Y148705D01*
X139527Y148612D01*
X139595Y148522D01*
X139666Y148433D01*
X139741Y148348D01*
X139818Y148265D01*
X139898Y148185D01*
X139981Y148108D01*
X140067Y148033D01*
X140155Y147962D01*
X140245Y147894D01*
X140338Y147829D01*
X140433Y147767D01*
X140530Y147709D01*
X143341Y146086D01*
X139968Y148033D02*
X135123Y144835D01*
X130078Y147747D02*
X135920Y157866D01*
X131203Y147098D02*
X128954Y148396D01*
X134796Y158515D02*
X137045Y157216D01*
X154139Y160722D02*
X159981Y170841D01*
X157170Y172464D01*
X157071Y172519D01*
X156970Y172570D01*
X156867Y172618D01*
X156763Y172663D01*
X156657Y172703D01*
X156550Y172740D01*
X156442Y172773D01*
X156332Y172803D01*
X156222Y172828D01*
X156111Y172850D01*
X155999Y172867D01*
X155886Y172881D01*
X155773Y172891D01*
X155660Y172897D01*
X155547Y172899D01*
X155434Y172897D01*
X155321Y172891D01*
X155208Y172881D01*
X155095Y172867D01*
X154983Y172850D01*
X154872Y172828D01*
X154762Y172803D01*
X154652Y172773D01*
X154544Y172740D01*
X154437Y172703D01*
X154331Y172663D01*
X154227Y172618D01*
X154124Y172570D01*
X154023Y172519D01*
X153924Y172464D01*
X153827Y172406D01*
X153732Y172344D01*
X153639Y172279D01*
X153549Y172211D01*
X153461Y172140D01*
X153375Y172065D01*
X153292Y171988D01*
X153212Y171908D01*
X153135Y171825D01*
X153060Y171739D01*
X152989Y171651D01*
X152921Y171561D01*
X152856Y171468D01*
X152794Y171373D01*
X152736Y171276D01*
X152681Y171177D01*
X152630Y171076D01*
X152582Y170973D01*
X152537Y170869D01*
X152497Y170763D01*
X152460Y170656D01*
X152427Y170548D01*
X152397Y170438D01*
X152372Y170328D01*
X152350Y170217D01*
X152333Y170105D01*
X152319Y169992D01*
X152309Y169879D01*
X152303Y169766D01*
X152301Y169653D01*
X152303Y169540D01*
X152309Y169427D01*
X152319Y169314D01*
X152333Y169201D01*
X152350Y169089D01*
X152372Y168978D01*
X152397Y168868D01*
X152427Y168758D01*
X152460Y168650D01*
X152497Y168543D01*
X152537Y168437D01*
X152582Y168333D01*
X152630Y168230D01*
X152681Y168129D01*
X152736Y168030D01*
X152794Y167933D01*
X152856Y167838D01*
X152921Y167745D01*
X152989Y167655D01*
X153060Y167566D01*
X153135Y167481D01*
X153212Y167398D01*
X153292Y167318D01*
X153375Y167241D01*
X153461Y167166D01*
X153549Y167095D01*
X153639Y167027D01*
X153732Y166962D01*
X153827Y166900D01*
X153924Y166842D01*
X156735Y165219D01*
X153362Y167167D02*
X148517Y163968D01*
X143473Y166880D02*
X149315Y176999D01*
X144597Y166231D02*
X142349Y167529D01*
X148191Y177648D02*
X150439Y176350D01*
X159383Y184829D02*
X161069Y183855D01*
X159383Y184829D02*
X156137Y179208D01*
X159510Y177260D01*
X159510Y177261D02*
X159597Y177213D01*
X159686Y177168D01*
X159776Y177127D01*
X159868Y177089D01*
X159962Y177055D01*
X160056Y177024D01*
X160152Y176997D01*
X160249Y176974D01*
X160346Y176954D01*
X160445Y176939D01*
X160543Y176927D01*
X160642Y176918D01*
X160742Y176914D01*
X160841Y176913D01*
X160941Y176916D01*
X161040Y176923D01*
X161139Y176934D01*
X161237Y176949D01*
X161335Y176967D01*
X161432Y176989D01*
X161528Y177015D01*
X161623Y177044D01*
X161717Y177077D01*
X161809Y177114D01*
X161900Y177154D01*
X161990Y177197D01*
X162077Y177244D01*
X162163Y177295D01*
X162247Y177348D01*
X162329Y177405D01*
X162408Y177465D01*
X162485Y177527D01*
X162560Y177593D01*
X162632Y177662D01*
X162701Y177733D01*
X162768Y177807D01*
X162832Y177883D01*
X162893Y177962D01*
X162950Y178043D01*
X163005Y178126D01*
X163056Y178211D01*
X163057Y178211D02*
X166302Y183832D01*
X166350Y183919D01*
X166395Y184008D01*
X166436Y184098D01*
X166474Y184190D01*
X166508Y184284D01*
X166539Y184378D01*
X166566Y184474D01*
X166589Y184571D01*
X166609Y184668D01*
X166624Y184767D01*
X166636Y184865D01*
X166645Y184964D01*
X166649Y185064D01*
X166650Y185163D01*
X166647Y185263D01*
X166640Y185362D01*
X166629Y185461D01*
X166614Y185559D01*
X166596Y185657D01*
X166574Y185754D01*
X166548Y185850D01*
X166519Y185945D01*
X166486Y186039D01*
X166449Y186131D01*
X166409Y186222D01*
X166366Y186312D01*
X166319Y186399D01*
X166268Y186485D01*
X166215Y186569D01*
X166158Y186651D01*
X166098Y186730D01*
X166036Y186807D01*
X165970Y186882D01*
X165901Y186954D01*
X165830Y187023D01*
X165756Y187090D01*
X165680Y187154D01*
X165601Y187214D01*
X165520Y187272D01*
X165437Y187327D01*
X165352Y187378D01*
X165352Y187379D02*
X161979Y189326D01*
X156541Y192466D02*
X150699Y182347D01*
X151823Y181698D02*
X149575Y182997D01*
X155417Y193115D02*
X157665Y191817D01*
M02*
