G04 EAGLE Gerber RS-274X export*
G75*
%MOMM*%
%FSLAX34Y34*%
%LPD*%
%INTop Solder Mask*%
%IPPOS*%
%AMOC8*
5,1,8,0,0,1.08239X$1,22.5*%
G01*
%ADD10R,2.743200X5.283200*%
%ADD11R,1.803200X3.703200*%
%ADD12R,1.473200X2.743200*%
%ADD13R,2.006200X1.803200*%
%ADD14C,0.959600*%


D10*
X25400Y15240D03*
X63500Y15240D03*
X101600Y15240D03*
X139700Y15240D03*
X177800Y15240D03*
X215900Y15240D03*
X254000Y15240D03*
X292100Y15240D03*
X330200Y15240D03*
X368300Y15240D03*
D11*
X198120Y128600D03*
X198120Y74600D03*
D12*
G36*
X145101Y179862D02*
X137735Y167103D01*
X113979Y180818D01*
X121345Y193577D01*
X145101Y179862D01*
G37*
G36*
X155261Y197642D02*
X147895Y184883D01*
X124139Y198598D01*
X131505Y211357D01*
X155261Y197642D01*
G37*
G36*
X134941Y162082D02*
X127575Y149323D01*
X103819Y163038D01*
X111185Y175797D01*
X134941Y162082D01*
G37*
G36*
X124781Y144302D02*
X117415Y131543D01*
X93659Y145258D01*
X101025Y158017D01*
X124781Y144302D01*
G37*
D13*
X124460Y103120D03*
X124460Y74680D03*
D14*
X147320Y71120D03*
X53340Y55880D03*
X76200Y106680D03*
X106680Y121920D03*
X96520Y58420D03*
X297180Y53340D03*
X325120Y88900D03*
X177800Y157480D03*
X190500Y175260D03*
X137160Y121920D03*
X139700Y96520D03*
X180340Y96520D03*
X182880Y50800D03*
M02*
