G04 EAGLE Gerber RS-274X export*
G75*
%MOMM*%
%FSLAX34Y34*%
%LPD*%
%INBottom Copper*%
%IPPOS*%
%AMOC8*
5,1,8,0,0,1.08239X$1,22.5*%
G01*
%ADD10R,2.540000X5.080000*%
%ADD11R,1.600000X3.500000*%
%ADD12R,1.270000X2.540000*%
%ADD13C,0.299719*%
%ADD14C,0.756400*%
%ADD15C,0.254000*%

G36*
X266250Y10437D02*
X266250Y10437D01*
X266289Y10434D01*
X266421Y10456D01*
X266554Y10471D01*
X266591Y10484D01*
X266630Y10491D01*
X266753Y10542D01*
X266879Y10587D01*
X266913Y10608D01*
X266949Y10623D01*
X267057Y10702D01*
X267170Y10774D01*
X267197Y10803D01*
X267229Y10826D01*
X267316Y10927D01*
X267409Y11023D01*
X267430Y11057D01*
X267455Y11087D01*
X267517Y11206D01*
X267585Y11321D01*
X267597Y11358D01*
X267616Y11393D01*
X267649Y11523D01*
X267689Y11650D01*
X267692Y11690D01*
X267702Y11728D01*
X267715Y11930D01*
X267715Y38904D01*
X267710Y38948D01*
X267713Y38993D01*
X267690Y39120D01*
X267675Y39247D01*
X267660Y39289D01*
X267652Y39334D01*
X267581Y39524D01*
X266827Y41183D01*
X266740Y41326D01*
X266656Y41469D01*
X266651Y41475D01*
X266649Y41479D01*
X266639Y41488D01*
X266522Y41622D01*
X257529Y50615D01*
X257419Y50702D01*
X257313Y50794D01*
X257284Y50809D01*
X257258Y50830D01*
X257131Y50890D01*
X257007Y50954D01*
X256975Y50963D01*
X256945Y50977D01*
X256808Y51006D01*
X256672Y51040D01*
X256628Y51043D01*
X256607Y51048D01*
X256574Y51047D01*
X256470Y51054D01*
X223176Y51054D01*
X203092Y71138D01*
X202982Y71225D01*
X202876Y71317D01*
X202847Y71332D01*
X202821Y71353D01*
X202694Y71412D01*
X202570Y71477D01*
X202538Y71485D01*
X202508Y71499D01*
X202371Y71528D01*
X202235Y71563D01*
X202191Y71566D01*
X202170Y71570D01*
X202137Y71570D01*
X202033Y71577D01*
X176123Y71577D01*
X176087Y71573D01*
X176051Y71575D01*
X175916Y71553D01*
X175779Y71537D01*
X175745Y71525D01*
X175710Y71519D01*
X175583Y71466D01*
X175454Y71419D01*
X175424Y71400D01*
X175391Y71386D01*
X175280Y71306D01*
X175165Y71230D01*
X175140Y71204D01*
X175111Y71183D01*
X175021Y71080D01*
X174926Y70980D01*
X174908Y70949D01*
X174885Y70922D01*
X174821Y70801D01*
X174752Y70682D01*
X174741Y70648D01*
X174724Y70616D01*
X174690Y70483D01*
X174650Y70352D01*
X174647Y70316D01*
X174638Y70281D01*
X174625Y70079D01*
X174625Y56468D01*
X173732Y55575D01*
X156468Y55575D01*
X155575Y56468D01*
X155575Y69653D01*
X155569Y69705D01*
X155572Y69757D01*
X155549Y69876D01*
X155535Y69996D01*
X155518Y70045D01*
X155508Y70097D01*
X155459Y70207D01*
X155418Y70321D01*
X155389Y70365D01*
X155368Y70413D01*
X155295Y70509D01*
X155229Y70610D01*
X155191Y70647D01*
X155160Y70688D01*
X155067Y70765D01*
X154979Y70849D01*
X154934Y70875D01*
X154893Y70909D01*
X154785Y70962D01*
X154681Y71024D01*
X154631Y71039D01*
X154584Y71062D01*
X154466Y71090D01*
X154367Y71120D01*
X154389Y71122D01*
X154438Y71139D01*
X154490Y71147D01*
X154601Y71194D01*
X154716Y71232D01*
X154761Y71260D01*
X154809Y71280D01*
X154907Y71351D01*
X155010Y71415D01*
X155047Y71452D01*
X155089Y71483D01*
X155168Y71574D01*
X155254Y71660D01*
X155281Y71704D01*
X155315Y71744D01*
X155371Y71851D01*
X155435Y71954D01*
X155451Y72004D01*
X155476Y72050D01*
X155506Y72167D01*
X155544Y72282D01*
X155548Y72334D01*
X155562Y72385D01*
X155575Y72587D01*
X155575Y92227D01*
X155571Y92263D01*
X155574Y92299D01*
X155551Y92434D01*
X155535Y92571D01*
X155523Y92605D01*
X155517Y92640D01*
X155465Y92767D01*
X155418Y92896D01*
X155398Y92926D01*
X155384Y92959D01*
X155304Y93070D01*
X155229Y93185D01*
X155203Y93210D01*
X155182Y93239D01*
X155078Y93329D01*
X154979Y93424D01*
X154948Y93442D01*
X154921Y93465D01*
X154799Y93529D01*
X154681Y93598D01*
X154646Y93609D01*
X154615Y93626D01*
X154482Y93660D01*
X154351Y93700D01*
X154315Y93703D01*
X154280Y93712D01*
X154077Y93725D01*
X145031Y93725D01*
X144891Y93709D01*
X144752Y93699D01*
X144720Y93689D01*
X144687Y93685D01*
X144555Y93638D01*
X144422Y93596D01*
X144393Y93579D01*
X144362Y93568D01*
X144245Y93491D01*
X144124Y93420D01*
X144091Y93391D01*
X144073Y93379D01*
X144050Y93355D01*
X143971Y93287D01*
X142706Y92021D01*
X140756Y91213D01*
X138644Y91213D01*
X136694Y92021D01*
X135201Y93514D01*
X134393Y95464D01*
X134393Y97576D01*
X135201Y99526D01*
X136694Y101019D01*
X138644Y101827D01*
X140756Y101827D01*
X142706Y101019D01*
X143971Y99753D01*
X144081Y99666D01*
X144187Y99575D01*
X144216Y99559D01*
X144242Y99539D01*
X144369Y99479D01*
X144493Y99414D01*
X144525Y99406D01*
X144555Y99392D01*
X144693Y99363D01*
X144828Y99328D01*
X144872Y99325D01*
X144893Y99321D01*
X144926Y99322D01*
X145031Y99315D01*
X175009Y99315D01*
X175149Y99331D01*
X175288Y99341D01*
X175320Y99351D01*
X175353Y99355D01*
X175485Y99402D01*
X175618Y99444D01*
X175647Y99461D01*
X175678Y99472D01*
X175795Y99549D01*
X175916Y99620D01*
X175949Y99649D01*
X175967Y99661D01*
X175990Y99685D01*
X176069Y99753D01*
X177334Y101019D01*
X179284Y101827D01*
X181396Y101827D01*
X183346Y101019D01*
X184839Y99526D01*
X185647Y97576D01*
X185647Y95464D01*
X184839Y93514D01*
X183346Y92021D01*
X181396Y91213D01*
X179284Y91213D01*
X177334Y92021D01*
X177182Y92173D01*
X177100Y92238D01*
X177024Y92310D01*
X176965Y92345D01*
X176911Y92388D01*
X176816Y92432D01*
X176726Y92485D01*
X176660Y92506D01*
X176598Y92535D01*
X176496Y92556D01*
X176396Y92587D01*
X176327Y92592D01*
X176260Y92606D01*
X176155Y92603D01*
X176051Y92610D01*
X175983Y92599D01*
X175914Y92598D01*
X175813Y92571D01*
X175710Y92554D01*
X175647Y92528D01*
X175580Y92510D01*
X175487Y92461D01*
X175391Y92421D01*
X175335Y92381D01*
X175274Y92349D01*
X175195Y92280D01*
X175111Y92219D01*
X175066Y92167D01*
X175014Y92122D01*
X174953Y92037D01*
X174885Y91958D01*
X174853Y91897D01*
X174813Y91841D01*
X174773Y91744D01*
X174724Y91651D01*
X174707Y91585D01*
X174681Y91521D01*
X174664Y91418D01*
X174638Y91317D01*
X174631Y91213D01*
X174626Y91180D01*
X174628Y91158D01*
X174625Y91114D01*
X174625Y79121D01*
X174629Y79085D01*
X174626Y79050D01*
X174649Y78914D01*
X174665Y78778D01*
X174677Y78744D01*
X174683Y78709D01*
X174735Y78582D01*
X174782Y78453D01*
X174802Y78423D01*
X174816Y78390D01*
X174896Y78278D01*
X174971Y78163D01*
X174997Y78139D01*
X175018Y78109D01*
X175122Y78020D01*
X175221Y77925D01*
X175252Y77907D01*
X175279Y77883D01*
X175401Y77820D01*
X175519Y77750D01*
X175554Y77740D01*
X175585Y77723D01*
X175718Y77689D01*
X175849Y77648D01*
X175885Y77646D01*
X175920Y77637D01*
X176123Y77623D01*
X205158Y77623D01*
X221598Y61183D01*
X221680Y61118D01*
X221756Y61046D01*
X221815Y61011D01*
X221869Y60968D01*
X221964Y60924D01*
X222054Y60871D01*
X222120Y60851D01*
X222182Y60822D01*
X222284Y60800D01*
X222384Y60769D01*
X222453Y60765D01*
X222520Y60750D01*
X222625Y60753D01*
X222729Y60746D01*
X222797Y60757D01*
X222866Y60759D01*
X222967Y60785D01*
X223070Y60802D01*
X223133Y60829D01*
X223200Y60846D01*
X223293Y60895D01*
X223389Y60935D01*
X223445Y60975D01*
X223506Y61007D01*
X223584Y61076D01*
X223669Y61137D01*
X223714Y61189D01*
X223766Y61235D01*
X223827Y61320D01*
X223895Y61399D01*
X223927Y61460D01*
X223967Y61516D01*
X224007Y61612D01*
X224056Y61705D01*
X224073Y61771D01*
X224099Y61835D01*
X224116Y61938D01*
X224142Y62040D01*
X224149Y62144D01*
X224154Y62176D01*
X224152Y62198D01*
X224155Y62242D01*
X224155Y92732D01*
X225048Y93625D01*
X242312Y93625D01*
X243205Y92732D01*
X243205Y78976D01*
X243208Y78950D01*
X243206Y78924D01*
X243207Y78918D01*
X243206Y78915D01*
X243213Y78878D01*
X243228Y78779D01*
X243245Y78633D01*
X243253Y78608D01*
X243257Y78582D01*
X243312Y78446D01*
X243362Y78308D01*
X243376Y78286D01*
X243386Y78262D01*
X243471Y78141D01*
X243551Y78018D01*
X243570Y78000D01*
X243585Y77979D01*
X243694Y77881D01*
X243801Y77780D01*
X243824Y77767D01*
X243843Y77749D01*
X243972Y77679D01*
X244099Y77605D01*
X244124Y77597D01*
X244147Y77585D01*
X244289Y77546D01*
X244429Y77503D01*
X244455Y77501D01*
X244481Y77495D01*
X244683Y77478D01*
X304809Y76683D01*
X304816Y76684D01*
X304829Y76683D01*
X306076Y76683D01*
X306945Y75791D01*
X306950Y75786D01*
X306959Y75777D01*
X307840Y74896D01*
X307838Y74733D01*
X307853Y74583D01*
X307864Y74434D01*
X307871Y74412D01*
X307873Y74389D01*
X307922Y74247D01*
X307967Y74104D01*
X307979Y74084D01*
X307986Y74062D01*
X308067Y73936D01*
X308143Y73807D01*
X308163Y73784D01*
X308171Y73771D01*
X308193Y73749D01*
X308276Y73654D01*
X338786Y43144D01*
X338786Y42298D01*
X338798Y42195D01*
X338800Y42090D01*
X338818Y42023D01*
X338826Y41955D01*
X338861Y41857D01*
X338888Y41756D01*
X338920Y41695D01*
X338943Y41630D01*
X339000Y41542D01*
X339049Y41450D01*
X339094Y41398D01*
X339132Y41341D01*
X339208Y41268D01*
X339276Y41190D01*
X339332Y41150D01*
X339382Y41102D01*
X339472Y41049D01*
X339557Y40988D01*
X339621Y40962D01*
X339680Y40927D01*
X339780Y40897D01*
X339877Y40857D01*
X339945Y40846D01*
X340011Y40826D01*
X340115Y40819D01*
X340218Y40802D01*
X340287Y40807D01*
X340355Y40802D01*
X340458Y40819D01*
X340563Y40827D01*
X340629Y40847D01*
X340696Y40858D01*
X340793Y40899D01*
X340893Y40930D01*
X340952Y40965D01*
X341015Y40991D01*
X341100Y41052D01*
X341190Y41106D01*
X341269Y41175D01*
X341295Y41194D01*
X341310Y41210D01*
X341343Y41239D01*
X342268Y42165D01*
X369046Y42165D01*
X369134Y42114D01*
X369193Y42097D01*
X369248Y42071D01*
X369358Y42048D01*
X369466Y42016D01*
X369526Y42012D01*
X369586Y42000D01*
X369699Y42003D01*
X369811Y41996D01*
X369871Y42007D01*
X369932Y42008D01*
X370040Y42037D01*
X370151Y42056D01*
X370207Y42080D01*
X370266Y42095D01*
X370365Y42148D01*
X370469Y42192D01*
X370518Y42228D01*
X370571Y42257D01*
X370656Y42331D01*
X370747Y42398D01*
X370786Y42444D01*
X370832Y42484D01*
X370897Y42576D01*
X370970Y42661D01*
X370998Y42716D01*
X371033Y42765D01*
X371076Y42869D01*
X371127Y42969D01*
X371142Y43028D01*
X371165Y43085D01*
X371183Y43195D01*
X371209Y43305D01*
X371214Y43394D01*
X371220Y43426D01*
X371218Y43451D01*
X371221Y43507D01*
X370894Y74257D01*
X370875Y74410D01*
X370859Y74563D01*
X370853Y74581D01*
X370851Y74599D01*
X370797Y74744D01*
X370746Y74890D01*
X370736Y74906D01*
X370730Y74923D01*
X370645Y75051D01*
X370562Y75182D01*
X370548Y75195D01*
X370538Y75211D01*
X370425Y75316D01*
X370315Y75424D01*
X370295Y75437D01*
X370285Y75446D01*
X370261Y75461D01*
X370147Y75537D01*
X245453Y147694D01*
X245377Y147727D01*
X245306Y147769D01*
X245268Y147780D01*
X245253Y147788D01*
X245210Y147799D01*
X245136Y147831D01*
X245055Y147846D01*
X244976Y147870D01*
X244885Y147876D01*
X244796Y147893D01*
X244713Y147888D01*
X244631Y147894D01*
X244541Y147879D01*
X244450Y147874D01*
X244371Y147851D01*
X244290Y147837D01*
X244206Y147803D01*
X244119Y147777D01*
X244047Y147736D01*
X243971Y147705D01*
X243897Y147651D01*
X243818Y147606D01*
X243758Y147550D01*
X243751Y147546D01*
X243745Y147542D01*
X243743Y147540D01*
X243691Y147502D01*
X243631Y147433D01*
X243565Y147372D01*
X243521Y147307D01*
X243506Y147291D01*
X243502Y147284D01*
X243465Y147241D01*
X243422Y147160D01*
X243372Y147085D01*
X243347Y147020D01*
X243332Y146993D01*
X243327Y146977D01*
X243304Y146935D01*
X243282Y146847D01*
X243250Y146762D01*
X243242Y146702D01*
X243230Y146663D01*
X243228Y146638D01*
X243218Y146600D01*
X243208Y146440D01*
X243205Y146419D01*
X243206Y146411D01*
X243205Y146398D01*
X243205Y110468D01*
X242312Y109575D01*
X225048Y109575D01*
X224155Y110468D01*
X224155Y130904D01*
X224145Y130995D01*
X224144Y131087D01*
X224125Y131166D01*
X224115Y131247D01*
X224084Y131333D01*
X224063Y131423D01*
X224026Y131495D01*
X223998Y131572D01*
X223948Y131649D01*
X223906Y131731D01*
X223854Y131793D01*
X223809Y131862D01*
X223743Y131925D01*
X223684Y131995D01*
X223580Y132080D01*
X223559Y132100D01*
X223547Y132107D01*
X223527Y132124D01*
X151161Y183699D01*
X151067Y183751D01*
X150977Y183811D01*
X150916Y183834D01*
X150858Y183866D01*
X150755Y183895D01*
X150654Y183933D01*
X150588Y183941D01*
X150525Y183959D01*
X150418Y183963D01*
X150311Y183977D01*
X150246Y183971D01*
X150180Y183973D01*
X150074Y183953D01*
X149967Y183942D01*
X149905Y183920D01*
X149840Y183908D01*
X149742Y183864D01*
X149641Y183829D01*
X149585Y183794D01*
X149525Y183767D01*
X149440Y183701D01*
X149349Y183644D01*
X149303Y183597D01*
X149251Y183557D01*
X149182Y183474D01*
X149107Y183397D01*
X149052Y183315D01*
X149031Y183290D01*
X149021Y183269D01*
X148994Y183229D01*
X148528Y182421D01*
X147308Y182095D01*
X147229Y182140D01*
X147133Y182182D01*
X147041Y182232D01*
X147028Y182236D01*
X147022Y182239D01*
X146972Y182251D01*
X146912Y182277D01*
X146809Y182296D01*
X146708Y182323D01*
X146688Y182324D01*
X146687Y182324D01*
X146624Y182329D01*
X146571Y182338D01*
X146524Y182336D01*
X146485Y182338D01*
X146481Y182338D01*
X146440Y182333D01*
X146363Y182336D01*
X146295Y182323D01*
X146226Y182319D01*
X146166Y182302D01*
X146137Y182298D01*
X146100Y182285D01*
X146023Y182270D01*
X145961Y182241D01*
X145895Y182222D01*
X145840Y182191D01*
X145812Y182181D01*
X145779Y182159D01*
X145709Y182127D01*
X145654Y182085D01*
X145594Y182051D01*
X145549Y182009D01*
X145523Y181992D01*
X145494Y181962D01*
X145435Y181916D01*
X145392Y181863D01*
X145341Y181816D01*
X145307Y181766D01*
X145285Y181742D01*
X145262Y181704D01*
X145217Y181648D01*
X145187Y181586D01*
X145148Y181529D01*
X145128Y181475D01*
X145110Y181444D01*
X145096Y181399D01*
X145066Y181337D01*
X145051Y181270D01*
X145027Y181206D01*
X145020Y181151D01*
X145008Y181113D01*
X145005Y181064D01*
X144990Y181000D01*
X144991Y180931D01*
X144982Y180863D01*
X144987Y180812D01*
X144985Y180769D01*
X144993Y180715D01*
X144994Y180654D01*
X145014Y180552D01*
X145018Y180519D01*
X145025Y180499D01*
X145033Y180455D01*
X145350Y179274D01*
X143747Y176497D01*
X143746Y176497D01*
X143614Y176189D01*
X143609Y176180D01*
X143549Y175839D01*
X143563Y175581D01*
X143567Y175495D01*
X143582Y175445D01*
X143615Y175333D01*
X143665Y175163D01*
X143787Y174949D01*
X143836Y174863D01*
X143836Y174862D01*
X144071Y174609D01*
X144234Y174488D01*
X165618Y160741D01*
X165756Y160674D01*
X165891Y160603D01*
X165910Y160598D01*
X165928Y160589D01*
X166078Y160555D01*
X166225Y160517D01*
X166252Y160515D01*
X166265Y160512D01*
X166294Y160512D01*
X166347Y160509D01*
X166894Y159961D01*
X166941Y159925D01*
X166981Y159881D01*
X167143Y159760D01*
X167800Y159338D01*
X167822Y159275D01*
X167867Y159129D01*
X167878Y159112D01*
X167884Y159093D01*
X167966Y158963D01*
X168043Y158832D01*
X168060Y158812D01*
X168068Y158800D01*
X168089Y158780D01*
X168123Y158740D01*
X168123Y157966D01*
X168130Y157907D01*
X168128Y157848D01*
X168158Y157648D01*
X168323Y156885D01*
X168294Y156825D01*
X168223Y156689D01*
X168218Y156670D01*
X168209Y156652D01*
X168175Y156503D01*
X168137Y156355D01*
X168135Y156329D01*
X168132Y156315D01*
X168132Y156286D01*
X168123Y156152D01*
X168123Y149123D01*
X168127Y149087D01*
X168125Y149051D01*
X168147Y148916D01*
X168163Y148779D01*
X168175Y148745D01*
X168181Y148710D01*
X168234Y148583D01*
X168281Y148454D01*
X168300Y148424D01*
X168314Y148391D01*
X168394Y148280D01*
X168470Y148165D01*
X168496Y148140D01*
X168517Y148111D01*
X168620Y148021D01*
X168720Y147926D01*
X168751Y147908D01*
X168778Y147885D01*
X168899Y147821D01*
X169018Y147752D01*
X169052Y147741D01*
X169084Y147724D01*
X169217Y147690D01*
X169348Y147650D01*
X169384Y147647D01*
X169419Y147638D01*
X169621Y147625D01*
X173732Y147625D01*
X174625Y146732D01*
X174625Y110468D01*
X173732Y109575D01*
X156468Y109575D01*
X155575Y110468D01*
X155575Y146732D01*
X156468Y147625D01*
X160579Y147625D01*
X160615Y147629D01*
X160650Y147626D01*
X160786Y147649D01*
X160922Y147665D01*
X160956Y147677D01*
X160991Y147683D01*
X161118Y147735D01*
X161247Y147782D01*
X161277Y147802D01*
X161310Y147816D01*
X161422Y147896D01*
X161537Y147971D01*
X161561Y147997D01*
X161591Y148018D01*
X161680Y148122D01*
X161775Y148221D01*
X161793Y148252D01*
X161817Y148279D01*
X161880Y148401D01*
X161950Y148519D01*
X161960Y148554D01*
X161977Y148585D01*
X162011Y148718D01*
X162052Y148849D01*
X162054Y148885D01*
X162063Y148920D01*
X162077Y149123D01*
X162077Y155012D01*
X162062Y155138D01*
X162055Y155265D01*
X162042Y155309D01*
X162037Y155355D01*
X161993Y155475D01*
X161958Y155597D01*
X161935Y155637D01*
X161919Y155680D01*
X161850Y155787D01*
X161787Y155897D01*
X161756Y155931D01*
X161730Y155969D01*
X161638Y156057D01*
X161552Y156151D01*
X161501Y156189D01*
X161480Y156208D01*
X161453Y156224D01*
X161389Y156272D01*
X141327Y169168D01*
X141263Y169200D01*
X141203Y169240D01*
X141109Y169276D01*
X141017Y169320D01*
X140947Y169336D01*
X140880Y169362D01*
X140779Y169375D01*
X140680Y169397D01*
X140608Y169397D01*
X140537Y169406D01*
X140436Y169396D01*
X140335Y169395D01*
X140265Y169378D01*
X140193Y169371D01*
X140098Y169338D01*
X139999Y169314D01*
X139935Y169281D01*
X139867Y169258D01*
X139781Y169203D01*
X139690Y169157D01*
X139636Y169111D01*
X139575Y169073D01*
X139504Y169000D01*
X139426Y168934D01*
X139383Y168877D01*
X139333Y168826D01*
X139220Y168657D01*
X138368Y167181D01*
X137148Y166855D01*
X116014Y179056D01*
X116000Y179062D01*
X115988Y179071D01*
X115841Y179131D01*
X115697Y179193D01*
X115682Y179196D01*
X115668Y179202D01*
X115512Y179226D01*
X115357Y179254D01*
X115342Y179253D01*
X115326Y179256D01*
X115168Y179244D01*
X115012Y179235D01*
X114997Y179231D01*
X114982Y179230D01*
X114831Y179182D01*
X114680Y179138D01*
X114667Y179130D01*
X114652Y179126D01*
X114517Y179045D01*
X114380Y178967D01*
X114368Y178957D01*
X114355Y178949D01*
X114242Y178840D01*
X114126Y178732D01*
X114118Y178719D01*
X114107Y178709D01*
X113989Y178544D01*
X113081Y177067D01*
X113057Y177016D01*
X113026Y176968D01*
X112985Y176859D01*
X112935Y176754D01*
X112924Y176698D01*
X112904Y176645D01*
X112889Y176530D01*
X112865Y176415D01*
X112867Y176359D01*
X112859Y176302D01*
X112871Y176186D01*
X112874Y176070D01*
X112889Y176015D01*
X112895Y175959D01*
X112933Y175849D01*
X112963Y175736D01*
X112989Y175686D01*
X113008Y175632D01*
X113070Y175534D01*
X113125Y175431D01*
X113162Y175388D01*
X113193Y175340D01*
X113276Y175258D01*
X113353Y175171D01*
X113399Y175138D01*
X113440Y175098D01*
X113608Y174985D01*
X134863Y162714D01*
X135190Y161494D01*
X133457Y158493D01*
X133393Y158346D01*
X133327Y158200D01*
X133325Y158187D01*
X133320Y158176D01*
X133292Y158018D01*
X133261Y157860D01*
X133262Y157848D01*
X133259Y157836D01*
X133268Y157676D01*
X133274Y157515D01*
X133277Y157503D01*
X133278Y157491D01*
X133323Y157337D01*
X133366Y157182D01*
X133372Y157171D01*
X133376Y157159D01*
X133455Y157019D01*
X133532Y156879D01*
X133540Y156870D01*
X133546Y156859D01*
X133656Y156740D01*
X133763Y156622D01*
X133775Y156612D01*
X133781Y156605D01*
X133800Y156593D01*
X133924Y156498D01*
X136130Y155027D01*
X136159Y155012D01*
X136244Y154958D01*
X137262Y154403D01*
X137272Y154386D01*
X137316Y154336D01*
X137545Y153190D01*
X137555Y153158D01*
X137577Y153061D01*
X137904Y151948D01*
X137899Y151929D01*
X137895Y151863D01*
X137247Y150890D01*
X137232Y150860D01*
X137178Y150776D01*
X92106Y68144D01*
X92069Y68052D01*
X92023Y67964D01*
X92005Y67893D01*
X91977Y67824D01*
X91962Y67726D01*
X91937Y67630D01*
X91929Y67514D01*
X91924Y67482D01*
X91926Y67464D01*
X91923Y67427D01*
X91923Y43663D01*
X91927Y43627D01*
X91925Y43591D01*
X91947Y43456D01*
X91963Y43319D01*
X91975Y43285D01*
X91981Y43250D01*
X92034Y43123D01*
X92081Y42994D01*
X92100Y42964D01*
X92114Y42931D01*
X92194Y42820D01*
X92270Y42705D01*
X92296Y42680D01*
X92317Y42651D01*
X92420Y42561D01*
X92520Y42466D01*
X92551Y42448D01*
X92578Y42425D01*
X92699Y42361D01*
X92818Y42292D01*
X92852Y42281D01*
X92884Y42264D01*
X93017Y42230D01*
X93148Y42190D01*
X93184Y42187D01*
X93219Y42178D01*
X93421Y42165D01*
X104772Y42165D01*
X105665Y41272D01*
X105665Y12679D01*
X105668Y12646D01*
X105666Y12614D01*
X105688Y12475D01*
X105705Y12335D01*
X105716Y12305D01*
X105721Y12273D01*
X105774Y12143D01*
X105822Y12010D01*
X105840Y11983D01*
X105852Y11953D01*
X105934Y11839D01*
X106011Y11721D01*
X106034Y11699D01*
X106053Y11672D01*
X106159Y11580D01*
X106261Y11482D01*
X106289Y11466D01*
X106313Y11445D01*
X106438Y11379D01*
X106559Y11308D01*
X106590Y11298D01*
X106619Y11283D01*
X106755Y11247D01*
X106889Y11206D01*
X106922Y11204D01*
X106953Y11196D01*
X107156Y11181D01*
X112794Y11154D01*
X112834Y11159D01*
X112873Y11156D01*
X113005Y11178D01*
X113138Y11193D01*
X113175Y11206D01*
X113214Y11212D01*
X113337Y11264D01*
X113463Y11308D01*
X113497Y11330D01*
X113533Y11345D01*
X113641Y11423D01*
X113754Y11496D01*
X113781Y11524D01*
X113813Y11548D01*
X113900Y11648D01*
X113993Y11745D01*
X114014Y11779D01*
X114039Y11809D01*
X114101Y11927D01*
X114169Y12042D01*
X114181Y12080D01*
X114200Y12115D01*
X114233Y12244D01*
X128041Y12244D01*
X128077Y12248D01*
X128113Y12245D01*
X128248Y12268D01*
X128385Y12283D01*
X128418Y12296D01*
X128454Y12302D01*
X128580Y12354D01*
X128710Y12401D01*
X128740Y12421D01*
X128773Y12434D01*
X128884Y12515D01*
X128999Y12590D01*
X129024Y12616D01*
X129053Y12637D01*
X129143Y12740D01*
X129237Y12840D01*
X129256Y12871D01*
X129279Y12898D01*
X129343Y13020D01*
X129412Y13138D01*
X129423Y13173D01*
X129440Y13204D01*
X129474Y13337D01*
X129514Y13468D01*
X129516Y13504D01*
X129525Y13539D01*
X129539Y13741D01*
X129539Y15241D01*
X129541Y15241D01*
X129541Y13741D01*
X129545Y13706D01*
X129543Y13670D01*
X129565Y13534D01*
X129581Y13398D01*
X129593Y13364D01*
X129599Y13329D01*
X129652Y13202D01*
X129698Y13073D01*
X129718Y13043D01*
X129732Y13010D01*
X129812Y12899D01*
X129887Y12784D01*
X129913Y12759D01*
X129934Y12730D01*
X130038Y12640D01*
X130137Y12545D01*
X130168Y12527D01*
X130195Y12504D01*
X130317Y12440D01*
X130435Y12371D01*
X130470Y12360D01*
X130502Y12343D01*
X130634Y12309D01*
X130766Y12269D01*
X130801Y12266D01*
X130836Y12257D01*
X131039Y12244D01*
X144810Y12244D01*
X144821Y12151D01*
X144832Y12121D01*
X144837Y12089D01*
X144890Y11959D01*
X144938Y11826D01*
X144956Y11799D01*
X144968Y11769D01*
X145050Y11655D01*
X145127Y11537D01*
X145150Y11515D01*
X145169Y11488D01*
X145275Y11396D01*
X145377Y11298D01*
X145405Y11282D01*
X145429Y11261D01*
X145554Y11195D01*
X145675Y11124D01*
X145706Y11114D01*
X145735Y11099D01*
X145871Y11063D01*
X146005Y11022D01*
X146038Y11020D01*
X146069Y11012D01*
X146272Y10997D01*
X151910Y10970D01*
X151950Y10975D01*
X151989Y10972D01*
X152121Y10994D01*
X152254Y11009D01*
X152291Y11022D01*
X152330Y11028D01*
X152453Y11080D01*
X152579Y11124D01*
X152613Y11146D01*
X152649Y11161D01*
X152757Y11239D01*
X152870Y11312D01*
X152897Y11340D01*
X152929Y11364D01*
X153016Y11464D01*
X153109Y11561D01*
X153130Y11595D01*
X153155Y11625D01*
X153217Y11743D01*
X153285Y11858D01*
X153297Y11896D01*
X153316Y11931D01*
X153349Y12060D01*
X153389Y12188D01*
X153392Y12228D01*
X153402Y12266D01*
X153415Y12468D01*
X153415Y24892D01*
X153399Y25031D01*
X153389Y25171D01*
X153379Y25203D01*
X153375Y25235D01*
X153328Y25367D01*
X153286Y25501D01*
X153269Y25529D01*
X153258Y25560D01*
X153181Y25678D01*
X153110Y25798D01*
X153081Y25832D01*
X153069Y25850D01*
X153045Y25872D01*
X152977Y25951D01*
X147338Y31590D01*
X147256Y31655D01*
X147180Y31727D01*
X147121Y31762D01*
X147067Y31805D01*
X146972Y31849D01*
X146882Y31902D01*
X146816Y31922D01*
X146754Y31951D01*
X146652Y31973D01*
X146552Y32004D01*
X146483Y32008D01*
X146416Y32022D01*
X146311Y32020D01*
X146207Y32027D01*
X146139Y32016D01*
X146070Y32014D01*
X145969Y31988D01*
X145866Y31971D01*
X145803Y31944D01*
X145736Y31927D01*
X145643Y31878D01*
X145547Y31838D01*
X145491Y31798D01*
X145430Y31765D01*
X145351Y31697D01*
X145267Y31635D01*
X145222Y31583D01*
X145170Y31538D01*
X145109Y31453D01*
X145041Y31374D01*
X145009Y31313D01*
X144969Y31257D01*
X144929Y31161D01*
X144880Y31068D01*
X144863Y31001D01*
X144837Y30938D01*
X144820Y30834D01*
X144794Y30733D01*
X144787Y30629D01*
X144782Y30596D01*
X144784Y30575D01*
X144781Y30531D01*
X144781Y18236D01*
X132536Y18236D01*
X132536Y43181D01*
X142575Y43181D01*
X142640Y43163D01*
X142698Y43155D01*
X142754Y43137D01*
X142868Y43130D01*
X142982Y43113D01*
X143040Y43118D01*
X143099Y43114D01*
X143212Y43133D01*
X143326Y43142D01*
X143382Y43161D01*
X143440Y43170D01*
X143546Y43214D01*
X143654Y43250D01*
X143705Y43280D01*
X143759Y43303D01*
X143852Y43370D01*
X143949Y43430D01*
X143991Y43471D01*
X144039Y43506D01*
X144114Y43592D01*
X144195Y43672D01*
X144227Y43722D01*
X144265Y43767D01*
X144318Y43868D01*
X144379Y43965D01*
X144398Y44021D01*
X144426Y44073D01*
X144454Y44184D01*
X144491Y44292D01*
X144497Y44351D01*
X144512Y44408D01*
X144525Y44610D01*
X144525Y65789D01*
X144509Y65929D01*
X144499Y66068D01*
X144489Y66100D01*
X144485Y66133D01*
X144438Y66265D01*
X144396Y66398D01*
X144379Y66427D01*
X144368Y66458D01*
X144291Y66575D01*
X144220Y66696D01*
X144191Y66729D01*
X144179Y66747D01*
X144155Y66770D01*
X144087Y66849D01*
X142821Y68114D01*
X142013Y70064D01*
X142013Y72176D01*
X142821Y74126D01*
X144314Y75619D01*
X146264Y76427D01*
X148376Y76427D01*
X150326Y75619D01*
X151819Y74126D01*
X152694Y72014D01*
X152719Y71968D01*
X152737Y71919D01*
X152803Y71818D01*
X152862Y71712D01*
X152897Y71674D01*
X152926Y71630D01*
X153013Y71546D01*
X153095Y71457D01*
X153138Y71427D01*
X153176Y71391D01*
X153280Y71330D01*
X153380Y71262D01*
X153429Y71243D01*
X153474Y71216D01*
X153590Y71181D01*
X153702Y71137D01*
X153754Y71130D01*
X153800Y71116D01*
X153784Y71112D01*
X153665Y71093D01*
X153617Y71072D01*
X153565Y71060D01*
X153457Y71006D01*
X153346Y70960D01*
X153303Y70929D01*
X153256Y70905D01*
X153164Y70828D01*
X153066Y70757D01*
X153031Y70718D01*
X152991Y70684D01*
X152919Y70587D01*
X152840Y70496D01*
X152815Y70450D01*
X152784Y70408D01*
X152694Y70226D01*
X151819Y68114D01*
X150553Y66849D01*
X150466Y66739D01*
X150375Y66633D01*
X150359Y66604D01*
X150339Y66578D01*
X150279Y66451D01*
X150214Y66327D01*
X150206Y66295D01*
X150192Y66265D01*
X150163Y66127D01*
X150128Y65992D01*
X150125Y65948D01*
X150121Y65927D01*
X150122Y65894D01*
X150115Y65789D01*
X150115Y37338D01*
X150131Y37199D01*
X150141Y37059D01*
X150151Y37028D01*
X150155Y36995D01*
X150202Y36863D01*
X150244Y36729D01*
X150261Y36701D01*
X150272Y36670D01*
X150349Y36553D01*
X150420Y36432D01*
X150449Y36398D01*
X150461Y36380D01*
X150485Y36358D01*
X150553Y36279D01*
X150858Y35974D01*
X150940Y35909D01*
X151016Y35837D01*
X151054Y35815D01*
X151060Y35809D01*
X151078Y35800D01*
X151129Y35760D01*
X151224Y35715D01*
X151314Y35662D01*
X151380Y35642D01*
X151442Y35613D01*
X151544Y35591D01*
X151644Y35560D01*
X151713Y35556D01*
X151780Y35542D01*
X151885Y35544D01*
X151989Y35537D01*
X152057Y35548D01*
X152126Y35550D01*
X152227Y35576D01*
X152330Y35593D01*
X152393Y35620D01*
X152460Y35637D01*
X152553Y35686D01*
X152649Y35726D01*
X152705Y35766D01*
X152766Y35799D01*
X152844Y35867D01*
X152929Y35929D01*
X152974Y35981D01*
X153026Y36026D01*
X153087Y36111D01*
X153155Y36190D01*
X153187Y36251D01*
X153227Y36307D01*
X153267Y36403D01*
X153316Y36496D01*
X153333Y36563D01*
X153359Y36626D01*
X153375Y36724D01*
X153390Y36774D01*
X153391Y36791D01*
X153402Y36831D01*
X153409Y36935D01*
X153414Y36967D01*
X153412Y36989D01*
X153415Y37033D01*
X153415Y41272D01*
X154308Y42165D01*
X180972Y42165D01*
X181865Y41272D01*
X181865Y12320D01*
X181868Y12288D01*
X181866Y12256D01*
X181888Y12117D01*
X181905Y11977D01*
X181916Y11946D01*
X181921Y11914D01*
X181974Y11784D01*
X182022Y11652D01*
X182040Y11625D01*
X182052Y11595D01*
X182134Y11480D01*
X182211Y11362D01*
X182234Y11340D01*
X182253Y11314D01*
X182359Y11221D01*
X182461Y11124D01*
X182489Y11108D01*
X182513Y11086D01*
X182638Y11020D01*
X182759Y10949D01*
X182790Y10940D01*
X182819Y10925D01*
X182955Y10889D01*
X183089Y10847D01*
X183122Y10845D01*
X183153Y10837D01*
X183356Y10822D01*
X190010Y10791D01*
X190050Y10795D01*
X190089Y10793D01*
X190221Y10815D01*
X190354Y10829D01*
X190391Y10843D01*
X190430Y10849D01*
X190553Y10900D01*
X190679Y10945D01*
X190713Y10967D01*
X190749Y10982D01*
X190857Y11060D01*
X190970Y11133D01*
X190997Y11161D01*
X191029Y11184D01*
X191116Y11285D01*
X191209Y11382D01*
X191230Y11416D01*
X191255Y11446D01*
X191317Y11564D01*
X191385Y11679D01*
X191397Y11717D01*
X191416Y11752D01*
X191449Y11881D01*
X191489Y12009D01*
X191492Y12048D01*
X191502Y12086D01*
X191515Y12289D01*
X191515Y37592D01*
X191499Y37731D01*
X191489Y37871D01*
X191479Y37903D01*
X191475Y37935D01*
X191428Y38067D01*
X191386Y38201D01*
X191369Y38229D01*
X191358Y38260D01*
X191281Y38378D01*
X191210Y38498D01*
X191181Y38532D01*
X191169Y38550D01*
X191145Y38572D01*
X191077Y38651D01*
X184673Y45055D01*
X184563Y45142D01*
X184457Y45233D01*
X184428Y45249D01*
X184402Y45269D01*
X184275Y45329D01*
X184151Y45394D01*
X184119Y45402D01*
X184089Y45416D01*
X183952Y45445D01*
X183816Y45480D01*
X183772Y45483D01*
X183751Y45487D01*
X183718Y45486D01*
X183614Y45493D01*
X181824Y45493D01*
X179874Y46301D01*
X178381Y47794D01*
X177573Y49744D01*
X177573Y51856D01*
X178381Y53806D01*
X179874Y55299D01*
X181824Y56107D01*
X183936Y56107D01*
X185886Y55299D01*
X187379Y53806D01*
X188187Y51856D01*
X188187Y50066D01*
X188203Y49927D01*
X188213Y49787D01*
X188223Y49755D01*
X188227Y49723D01*
X188274Y49591D01*
X188316Y49457D01*
X188333Y49429D01*
X188344Y49398D01*
X188421Y49280D01*
X188492Y49160D01*
X188521Y49126D01*
X188533Y49108D01*
X188557Y49086D01*
X188625Y49007D01*
X195029Y42603D01*
X195139Y42516D01*
X195245Y42425D01*
X195274Y42409D01*
X195300Y42389D01*
X195427Y42329D01*
X195551Y42264D01*
X195583Y42256D01*
X195613Y42242D01*
X195750Y42213D01*
X195886Y42178D01*
X195930Y42175D01*
X195951Y42171D01*
X195984Y42172D01*
X196088Y42165D01*
X219072Y42165D01*
X219965Y41272D01*
X219965Y12141D01*
X219968Y12109D01*
X219966Y12076D01*
X219988Y11938D01*
X220005Y11798D01*
X220016Y11767D01*
X220021Y11735D01*
X220074Y11605D01*
X220122Y11473D01*
X220140Y11446D01*
X220152Y11416D01*
X220234Y11301D01*
X220311Y11183D01*
X220334Y11161D01*
X220353Y11134D01*
X220459Y11042D01*
X220561Y10945D01*
X220589Y10928D01*
X220613Y10907D01*
X220738Y10841D01*
X220859Y10770D01*
X220890Y10760D01*
X220919Y10745D01*
X221055Y10710D01*
X221189Y10668D01*
X221222Y10666D01*
X221253Y10658D01*
X221456Y10643D01*
X227094Y10617D01*
X227134Y10621D01*
X227173Y10618D01*
X227305Y10640D01*
X227438Y10655D01*
X227475Y10668D01*
X227514Y10675D01*
X227637Y10726D01*
X227763Y10771D01*
X227797Y10792D01*
X227833Y10807D01*
X227941Y10886D01*
X228054Y10958D01*
X228081Y10987D01*
X228113Y11010D01*
X228200Y11111D01*
X228293Y11207D01*
X228314Y11241D01*
X228339Y11271D01*
X228401Y11390D01*
X228469Y11505D01*
X228481Y11542D01*
X228500Y11577D01*
X228533Y11707D01*
X228573Y11834D01*
X228576Y11874D01*
X228586Y11912D01*
X228599Y12114D01*
X228599Y12244D01*
X242341Y12244D01*
X242377Y12248D01*
X242413Y12245D01*
X242548Y12268D01*
X242685Y12283D01*
X242718Y12296D01*
X242754Y12302D01*
X242880Y12354D01*
X243010Y12401D01*
X243040Y12421D01*
X243073Y12434D01*
X243184Y12515D01*
X243299Y12590D01*
X243324Y12616D01*
X243353Y12637D01*
X243443Y12740D01*
X243537Y12840D01*
X243556Y12871D01*
X243579Y12898D01*
X243643Y13020D01*
X243712Y13138D01*
X243723Y13173D01*
X243740Y13204D01*
X243774Y13337D01*
X243814Y13468D01*
X243816Y13504D01*
X243825Y13539D01*
X243839Y13741D01*
X243839Y15241D01*
X243841Y15241D01*
X243841Y13741D01*
X243845Y13706D01*
X243843Y13670D01*
X243865Y13534D01*
X243881Y13398D01*
X243893Y13364D01*
X243899Y13329D01*
X243952Y13202D01*
X243998Y13073D01*
X244018Y13043D01*
X244032Y13010D01*
X244112Y12899D01*
X244187Y12784D01*
X244213Y12759D01*
X244234Y12730D01*
X244338Y12640D01*
X244437Y12545D01*
X244468Y12527D01*
X244495Y12504D01*
X244617Y12440D01*
X244735Y12371D01*
X244770Y12360D01*
X244802Y12343D01*
X244934Y12309D01*
X245066Y12269D01*
X245101Y12266D01*
X245136Y12257D01*
X245339Y12244D01*
X259081Y12244D01*
X259081Y11957D01*
X259084Y11925D01*
X259082Y11892D01*
X259104Y11754D01*
X259121Y11614D01*
X259132Y11583D01*
X259137Y11551D01*
X259190Y11421D01*
X259238Y11289D01*
X259256Y11262D01*
X259268Y11232D01*
X259350Y11117D01*
X259427Y10999D01*
X259450Y10977D01*
X259469Y10950D01*
X259575Y10858D01*
X259677Y10761D01*
X259705Y10744D01*
X259729Y10723D01*
X259854Y10657D01*
X259975Y10586D01*
X260006Y10576D01*
X260035Y10561D01*
X260171Y10526D01*
X260305Y10484D01*
X260338Y10482D01*
X260369Y10474D01*
X260572Y10459D01*
X266210Y10433D01*
X266250Y10437D01*
G37*
G36*
X75750Y11333D02*
X75750Y11333D01*
X75789Y11330D01*
X75921Y11352D01*
X76054Y11367D01*
X76091Y11380D01*
X76130Y11387D01*
X76253Y11438D01*
X76379Y11483D01*
X76413Y11504D01*
X76449Y11520D01*
X76557Y11598D01*
X76670Y11670D01*
X76697Y11699D01*
X76729Y11722D01*
X76816Y11823D01*
X76909Y11919D01*
X76930Y11953D01*
X76955Y11983D01*
X77017Y12102D01*
X77085Y12217D01*
X77097Y12254D01*
X77116Y12289D01*
X77149Y12419D01*
X77189Y12546D01*
X77192Y12586D01*
X77202Y12624D01*
X77215Y12827D01*
X77215Y41272D01*
X78108Y42165D01*
X84379Y42165D01*
X84415Y42169D01*
X84450Y42166D01*
X84586Y42189D01*
X84722Y42205D01*
X84756Y42217D01*
X84791Y42223D01*
X84918Y42275D01*
X85047Y42322D01*
X85077Y42342D01*
X85110Y42356D01*
X85222Y42436D01*
X85337Y42511D01*
X85361Y42537D01*
X85391Y42558D01*
X85480Y42662D01*
X85575Y42761D01*
X85593Y42792D01*
X85617Y42819D01*
X85680Y42941D01*
X85750Y43059D01*
X85760Y43094D01*
X85777Y43125D01*
X85811Y43258D01*
X85852Y43389D01*
X85854Y43425D01*
X85863Y43460D01*
X85877Y43663D01*
X85877Y67929D01*
X85864Y68041D01*
X85860Y68153D01*
X85841Y68240D01*
X85837Y68272D01*
X85828Y68296D01*
X85816Y68351D01*
X85646Y68928D01*
X85694Y69016D01*
X85731Y69108D01*
X85777Y69196D01*
X85795Y69267D01*
X85823Y69336D01*
X85838Y69434D01*
X85863Y69530D01*
X85871Y69646D01*
X85876Y69678D01*
X85874Y69696D01*
X85877Y69733D01*
X85877Y69832D01*
X86302Y70257D01*
X86372Y70346D01*
X86449Y70428D01*
X86496Y70503D01*
X86516Y70528D01*
X86527Y70552D01*
X86558Y70599D01*
X118476Y129116D01*
X118508Y129196D01*
X118549Y129272D01*
X118572Y129356D01*
X118605Y129436D01*
X118618Y129522D01*
X118641Y129605D01*
X118644Y129692D01*
X118658Y129778D01*
X118651Y129864D01*
X118654Y129950D01*
X118637Y130036D01*
X118630Y130122D01*
X118604Y130205D01*
X118587Y130289D01*
X118551Y130369D01*
X118525Y130451D01*
X118480Y130525D01*
X118445Y130604D01*
X118392Y130673D01*
X118347Y130748D01*
X118287Y130809D01*
X118234Y130878D01*
X118166Y130933D01*
X118106Y130995D01*
X118033Y131041D01*
X117966Y131096D01*
X117888Y131134D01*
X117814Y131181D01*
X117733Y131209D01*
X117655Y131247D01*
X117570Y131266D01*
X117488Y131295D01*
X117402Y131304D01*
X117318Y131323D01*
X117231Y131322D01*
X117144Y131331D01*
X117059Y131320D01*
X116972Y131319D01*
X116833Y131292D01*
X108941Y135848D01*
X108930Y135853D01*
X108920Y135860D01*
X108770Y135922D01*
X108624Y135985D01*
X108612Y135987D01*
X108601Y135992D01*
X108441Y136018D01*
X108284Y136046D01*
X108272Y136045D01*
X108260Y136047D01*
X108099Y136036D01*
X107939Y136027D01*
X107927Y136024D01*
X107915Y136023D01*
X107760Y135975D01*
X107607Y135930D01*
X107597Y135924D01*
X107585Y135920D01*
X107446Y135838D01*
X107307Y135759D01*
X107298Y135751D01*
X107287Y135745D01*
X107171Y135633D01*
X107053Y135524D01*
X107047Y135514D01*
X107038Y135506D01*
X106920Y135341D01*
X66749Y70621D01*
X66688Y70493D01*
X66623Y70368D01*
X66615Y70337D01*
X66601Y70308D01*
X66572Y70170D01*
X66537Y70033D01*
X66534Y69991D01*
X66530Y69970D01*
X66531Y69937D01*
X66526Y69870D01*
X66007Y69351D01*
X65963Y69296D01*
X65912Y69247D01*
X65793Y69082D01*
X65405Y68456D01*
X65311Y68422D01*
X65176Y68380D01*
X65149Y68364D01*
X65119Y68353D01*
X65000Y68276D01*
X64879Y68204D01*
X64847Y68176D01*
X64829Y68165D01*
X64822Y68157D01*
X64820Y68156D01*
X64803Y68138D01*
X64756Y68097D01*
X64022Y68097D01*
X63952Y68089D01*
X63881Y68090D01*
X63681Y68057D01*
X62963Y67889D01*
X62873Y67932D01*
X62748Y67997D01*
X62717Y68005D01*
X62688Y68019D01*
X62550Y68048D01*
X62413Y68083D01*
X62371Y68086D01*
X62350Y68090D01*
X62317Y68089D01*
X62211Y68097D01*
X50234Y68097D01*
X50095Y68081D01*
X49955Y68070D01*
X49923Y68061D01*
X49891Y68057D01*
X49759Y68009D01*
X49625Y67967D01*
X49597Y67951D01*
X49566Y67939D01*
X49448Y67863D01*
X49327Y67791D01*
X49294Y67762D01*
X49276Y67750D01*
X49253Y67727D01*
X49175Y67658D01*
X48115Y66598D01*
X19761Y66598D01*
X19725Y66594D01*
X19690Y66596D01*
X19554Y66574D01*
X19418Y66558D01*
X19384Y66546D01*
X19349Y66540D01*
X19222Y66487D01*
X19093Y66441D01*
X19063Y66421D01*
X19030Y66407D01*
X18918Y66327D01*
X18803Y66252D01*
X18779Y66226D01*
X18749Y66205D01*
X18660Y66101D01*
X18565Y66002D01*
X18547Y65971D01*
X18523Y65943D01*
X18460Y65822D01*
X18390Y65704D01*
X18380Y65669D01*
X18363Y65637D01*
X18329Y65505D01*
X18288Y65373D01*
X18286Y65337D01*
X18277Y65303D01*
X18263Y65100D01*
X18263Y43663D01*
X18267Y43627D01*
X18265Y43591D01*
X18287Y43456D01*
X18303Y43319D01*
X18315Y43285D01*
X18321Y43250D01*
X18374Y43123D01*
X18421Y42994D01*
X18440Y42964D01*
X18454Y42931D01*
X18534Y42820D01*
X18610Y42705D01*
X18636Y42680D01*
X18657Y42651D01*
X18760Y42561D01*
X18860Y42466D01*
X18891Y42448D01*
X18918Y42425D01*
X19039Y42361D01*
X19158Y42292D01*
X19192Y42281D01*
X19224Y42264D01*
X19357Y42230D01*
X19488Y42190D01*
X19524Y42187D01*
X19559Y42178D01*
X19761Y42165D01*
X28572Y42165D01*
X29465Y41272D01*
X29465Y13037D01*
X29467Y13018D01*
X29466Y13010D01*
X29468Y13000D01*
X29466Y12972D01*
X29488Y12834D01*
X29505Y12694D01*
X29516Y12663D01*
X29521Y12631D01*
X29574Y12501D01*
X29622Y12369D01*
X29640Y12342D01*
X29652Y12312D01*
X29734Y12197D01*
X29811Y12079D01*
X29834Y12057D01*
X29853Y12031D01*
X29959Y11938D01*
X30061Y11841D01*
X30089Y11825D01*
X30113Y11803D01*
X30238Y11737D01*
X30359Y11666D01*
X30390Y11657D01*
X30419Y11641D01*
X30555Y11606D01*
X30689Y11564D01*
X30722Y11562D01*
X30753Y11554D01*
X30956Y11539D01*
X36594Y11513D01*
X36634Y11517D01*
X36673Y11514D01*
X36805Y11536D01*
X36938Y11551D01*
X36975Y11564D01*
X37014Y11571D01*
X37137Y11622D01*
X37263Y11667D01*
X37297Y11688D01*
X37333Y11704D01*
X37441Y11782D01*
X37554Y11854D01*
X37581Y11883D01*
X37613Y11906D01*
X37700Y12007D01*
X37793Y12103D01*
X37814Y12137D01*
X37839Y12167D01*
X37879Y12244D01*
X51841Y12244D01*
X51877Y12248D01*
X51913Y12245D01*
X52048Y12268D01*
X52185Y12283D01*
X52218Y12296D01*
X52254Y12302D01*
X52380Y12354D01*
X52510Y12401D01*
X52540Y12421D01*
X52573Y12434D01*
X52684Y12515D01*
X52799Y12590D01*
X52824Y12616D01*
X52853Y12637D01*
X52943Y12740D01*
X53037Y12840D01*
X53056Y12871D01*
X53079Y12898D01*
X53143Y13020D01*
X53212Y13138D01*
X53223Y13173D01*
X53240Y13204D01*
X53274Y13337D01*
X53314Y13468D01*
X53316Y13504D01*
X53325Y13539D01*
X53339Y13741D01*
X53339Y15241D01*
X53341Y15241D01*
X53341Y13741D01*
X53345Y13706D01*
X53343Y13670D01*
X53365Y13534D01*
X53381Y13398D01*
X53393Y13364D01*
X53399Y13329D01*
X53452Y13202D01*
X53498Y13073D01*
X53518Y13043D01*
X53532Y13010D01*
X53612Y12899D01*
X53687Y12784D01*
X53713Y12759D01*
X53734Y12730D01*
X53838Y12640D01*
X53937Y12545D01*
X53968Y12527D01*
X53995Y12504D01*
X54117Y12440D01*
X54235Y12371D01*
X54270Y12360D01*
X54302Y12343D01*
X54434Y12309D01*
X54566Y12269D01*
X54601Y12266D01*
X54636Y12257D01*
X54839Y12244D01*
X68717Y12244D01*
X68738Y12185D01*
X68756Y12158D01*
X68768Y12128D01*
X68850Y12013D01*
X68927Y11895D01*
X68950Y11873D01*
X68969Y11847D01*
X69075Y11754D01*
X69177Y11657D01*
X69205Y11641D01*
X69229Y11619D01*
X69354Y11553D01*
X69475Y11482D01*
X69506Y11473D01*
X69535Y11457D01*
X69671Y11422D01*
X69805Y11380D01*
X69838Y11378D01*
X69869Y11370D01*
X70072Y11355D01*
X75710Y11329D01*
X75750Y11333D01*
G37*
G36*
X339910Y10091D02*
X339910Y10091D01*
X339949Y10088D01*
X340081Y10110D01*
X340214Y10124D01*
X340251Y10138D01*
X340290Y10144D01*
X340413Y10196D01*
X340539Y10240D01*
X340573Y10262D01*
X340609Y10277D01*
X340717Y10355D01*
X340830Y10428D01*
X340857Y10456D01*
X340889Y10479D01*
X340977Y10580D01*
X341069Y10677D01*
X341089Y10711D01*
X341115Y10741D01*
X341177Y10859D01*
X341246Y10974D01*
X341257Y11012D01*
X341276Y11047D01*
X341309Y11176D01*
X341349Y11304D01*
X341352Y11343D01*
X341362Y11382D01*
X341375Y11584D01*
X341375Y24569D01*
X341359Y24708D01*
X341349Y24848D01*
X341339Y24879D01*
X341335Y24912D01*
X341288Y25044D01*
X341246Y25178D01*
X341229Y25206D01*
X341218Y25237D01*
X341141Y25354D01*
X341070Y25475D01*
X341041Y25508D01*
X341029Y25526D01*
X341005Y25549D01*
X340937Y25628D01*
X337838Y28727D01*
X337756Y28791D01*
X337680Y28864D01*
X337621Y28899D01*
X337567Y28941D01*
X337472Y28986D01*
X337382Y29038D01*
X337316Y29059D01*
X337254Y29088D01*
X337152Y29109D01*
X337052Y29140D01*
X336983Y29145D01*
X336916Y29159D01*
X336811Y29157D01*
X336707Y29164D01*
X336639Y29152D01*
X336570Y29151D01*
X336469Y29124D01*
X336366Y29107D01*
X336303Y29081D01*
X336236Y29064D01*
X336143Y29015D01*
X336047Y28975D01*
X335991Y28934D01*
X335930Y28902D01*
X335852Y28833D01*
X335767Y28772D01*
X335722Y28720D01*
X335670Y28675D01*
X335609Y28590D01*
X335541Y28511D01*
X335509Y28450D01*
X335469Y28394D01*
X335429Y28297D01*
X335380Y28205D01*
X335363Y28138D01*
X335337Y28074D01*
X335320Y27971D01*
X335294Y27870D01*
X335287Y27766D01*
X335282Y27733D01*
X335284Y27712D01*
X335281Y27668D01*
X335281Y18236D01*
X323036Y18236D01*
X323036Y43181D01*
X326582Y43181D01*
X326686Y43193D01*
X326790Y43195D01*
X326857Y43213D01*
X326925Y43221D01*
X327024Y43256D01*
X327125Y43283D01*
X327186Y43315D01*
X327250Y43338D01*
X327338Y43395D01*
X327430Y43444D01*
X327482Y43489D01*
X327540Y43527D01*
X327612Y43603D01*
X327691Y43671D01*
X327731Y43727D01*
X327778Y43777D01*
X327831Y43867D01*
X327892Y43952D01*
X327918Y44016D01*
X327953Y44075D01*
X327984Y44175D01*
X328024Y44272D01*
X328035Y44340D01*
X328055Y44405D01*
X328062Y44510D01*
X328078Y44613D01*
X328074Y44682D01*
X328078Y44750D01*
X328061Y44853D01*
X328054Y44958D01*
X328033Y45023D01*
X328022Y45091D01*
X327982Y45188D01*
X327951Y45287D01*
X327916Y45347D01*
X327889Y45410D01*
X327828Y45495D01*
X327775Y45585D01*
X327706Y45664D01*
X327687Y45690D01*
X327670Y45704D01*
X327641Y45738D01*
X303145Y70233D01*
X303043Y70314D01*
X302946Y70401D01*
X302908Y70421D01*
X302875Y70448D01*
X302756Y70503D01*
X302642Y70565D01*
X302600Y70577D01*
X302562Y70595D01*
X302434Y70622D01*
X302308Y70656D01*
X302249Y70660D01*
X302223Y70666D01*
X302191Y70665D01*
X302106Y70672D01*
X244722Y71430D01*
X244677Y71426D01*
X244631Y71429D01*
X244505Y71408D01*
X244379Y71395D01*
X244335Y71380D01*
X244290Y71373D01*
X244172Y71324D01*
X244052Y71282D01*
X244013Y71257D01*
X243971Y71240D01*
X243868Y71165D01*
X243760Y71097D01*
X243728Y71064D01*
X243691Y71037D01*
X243608Y70941D01*
X243518Y70850D01*
X243495Y70811D01*
X243465Y70776D01*
X243406Y70663D01*
X243340Y70554D01*
X243326Y70510D01*
X243304Y70470D01*
X243273Y70347D01*
X243234Y70225D01*
X243230Y70180D01*
X243218Y70135D01*
X243205Y69933D01*
X243205Y58599D01*
X243209Y58563D01*
X243206Y58527D01*
X243229Y58392D01*
X243245Y58255D01*
X243257Y58221D01*
X243263Y58186D01*
X243315Y58059D01*
X243362Y57930D01*
X243382Y57900D01*
X243396Y57867D01*
X243476Y57756D01*
X243551Y57641D01*
X243577Y57616D01*
X243598Y57587D01*
X243702Y57497D01*
X243801Y57402D01*
X243832Y57384D01*
X243859Y57361D01*
X243981Y57297D01*
X244099Y57228D01*
X244134Y57217D01*
X244165Y57200D01*
X244298Y57166D01*
X244429Y57126D01*
X244465Y57123D01*
X244500Y57115D01*
X244703Y57101D01*
X259595Y57101D01*
X270685Y46010D01*
X270721Y45982D01*
X270751Y45949D01*
X270856Y45875D01*
X270956Y45796D01*
X270997Y45777D01*
X271034Y45751D01*
X271219Y45667D01*
X271474Y45571D01*
X271653Y45177D01*
X271738Y45037D01*
X271824Y44891D01*
X271829Y44885D01*
X271831Y44881D01*
X271840Y44872D01*
X271958Y44738D01*
X272263Y44432D01*
X272263Y44159D01*
X272269Y44115D01*
X272266Y44070D01*
X272288Y43943D01*
X272303Y43816D01*
X272318Y43774D01*
X272326Y43729D01*
X272398Y43539D01*
X272623Y43043D01*
X272656Y42989D01*
X272680Y42931D01*
X272745Y42841D01*
X272802Y42747D01*
X272846Y42702D01*
X272882Y42651D01*
X272966Y42579D01*
X273043Y42499D01*
X273096Y42466D01*
X273144Y42425D01*
X273241Y42373D01*
X273335Y42314D01*
X273394Y42293D01*
X273450Y42264D01*
X273557Y42237D01*
X273661Y42201D01*
X273724Y42194D01*
X273785Y42178D01*
X273987Y42165D01*
X295272Y42165D01*
X296165Y41272D01*
X296165Y11783D01*
X296168Y11750D01*
X296166Y11718D01*
X296188Y11579D01*
X296205Y11439D01*
X296216Y11409D01*
X296221Y11377D01*
X296274Y11246D01*
X296322Y11114D01*
X296340Y11087D01*
X296352Y11057D01*
X296434Y10943D01*
X296511Y10825D01*
X296534Y10802D01*
X296553Y10776D01*
X296659Y10683D01*
X296761Y10586D01*
X296789Y10570D01*
X296813Y10549D01*
X296938Y10483D01*
X297059Y10412D01*
X297090Y10402D01*
X297119Y10387D01*
X297255Y10351D01*
X297389Y10310D01*
X297422Y10308D01*
X297453Y10299D01*
X297656Y10285D01*
X303294Y10258D01*
X303334Y10263D01*
X303373Y10260D01*
X303505Y10282D01*
X303638Y10296D01*
X303675Y10310D01*
X303714Y10316D01*
X303837Y10368D01*
X303963Y10412D01*
X303997Y10434D01*
X304033Y10449D01*
X304141Y10527D01*
X304254Y10600D01*
X304281Y10628D01*
X304313Y10651D01*
X304400Y10752D01*
X304493Y10849D01*
X304514Y10883D01*
X304539Y10913D01*
X304601Y11031D01*
X304669Y11146D01*
X304681Y11184D01*
X304700Y11219D01*
X304733Y11348D01*
X304773Y11476D01*
X304776Y11515D01*
X304786Y11554D01*
X304799Y11756D01*
X304799Y12244D01*
X318541Y12244D01*
X318577Y12248D01*
X318613Y12245D01*
X318748Y12268D01*
X318885Y12283D01*
X318918Y12296D01*
X318954Y12302D01*
X319080Y12354D01*
X319210Y12401D01*
X319240Y12421D01*
X319273Y12434D01*
X319384Y12515D01*
X319499Y12590D01*
X319524Y12616D01*
X319553Y12637D01*
X319643Y12740D01*
X319737Y12840D01*
X319756Y12871D01*
X319779Y12898D01*
X319843Y13020D01*
X319912Y13138D01*
X319923Y13173D01*
X319940Y13204D01*
X319974Y13337D01*
X320014Y13468D01*
X320016Y13504D01*
X320025Y13539D01*
X320039Y13741D01*
X320039Y15241D01*
X320041Y15241D01*
X320041Y13741D01*
X320045Y13706D01*
X320043Y13670D01*
X320065Y13534D01*
X320081Y13398D01*
X320093Y13364D01*
X320099Y13329D01*
X320152Y13202D01*
X320198Y13073D01*
X320218Y13043D01*
X320232Y13010D01*
X320312Y12899D01*
X320387Y12784D01*
X320413Y12759D01*
X320434Y12730D01*
X320538Y12640D01*
X320637Y12545D01*
X320668Y12527D01*
X320695Y12504D01*
X320817Y12440D01*
X320935Y12371D01*
X320970Y12360D01*
X321002Y12343D01*
X321134Y12309D01*
X321266Y12269D01*
X321301Y12266D01*
X321336Y12257D01*
X321539Y12244D01*
X335281Y12244D01*
X335281Y11599D01*
X335284Y11566D01*
X335282Y11534D01*
X335304Y11395D01*
X335321Y11255D01*
X335332Y11225D01*
X335337Y11193D01*
X335390Y11062D01*
X335438Y10930D01*
X335456Y10903D01*
X335468Y10873D01*
X335550Y10759D01*
X335627Y10641D01*
X335650Y10618D01*
X335669Y10592D01*
X335775Y10499D01*
X335877Y10402D01*
X335905Y10386D01*
X335929Y10365D01*
X336054Y10299D01*
X336175Y10228D01*
X336206Y10218D01*
X336235Y10203D01*
X336371Y10167D01*
X336505Y10126D01*
X336538Y10124D01*
X336569Y10115D01*
X336772Y10101D01*
X339870Y10086D01*
X339910Y10091D01*
G37*
G36*
X222749Y140515D02*
X222749Y140515D01*
X222769Y140514D01*
X222919Y140543D01*
X223070Y140568D01*
X223089Y140576D01*
X223108Y140579D01*
X223248Y140642D01*
X223389Y140701D01*
X223405Y140713D01*
X223424Y140721D01*
X223546Y140814D01*
X223669Y140903D01*
X223682Y140918D01*
X223698Y140931D01*
X223795Y141049D01*
X223895Y141164D01*
X223905Y141182D01*
X223917Y141198D01*
X223985Y141335D01*
X224056Y141471D01*
X224061Y141490D01*
X224069Y141508D01*
X224104Y141657D01*
X224142Y141805D01*
X224143Y141831D01*
X224146Y141845D01*
X224146Y141874D01*
X224155Y142008D01*
X224155Y146732D01*
X225048Y147625D01*
X239994Y147625D01*
X240119Y147639D01*
X240246Y147646D01*
X240290Y147659D01*
X240337Y147665D01*
X240456Y147708D01*
X240577Y147743D01*
X240618Y147766D01*
X240662Y147782D01*
X240768Y147851D01*
X240878Y147914D01*
X240912Y147945D01*
X240951Y147971D01*
X241039Y148063D01*
X241131Y148149D01*
X241157Y148187D01*
X241190Y148221D01*
X241254Y148330D01*
X241324Y148435D01*
X241341Y148479D01*
X241364Y148519D01*
X241402Y148640D01*
X241446Y148759D01*
X241453Y148805D01*
X241466Y148849D01*
X241475Y148976D01*
X241491Y149101D01*
X241487Y149148D01*
X241490Y149194D01*
X241469Y149319D01*
X241456Y149445D01*
X241441Y149489D01*
X241433Y149535D01*
X241385Y149652D01*
X241343Y149772D01*
X241318Y149811D01*
X241301Y149854D01*
X241227Y149957D01*
X241159Y150064D01*
X241125Y150097D01*
X241098Y150134D01*
X241002Y150217D01*
X240912Y150306D01*
X240858Y150342D01*
X240837Y150360D01*
X240809Y150375D01*
X240744Y150419D01*
X135762Y211169D01*
X135747Y211175D01*
X135734Y211185D01*
X135589Y211244D01*
X135445Y211306D01*
X135429Y211309D01*
X135414Y211315D01*
X135259Y211340D01*
X135105Y211368D01*
X135089Y211367D01*
X135073Y211369D01*
X134916Y211357D01*
X134760Y211349D01*
X134744Y211345D01*
X134728Y211343D01*
X134579Y211296D01*
X134428Y211252D01*
X134414Y211244D01*
X134399Y211239D01*
X134264Y211159D01*
X134127Y211081D01*
X134116Y211071D01*
X134102Y211063D01*
X133989Y210953D01*
X133874Y210847D01*
X133865Y210833D01*
X133853Y210822D01*
X133736Y210657D01*
X133389Y210094D01*
X133365Y210042D01*
X133334Y209995D01*
X133293Y209886D01*
X133244Y209781D01*
X133232Y209725D01*
X133212Y209672D01*
X133197Y209556D01*
X133173Y209442D01*
X133175Y209385D01*
X133168Y209329D01*
X133180Y209213D01*
X133183Y209097D01*
X133197Y209042D01*
X133203Y208985D01*
X133241Y208875D01*
X133271Y208763D01*
X133298Y208712D01*
X133316Y208659D01*
X133378Y208561D01*
X133433Y208457D01*
X133471Y208415D01*
X133501Y208367D01*
X133568Y208301D01*
X133578Y208288D01*
X133596Y208272D01*
X133661Y208198D01*
X133707Y208165D01*
X133748Y208125D01*
X133827Y208072D01*
X133839Y208061D01*
X133856Y208053D01*
X133916Y208012D01*
X155183Y195734D01*
X155510Y194514D01*
X153536Y191095D01*
X153482Y190970D01*
X153421Y190846D01*
X153413Y190811D01*
X153399Y190778D01*
X153375Y190643D01*
X153344Y190509D01*
X153344Y190473D01*
X153338Y190438D01*
X153346Y190301D01*
X153347Y190164D01*
X153355Y190129D01*
X153357Y190093D01*
X153396Y189961D01*
X153428Y189828D01*
X153444Y189796D01*
X153454Y189761D01*
X153522Y189642D01*
X153584Y189520D01*
X153607Y189492D01*
X153625Y189461D01*
X153719Y189360D01*
X153807Y189255D01*
X153844Y189225D01*
X153860Y189208D01*
X153888Y189189D01*
X153964Y189127D01*
X221788Y140788D01*
X221922Y140714D01*
X222054Y140637D01*
X222073Y140631D01*
X222091Y140621D01*
X222238Y140580D01*
X222384Y140535D01*
X222404Y140534D01*
X222424Y140528D01*
X222576Y140522D01*
X222729Y140512D01*
X222749Y140515D01*
G37*
G36*
X61123Y74159D02*
X61123Y74159D01*
X61262Y74169D01*
X61295Y74179D01*
X61328Y74183D01*
X61459Y74230D01*
X61592Y74272D01*
X61621Y74289D01*
X61653Y74301D01*
X61770Y74377D01*
X61890Y74447D01*
X61914Y74471D01*
X61943Y74490D01*
X62039Y74590D01*
X62139Y74687D01*
X62166Y74724D01*
X62181Y74740D01*
X62198Y74768D01*
X62258Y74851D01*
X101630Y138284D01*
X101655Y138339D01*
X101689Y138388D01*
X101729Y138494D01*
X101777Y138597D01*
X101789Y138656D01*
X101811Y138712D01*
X101825Y138824D01*
X101849Y138935D01*
X101847Y138995D01*
X101855Y139054D01*
X101843Y139167D01*
X101841Y139281D01*
X101826Y139339D01*
X101820Y139398D01*
X101783Y139505D01*
X101754Y139615D01*
X101726Y139668D01*
X101707Y139725D01*
X101646Y139820D01*
X101593Y139921D01*
X101554Y139966D01*
X101522Y140017D01*
X101441Y140096D01*
X101366Y140182D01*
X101317Y140217D01*
X101275Y140258D01*
X101106Y140372D01*
X94553Y144155D01*
X94539Y144161D01*
X94527Y144170D01*
X94381Y144229D01*
X94236Y144292D01*
X94221Y144295D01*
X94207Y144300D01*
X94051Y144325D01*
X93896Y144353D01*
X93881Y144352D01*
X93866Y144354D01*
X93708Y144343D01*
X93551Y144334D01*
X93536Y144330D01*
X93521Y144329D01*
X93370Y144281D01*
X93219Y144237D01*
X93206Y144229D01*
X93192Y144224D01*
X93056Y144144D01*
X92919Y144066D01*
X92908Y144055D01*
X92895Y144048D01*
X92781Y143938D01*
X92665Y143831D01*
X92657Y143818D01*
X92646Y143808D01*
X92528Y143642D01*
X51904Y77576D01*
X51897Y77560D01*
X51886Y77546D01*
X51796Y77365D01*
X51320Y76214D01*
X51277Y76064D01*
X51231Y75914D01*
X51230Y75898D01*
X51225Y75882D01*
X51218Y75726D01*
X51208Y75570D01*
X51210Y75553D01*
X51210Y75537D01*
X51238Y75383D01*
X51264Y75229D01*
X51270Y75213D01*
X51273Y75197D01*
X51337Y75054D01*
X51397Y74910D01*
X51406Y74896D01*
X51413Y74881D01*
X51508Y74756D01*
X51599Y74629D01*
X51612Y74619D01*
X51622Y74606D01*
X51742Y74505D01*
X51860Y74403D01*
X51875Y74396D01*
X51888Y74385D01*
X52028Y74315D01*
X52167Y74243D01*
X52183Y74239D01*
X52197Y74232D01*
X52350Y74196D01*
X52501Y74157D01*
X52523Y74156D01*
X52534Y74153D01*
X52561Y74153D01*
X52704Y74143D01*
X60985Y74143D01*
X61123Y74159D01*
G37*
%LPC*%
G36*
X56336Y18236D02*
X56336Y18236D01*
X56336Y43181D01*
X66374Y43181D01*
X67021Y43008D01*
X67600Y42673D01*
X68073Y42200D01*
X68408Y41621D01*
X68581Y40974D01*
X68581Y18236D01*
X56336Y18236D01*
G37*
%LPD*%
%LPC*%
G36*
X246836Y18236D02*
X246836Y18236D01*
X246836Y43181D01*
X256874Y43181D01*
X257521Y43008D01*
X258100Y42673D01*
X258573Y42200D01*
X258908Y41621D01*
X259081Y40974D01*
X259081Y18236D01*
X246836Y18236D01*
G37*
%LPD*%
%LPC*%
G36*
X38099Y18236D02*
X38099Y18236D01*
X38099Y40974D01*
X38272Y41621D01*
X38607Y42200D01*
X39080Y42673D01*
X39659Y43008D01*
X40306Y43181D01*
X50344Y43181D01*
X50344Y18236D01*
X38099Y18236D01*
G37*
%LPD*%
%LPC*%
G36*
X304799Y18236D02*
X304799Y18236D01*
X304799Y40974D01*
X304972Y41621D01*
X305307Y42200D01*
X305780Y42673D01*
X306359Y43008D01*
X307006Y43181D01*
X317044Y43181D01*
X317044Y18236D01*
X304799Y18236D01*
G37*
%LPD*%
%LPC*%
G36*
X228599Y18236D02*
X228599Y18236D01*
X228599Y40974D01*
X228772Y41621D01*
X229107Y42200D01*
X229580Y42673D01*
X230159Y43008D01*
X230806Y43181D01*
X240844Y43181D01*
X240844Y18236D01*
X228599Y18236D01*
G37*
%LPD*%
%LPC*%
G36*
X114299Y18236D02*
X114299Y18236D01*
X114299Y40974D01*
X114472Y41621D01*
X114807Y42200D01*
X115280Y42673D01*
X115859Y43008D01*
X116506Y43181D01*
X126544Y43181D01*
X126544Y18236D01*
X114299Y18236D01*
G37*
%LPD*%
D10*
X15240Y15240D03*
X53340Y15240D03*
X91440Y15240D03*
X129540Y15240D03*
X167640Y15240D03*
X205740Y15240D03*
X243840Y15240D03*
X281940Y15240D03*
X320040Y15240D03*
X355600Y15240D03*
D11*
X165100Y128600D03*
X165100Y74600D03*
X233680Y128600D03*
X233680Y74600D03*
D12*
G36*
X95047Y145630D02*
X101397Y156629D01*
X123393Y143930D01*
X117043Y132931D01*
X95047Y145630D01*
G37*
G36*
X105207Y163410D02*
X111557Y174409D01*
X133553Y161710D01*
X127203Y150711D01*
X105207Y163410D01*
G37*
G36*
X115367Y181190D02*
X121717Y192189D01*
X143713Y179490D01*
X137363Y168491D01*
X115367Y181190D01*
G37*
G36*
X125527Y196430D02*
X131877Y207429D01*
X153873Y194730D01*
X147523Y183731D01*
X125527Y196430D01*
G37*
D13*
X129540Y180340D02*
X165100Y157480D01*
X165100Y128600D01*
X233680Y128600D02*
X139700Y195580D01*
X165100Y74600D02*
X203906Y74600D01*
X224428Y54077D02*
X258343Y54077D01*
X269240Y43180D01*
X224428Y54077D02*
X203906Y74600D01*
X269240Y43180D02*
X281940Y15240D01*
X304800Y73660D02*
X233680Y74600D01*
X304800Y73660D02*
X304800Y72855D01*
X335763Y41892D02*
X335763Y35077D01*
X355600Y15240D01*
X335763Y41892D02*
X304800Y72855D01*
X109220Y144780D02*
X63500Y71120D01*
X49237Y71120D01*
X48087Y70846D01*
X46862Y69621D01*
X15240Y69621D01*
X15240Y15240D01*
X119380Y162560D02*
X134620Y152400D01*
X88900Y68580D01*
X88900Y22860D01*
X91440Y15240D01*
X167640Y15240D02*
X167640Y28787D01*
D14*
X147320Y71120D03*
D15*
X147320Y35560D01*
X167640Y15240D01*
D14*
X53340Y55880D03*
X76200Y106680D03*
X106680Y121920D03*
X96520Y58420D03*
X297180Y53340D03*
X325120Y88900D03*
X177800Y157480D03*
X190500Y175260D03*
X137160Y121920D03*
D13*
X205740Y27940D02*
X205740Y15240D01*
D14*
X139700Y96520D03*
D15*
X180340Y96520D01*
D14*
X180340Y96520D03*
X182880Y50800D03*
D15*
X205740Y27940D01*
M02*
