G04 EAGLE Gerber RS-274X export*
G75*
%MOMM*%
%FSLAX34Y34*%
%LPD*%
%INBottom Solder Mask*%
%IPPOS*%
%AMOC8*
5,1,8,0,0,1.08239X$1,22.5*%
G01*
%ADD10R,2.743200X5.283200*%
%ADD11R,1.803200X3.703200*%
%ADD12R,1.473200X2.743200*%
%ADD13C,0.959600*%
%ADD14C,0.909600*%


D10*
X15240Y15240D03*
X53340Y15240D03*
X91440Y15240D03*
X129540Y15240D03*
X167640Y15240D03*
X205740Y15240D03*
X243840Y15240D03*
X281940Y15240D03*
X320040Y15240D03*
X355600Y15240D03*
D11*
X165100Y128600D03*
X165100Y74600D03*
X233045Y128981D03*
X233045Y74981D03*
D12*
G36*
X93659Y145258D02*
X101025Y158017D01*
X124781Y144302D01*
X117415Y131543D01*
X93659Y145258D01*
G37*
G36*
X103819Y163038D02*
X111185Y175797D01*
X134941Y162082D01*
X127575Y149323D01*
X103819Y163038D01*
G37*
G36*
X113979Y180818D02*
X121345Y193577D01*
X145101Y179862D01*
X137735Y167103D01*
X113979Y180818D01*
G37*
G36*
X124139Y196058D02*
X131505Y208817D01*
X155261Y195102D01*
X147895Y182343D01*
X124139Y196058D01*
G37*
D13*
X147320Y71120D03*
X53340Y55880D03*
X94996Y135763D03*
X96520Y58420D03*
X297180Y53340D03*
X325120Y88900D03*
X177800Y157480D03*
X137160Y121920D03*
D14*
X215392Y46990D03*
X165862Y46990D03*
D13*
X139319Y102489D03*
X184531Y98171D03*
X184531Y61595D03*
X68453Y57277D03*
M02*
