G04 EAGLE Gerber RS-274X export*
G75*
%MOMM*%
%FSLAX34Y34*%
%LPD*%
%INTop Solder Mask*%
%IPPOS*%
%AMOC8*
5,1,8,0,0,1.08239X$1,22.5*%
G01*
%ADD10C,0.203200*%
%ADD11R,2.743200X5.283200*%
%ADD12R,1.803200X3.703200*%
%ADD13R,1.473200X2.743200*%
%ADD14R,2.006200X1.803200*%
%ADD15C,0.959600*%
%ADD16C,0.909600*%


D10*
X100076Y126619D02*
X95504Y129413D01*
X91440Y122809D01*
X95885Y119888D01*
X100076Y126746D01*
X98552Y127635D01*
X95123Y121920D01*
X92964Y122047D01*
X96901Y128397D01*
X91440Y122936D02*
X88011Y116967D01*
X92456Y114300D01*
X95631Y119380D01*
X91440Y120523D01*
X93345Y117983D01*
X90551Y118745D01*
X92329Y116459D01*
X89154Y117348D01*
D11*
X25400Y15240D03*
X63500Y15240D03*
X101600Y15240D03*
X139700Y15240D03*
X177800Y15240D03*
X215900Y15240D03*
X254000Y15240D03*
X292100Y15240D03*
X330200Y15240D03*
X368300Y15240D03*
D12*
X207010Y128981D03*
X207010Y74981D03*
D13*
G36*
X145101Y179862D02*
X137735Y167103D01*
X113979Y180818D01*
X121345Y193577D01*
X145101Y179862D01*
G37*
G36*
X155261Y197642D02*
X147895Y184883D01*
X124139Y198598D01*
X131505Y211357D01*
X155261Y197642D01*
G37*
G36*
X134941Y162082D02*
X127575Y149323D01*
X103819Y163038D01*
X111185Y175797D01*
X134941Y162082D01*
G37*
G36*
X124781Y144302D02*
X117415Y131543D01*
X93659Y145258D01*
X101025Y158017D01*
X124781Y144302D01*
G37*
D14*
X124460Y103120D03*
X124460Y74680D03*
D13*
G36*
X105567Y104962D02*
X92808Y112328D01*
X106523Y136084D01*
X119282Y128718D01*
X105567Y104962D01*
G37*
D15*
X147320Y71120D03*
X53340Y55880D03*
X94996Y135763D03*
X96520Y58420D03*
X297180Y53340D03*
X325120Y88900D03*
X177800Y157480D03*
X137160Y121920D03*
D16*
X215392Y46990D03*
X165862Y46990D03*
D15*
X139319Y102489D03*
X184531Y98171D03*
X184531Y61595D03*
X68453Y57277D03*
M02*
